<mxfile host="app.diagrams.net" modified="2023-04-13T10:50:54.488Z" agent="Mozilla/5.0 (Macintosh; Intel Mac OS X 10_15_7) AppleWebKit/605.1.15 (KHTML, like Gecko) Version/16.3 Safari/605.1.15" etag="jvyqEVCUEJWvaArGLmU-" version="21.1.7" type="github">
  <diagram name="Page-1" id="iVAJwKYNkSjnRaFD1DjO">
    <mxGraphModel dx="1434" dy="827" grid="1" gridSize="10" guides="1" tooltips="1" connect="1" arrows="1" fold="1" page="1" pageScale="1" pageWidth="850" pageHeight="1100" math="0" shadow="0">
      <root>
        <mxCell id="0" />
        <mxCell id="1" parent="0" />
        <mxCell id="DrQzbPBQm9nXxSn8lfKz-1" value="" style="group" vertex="1" connectable="0" parent="1">
          <mxGeometry x="130" y="210" width="150" height="220" as="geometry" />
        </mxCell>
        <mxCell id="DrQzbPBQm9nXxSn8lfKz-2" value="" style="rounded=1;whiteSpace=wrap;html=1;glass=0;shadow=0;fillColor=#dae8fc;strokeColor=#6c8ebf;" vertex="1" parent="DrQzbPBQm9nXxSn8lfKz-1">
          <mxGeometry width="150" height="220.00000000000003" as="geometry" />
        </mxCell>
        <mxCell id="DrQzbPBQm9nXxSn8lfKz-3" value="" style="group" vertex="1" connectable="0" parent="DrQzbPBQm9nXxSn8lfKz-1">
          <mxGeometry x="37.5" y="18.333333333333336" width="76.33928571428571" height="158.8888888888889" as="geometry" />
        </mxCell>
        <mxCell id="DrQzbPBQm9nXxSn8lfKz-4" value="" style="sketch=0;points=[[0.015,0.015,0],[0.985,0.015,0],[0.985,0.985,0],[0.015,0.985,0],[0.25,0,0],[0.5,0,0],[0.75,0,0],[1,0.25,0],[1,0.5,0],[1,0.75,0],[0.75,1,0],[0.5,1,0],[0.25,1,0],[0,0.75,0],[0,0.5,0],[0,0.25,0]];verticalLabelPosition=bottom;html=1;verticalAlign=top;aspect=fixed;align=center;pointerEvents=1;shape=mxgraph.cisco19.server;fillColor=#005073;strokeColor=none;" vertex="1" parent="DrQzbPBQm9nXxSn8lfKz-3">
          <mxGeometry width="14.73214285714286" height="26.785714285714285" as="geometry" />
        </mxCell>
        <mxCell id="DrQzbPBQm9nXxSn8lfKz-5" value="" style="sketch=0;points=[[0.015,0.015,0],[0.985,0.015,0],[0.985,0.985,0],[0.015,0.985,0],[0.25,0,0],[0.5,0,0],[0.75,0,0],[1,0.25,0],[1,0.5,0],[1,0.75,0],[0.75,1,0],[0.5,1,0],[0.25,1,0],[0,0.75,0],[0,0.5,0],[0,0.25,0]];verticalLabelPosition=bottom;html=1;verticalAlign=top;aspect=fixed;align=center;pointerEvents=1;shape=mxgraph.cisco19.server;fillColor=#005073;strokeColor=none;" vertex="1" parent="DrQzbPBQm9nXxSn8lfKz-3">
          <mxGeometry y="61.111111111111114" width="14.73214285714286" height="26.785714285714285" as="geometry" />
        </mxCell>
        <mxCell id="DrQzbPBQm9nXxSn8lfKz-6" value="" style="sketch=0;points=[[0.015,0.015,0],[0.985,0.015,0],[0.985,0.985,0],[0.015,0.985,0],[0.25,0,0],[0.5,0,0],[0.75,0,0],[1,0.25,0],[1,0.5,0],[1,0.75,0],[0.75,1,0],[0.5,1,0],[0.25,1,0],[0,0.75,0],[0,0.5,0],[0,0.25,0]];verticalLabelPosition=bottom;html=1;verticalAlign=top;aspect=fixed;align=center;pointerEvents=1;shape=mxgraph.cisco19.server;fillColor=#005073;strokeColor=none;" vertex="1" parent="DrQzbPBQm9nXxSn8lfKz-3">
          <mxGeometry y="128.33333333333334" width="14.73214285714286" height="26.785714285714285" as="geometry" />
        </mxCell>
        <mxCell id="DrQzbPBQm9nXxSn8lfKz-7" value="" style="sketch=0;points=[[0.015,0.015,0],[0.985,0.015,0],[0.985,0.985,0],[0.015,0.985,0],[0.25,0,0],[0.5,0,0],[0.75,0,0],[1,0.25,0],[1,0.5,0],[1,0.75,0],[0.75,1,0],[0.5,1,0],[0.25,1,0],[0,0.75,0],[0,0.5,0],[0,0.25,0]];verticalLabelPosition=bottom;html=1;verticalAlign=top;aspect=fixed;align=center;pointerEvents=1;shape=mxgraph.cisco19.server;fillColor=#005073;strokeColor=none;" vertex="1" parent="DrQzbPBQm9nXxSn8lfKz-3">
          <mxGeometry x="61.607142857142854" width="14.73214285714286" height="26.785714285714285" as="geometry" />
        </mxCell>
        <mxCell id="DrQzbPBQm9nXxSn8lfKz-8" value="" style="sketch=0;points=[[0.015,0.015,0],[0.985,0.015,0],[0.985,0.985,0],[0.015,0.985,0],[0.25,0,0],[0.5,0,0],[0.75,0,0],[1,0.25,0],[1,0.5,0],[1,0.75,0],[0.75,1,0],[0.5,1,0],[0.25,1,0],[0,0.75,0],[0,0.5,0],[0,0.25,0]];verticalLabelPosition=bottom;html=1;verticalAlign=top;aspect=fixed;align=center;pointerEvents=1;shape=mxgraph.cisco19.server;fillColor=#005073;strokeColor=none;" vertex="1" parent="DrQzbPBQm9nXxSn8lfKz-3">
          <mxGeometry x="61.607142857142854" y="61.111111111111114" width="14.73214285714286" height="26.785714285714285" as="geometry" />
        </mxCell>
        <mxCell id="DrQzbPBQm9nXxSn8lfKz-9" value="" style="sketch=0;points=[[0.015,0.015,0],[0.985,0.015,0],[0.985,0.985,0],[0.015,0.985,0],[0.25,0,0],[0.5,0,0],[0.75,0,0],[1,0.25,0],[1,0.5,0],[1,0.75,0],[0.75,1,0],[0.5,1,0],[0.25,1,0],[0,0.75,0],[0,0.5,0],[0,0.25,0]];verticalLabelPosition=bottom;html=1;verticalAlign=top;aspect=fixed;align=center;pointerEvents=1;shape=mxgraph.cisco19.server;fillColor=#005073;strokeColor=none;" vertex="1" parent="DrQzbPBQm9nXxSn8lfKz-3">
          <mxGeometry x="61.607142857142854" y="128.33333333333334" width="14.73214285714286" height="26.785714285714285" as="geometry" />
        </mxCell>
        <mxCell id="DrQzbPBQm9nXxSn8lfKz-10" value="Microserivce&amp;nbsp;" style="text;html=1;strokeColor=none;fillColor=none;align=center;verticalAlign=middle;whiteSpace=wrap;rounded=0;" vertex="1" parent="DrQzbPBQm9nXxSn8lfKz-1">
          <mxGeometry x="32.14285714285714" y="201.66666666666669" width="101.78571428571428" height="18.333333333333336" as="geometry" />
        </mxCell>
        <mxCell id="DrQzbPBQm9nXxSn8lfKz-16" value="" style="rounded=1;whiteSpace=wrap;html=1;fillColor=#fff2cc;strokeColor=#d6b656;" vertex="1" parent="1">
          <mxGeometry x="650" y="210" width="130" height="220" as="geometry" />
        </mxCell>
        <mxCell id="DrQzbPBQm9nXxSn8lfKz-17" value="FTP Store VSMART" style="sketch=0;outlineConnect=0;fontColor=#232F3E;gradientColor=none;fillColor=#067F68;strokeColor=none;dashed=0;verticalLabelPosition=bottom;verticalAlign=top;align=center;html=1;fontSize=12;fontStyle=0;aspect=fixed;shape=mxgraph.aws4.transfer_for_ftp_resource;" vertex="1" parent="1">
          <mxGeometry x="677" y="281" width="76" height="78" as="geometry" />
        </mxCell>
        <mxCell id="DrQzbPBQm9nXxSn8lfKz-18" value="" style="edgeStyle=orthogonalEdgeStyle;rounded=0;orthogonalLoop=1;jettySize=auto;html=1;" edge="1" parent="1" source="DrQzbPBQm9nXxSn8lfKz-2" target="DrQzbPBQm9nXxSn8lfKz-12">
          <mxGeometry relative="1" as="geometry" />
        </mxCell>
        <mxCell id="DrQzbPBQm9nXxSn8lfKz-19" value="" style="edgeStyle=orthogonalEdgeStyle;rounded=0;orthogonalLoop=1;jettySize=auto;html=1;" edge="1" parent="1" source="DrQzbPBQm9nXxSn8lfKz-12" target="DrQzbPBQm9nXxSn8lfKz-16">
          <mxGeometry relative="1" as="geometry" />
        </mxCell>
        <mxCell id="DrQzbPBQm9nXxSn8lfKz-22" value="" style="group" vertex="1" connectable="0" parent="1">
          <mxGeometry x="390" y="210" width="150" height="220" as="geometry" />
        </mxCell>
        <mxCell id="DrQzbPBQm9nXxSn8lfKz-12" value="" style="rounded=1;whiteSpace=wrap;html=1;glass=0;shadow=0;fillColor=#dae8fc;strokeColor=#6c8ebf;container=0;" vertex="1" parent="DrQzbPBQm9nXxSn8lfKz-22">
          <mxGeometry width="150" height="220.00000000000003" as="geometry" />
        </mxCell>
        <mxCell id="DrQzbPBQm9nXxSn8lfKz-11" value="" style="shape=image;verticalLabelPosition=bottom;verticalAlign=top;imageAspect=0;aspect=fixed;image=data:image/png,iVBORw0KGgoAAAANSUhEUgAAAcIAAAIICAYAAAD9g+4KAAAAAXNSR0IArs4c6QAAAERlWElmTU0AKgAAAAgAAYdpAAQAAAABAAAAGgAAAAAAA6ABAAMAAAABAAEAAKACAAQAAAABAAABwqADAAQAAAABAAACCAAAAADi+B39AABAAElEQVR4AeydCYAkRZX3/5l19H1Pz8UMILcjgggqHlyuF+oiiIz6eS0iIM4BjKB4gI0uKIIzMMPAgrrs4n4rC5/u6nqsuivifYDoCogKyDEwR09PT9/ddeX3f1VdM313dXcdmVX/HJqqyoyMjPhFZL6MF++9cKBNBETAdwQ8eA5we3g3wtUp9NVWIVSbQqouBa8uBKfW458L1Dhwqj2gCnCiHlIRwAs7cHnIzuf/gRSPJZhfkj+TPMDvmc8kHB7zuM+OeUlL4yHE78lUCO6+76N5cF86jxSvnYoz33D6fIe/+V/6tx0P8Xtm3wiSnqW1ckQRsXwtHcvkpFL8q+H3Ie6z77bfiuYhzj9WhVvme+Z3ve1ANY/F+GdVzmweRvjb/ohkwpbCkLcILvNeMuFI9ueQtw0Dk87LHp3uM4FeL4HWOZ83XX5T7T8MS70n8Yh7MBqdbVMlyMO+Fek8rEtMxycPFylIFnG3Gwl3EPFwE0KhEQxFwohEE7wP2G95vyRqQwjVsV828PKNLpwW9u0T+dfOyj7oIvSbJLxfNWPdX7PFS98s2R/6FAERKDyBe9ERPhhN9bVAazWcdgqzpSmEljvwlvHpupQl4D60Uei18BhvZo83dVroRXksTEHouLB/PJr+l3uZ9z+9+VgYc1r2V2Zf5tfY75bU9o7f5/AnZVBms0+TvunP0Z32MSrkMvvHpKX0TAtr/i8rCC2N5Wf52pbOe99vy5uZjabJpOC5o79N4E3auM+E9HSPufSLwFTnTcpo/A7PCpYif34UbmPmfG6n/wpyEes7xJl+cynIBQqXaYht6vJ+4SfC5MQXQPAFMPOd9XLDo/dH5i7hKxa7ofVe229bHKmeJBK3/RyPXfVGbBmZroekE+t/IiAC8yPg4e5QD3Y3chRFIYeDmMshHNEdxhvuYD58VnJUxNdwr4VCrYZvsaHMDcpbmwnths3ctvs/bb9tWVGU+VX8/09+YEzeM1WpcktlZ+5Puf/bVDnOvm/282dPMd1V5n/mdDlO3p9t88lH8rmnOFcpZImz98T+mmT3TH9VE5B11FP0YeiqFlz8mWK05/Sl0RERKAMCHu6sG0HvASNIHe7BXcWbahWF3hF8M11J0dVu6poIKPL4zwSc/SVHRZ191yYCIlB8AvbyyZHhjhASL5AgLD5/XTHABHbg+ro61B5IzdgqTnodR/XYMXz/PJJ/B/DGqgtT4NmohoIwLeyyIzuJuwA3uopetgTsfk0g8epw2dZQFROBBRLwOJc3gPZFFGLPTyJ5AgXcSziqO5rfD+QIry7Km8gEnc0/2D/75BvmAq+q00VABIpFwO5hamcOkSAsFnFdx/cEPNwbHsKjSzi6O4ZC7RU9tDRzkHwBLdDaqxGxSfm0sKO1JWK8fexPmwiIQHAJ2D3Nv4MkCIPbhir5Agl0oMO9APWtDag6huO4k3rx0KuY5TGc01tUjbBr83g2ysuM9CT0Fohbp4uA7wiYWQ21OkslCH3XNCpQIQk8g401zQgdmoRrQu/V/Hsp/e6W008vklFz0qiat0Zco71CNoPyFgHfEKChDH1itYlAmRPoxh3NYfS/mC4Lr+Eb4Gmc61tVBbfRjFoSFHgSfGXeAVQ9EZiFgAThLIB0OHgEaOTidqJ9cR2cE2nYcrqHgVMchJ4XgRvNqDuTGKb40yYCIiACRkCCUP2gLAiY8NuNtqUMMcG5PudNVfBO5iT4ygjn+jLzfEmqOyX8yqKxVQkRyCsBLylBmFegyqyYBKjmdPrxD3RYT5jwe0sE3qn05VtBYxfH5vik8ixma+haIhA8AhamkFFmnpEgDF7bVXyJu7GpmZ33xD5sOZPzfq9lVz44ykDTGeFnIz9ZeFZ8JxEAEciZgEaEOaNSwtIS8GjtOQj36ARCb+Fb3JspCJ/PT0acl3tDaVtGVxeB4BPQiDD4bVi2NfBwTmgvXrYijOgbqPp8G1WeL+XIr9EMXmzUZz5A2kRABERgoQQkCBdKUOfnnUAXNnPVBvdlfXDOCcN7A0d+Ky1ktQk/qT3zjlsZikCFE3A8CcIK7wJ+qX5m2aKdB9K59QzG81xN4fdiCsNqE3wKZeaXVlI5RKD8CFCzlJAgLL92DVSNMqs51Bzfi853UvC9yUZ/VgGN/gLVjCqsCASagARhoJsvuIXvw+Z2xvc8nYLvXfx7Bd0e6jX6C257quQiEGQCEoRBbr2Alf1eLmv0Yix9HpfDXE0zl3dQ+HERW8c11actVatNBERABEpBQIKwFNQr7Jp/xR3VrRg4ltV+j4vEmVzW6AALcG1r98nys8I6g6orAr4j4MlYxndtUkYF8rC1vhepV7oYPJdO76+j5WeLqT9HFOqsjFpZVRGBYBOgT3JcI8Jgt6EvS2+RX+j795o+eOdR/XkyO1ptjMIvLr8/X7aXCiUClU5AgrDSe0Ae69+Lm9u4zOWbOO/3AbpBnEgr0Ijm//IIWFmJgAgUhIAEYUGwVlamvbhtERB7C+Cdz/m/EygIQ6YC1fxfZfUD1VYEgkpAgjCoLeeDcpsATGHkLJq9XED15/F0g0iv+iAB6IPGURFEQARyIsBXdhnL5ERKicYRMBUoR39neIh9kCPAl2QFYEJzgOM46YcIiIC/CVi0YhdQZBl/N5O/SpdZ/ij8RpbqIo4AX55VgUoA+qudVBoREIG5EZBqdG68KjJ1J65rCKP2NFqAruHo71RCiGoOsCK7giotAmVJQIKwLJs1P5V6hmsANiP8UiC0lgLwjbQEpRuEjGDyQ1e5iIAI+IWABKFfWsJH5fAYCq0bzasiiHyIwm+1OcKPSAD6qIVUFBEQgfwRcFIShPmjGficaO3pDOGWFYwGc14V3PdzHnClHOED36yqgAiIwAwE+NxLShDOAKiSDvVgY2sfbjmLKtB1YYSOTTEOaIyxYLSJgAiIQLkTkCAs9xaepX4e5wF7EH0VLUA3hIDXMHnYRoHaREAERKBSCEgQVkpLT6inrQjfh52H9wIcATr/h2rQZhOAcoafAEo/RUAEyp6ABGHZN/HkCvbihkVcEf4ddIZfT1Xo4fF0QGytBziZlPaIgAiUNwFzqdccYXm38YTaeVwXsB/DrwCSH6E16OvYARwtiTQBkn6KgAhUDIG0GISsRiuiwc0adC+2HtiHgTV0haA1aKjNBKDUoBXR/KqkCIjALASkGp0FUNAPe/hyQw9ufmME7keoBn1xgv6A5hSvTQREQAREIENAgrBMe8LdNIZ5NTqP6MPQZRGE3sFq1koNWqaNrWqJgAgsiIAE4YLw+fNkC44NbD8rgvBHaBBzlNSg/mwnlUoERMAPBGQs44dWyFsZzCWiH7uOSgEf4+rw59AYJjosp/i88VVGIiAC5UeABjMKsVYuzboHtzX1oZORYdwronCO1CiwXFpW9RABESg0AalGC024wPkzQLbbh0WHAfGP0iL0XbQErRpWZJgCU1f2IiAC5URAgjDArbkLW+v7kXwDBeCVHAkeo1FggBtTRRcBESgZAQnCkqFf2IUHsfEARgS9hD6BHwSces0FLoynzhYBEag8AuZLHVJkmeA1/F+wuWoRcGISoasZI/QUWyk+xcbUJgIiIAIiMHcCniLLzB1aKc+wpZJScN5Dv0CbD1ymUWApW0PXFgERKBcCUo0GoCU7aBDzIbQc6iD0CY4C3+0hFRrmOFCbCIiACIjAwglIEC6cYUFzsEDZA+g/xYH79zSIOcGWSpIqtKDIlbkIiECFEZAg9HGD9+BLXDV+4O/oHH8FF85tlyrUx42loomACASUgJuUIPRh09lqET249XkOhq/kcknv5QjQtWDZ2kRABERABPJHILMMU1KRZfKHND85MUxatB9bT6QxzGfDCL1CqtD8cFUuIiACIjAdAY0IpyNTgv1d2Ny4F9vPjiJyNZdMWilVaAkaQZcUARGoOAIShD5p8p24cUkEzsV0kL+EqtEahUnzScOoGCIgAmVPQIKwxE1ssUJ3M1ZoFTxahYbOMfd4+6dNBERABESg8AQ4DaU5wsJjnv4KD6Mj2o3Wl1XD/Tz9A08c4ZJJihEzPS8dEQEREIF8ErAQa4CsRvPJdE557cD1ddWofnMY7nV8IzlI84FzwqfEIiACIpA3AlKN5g1l7hntxS0tLrz30zXiKp7VKCGYOzulFAEREIF8E5AgzDfRWfKja8TSJJLmIL+Wg/KQxYnRJgIiIAIiUDoCEoRFYp9xkt9yCIXftQyavVqrRhQJvC4jAiIgArMQkCCcBVA+Dt+LjvBebHlhBO5Ghks7VUYx+aCqPERABERgYQTMWCaOVEKCcGEcZz3bIsXQSf6VHAXeSCF4jOYDZ0WmBCIgAiJQNAI0WPQkCAuI28PGmr3Y9QaGSruRkWIOlBAsIGxlLQIiIALzJODO8zydNguBTlzX0IfoO/mm8UUTgiNcPkmbCIiACIiA/whoRFiANunGpmYX0XP5lvEZ6qDrYlo5ogCUlaUIiIAI5IeABGF+OO7LZRtubqOP4Do6yX+ModKiFjJNmwiIgAiIgD8J0JJfIdby2TR92NxO4XdFiIGzKQBdxQzNJ13lJQIiIAL5JWAB1gCtR5g3qv1cPSIJp4OWoR/MBM7OIM7bBZSRCIiACIhAQQhINZoHrJ3YsjwFh47y7vtsPjATyDUPGSsLERABERCBghOQIFwAYo75nD3YuiIKj6tHhN5hlqESggsAqlNFQAREoAQEJAjnCZ0Cz9mLrQdSCH6BQvBsRYuZJ0idJgIiIAIlJiA/wnk0gAnBnbj5YFqG3mRC0BzlNSM4D5A6RQREQARKRICr/6Q1eB5CSQnCOTZCZiR440G1cG7knOBbFC1mjgCVXAREQAR8QsAGMJ5WqJ9ba2SFYBiRGzkSPENCcG78lFoEREAE/EhAI8IcW8UMY4Y5JzgqBDUSzJGbkomACIiA3wlIEObWQrQO/cIKzgRu5EhQQjA3ZkolAiIgAoEgIKvRHJppAFuWMWT29RGE3yp1aA7AlEQEREAEAkRAgnCWxtqZjhiDz0YRfru5SGgTAREQAREoDwK0++A/hVibsTUtdqgH92ou3Phe+QnOiEoHRUAERCCoBFKaI5ym6WwViQRXkGDs0AszYdOmSajdIiACIiACgSYgQThF8z2Fz7bUIbWefoKXJBQ7dApC2iUCIiAC5UNAc4QT2rILmxspAM9l1IGPcxUJJ0UNsjYREAEREIHyJaAR4Zi23YHr6xg27RwHzjUUf2EJwTFw9FUEREAEypAAQ6x5EoSjDevhjuoqVL2ec4I3cFe1VpYvwx6vKomACIjAPgIWbdRWp3cTEoQk4eG2SA/6X0EgW4im2eYFtYmACIiACJQ7AcezWKMVLwg93B3ajeFjXDi3cDS4PC4hWO49X/UTAREQgVECXiqCRGWPCD10uL3Yc0iUI8EoQkfawrraREAEREAEKoZAIoVQrKJHhINYtsRB4voqhF8+pKgxFdPzVVEREAERSM8QAvEEhkcqVhD2ph3m41dGGERbQlA3hQiIgAhUFgF6B/AfBsNwBipSEJqvIF0jPsh5wYukDq2szq/aioAIiIAR4PMflAPdjajrqzhB6GFjDSt9Ji1EP5kJuCqHed0WIiACIlBpBGgcacLwSQcXxitKEGbcJCIvN19Bij/5ClZaz1d9RUAERGCUgAlCDoZ+bT8rRhCahWg/4kdQJ7yFo8F2+QrqfhABERCByiRgalGuLct19RLfMAIVIQg5+nN2o20pP2+ghegqzQtWZudXrUVABETAhGAdqugsl7qtGR/+nRGpiKDbPbilOYzkx2gh+gZZiOpGEIGZCYyalU9INPXeCYnG/Zz7GXxj5b+FbtPlYNYA0x2b+ZrzO2vmPPNx1Go0/y1XHgu7Su7ly1wnf1fL9iX7NOHHONL8dMGB0OAAhr44QJnQaoHFuJW9IMwE0vbeRQQf0kgw906plP4mYI9mu8Gz/+xGt3+Zz/Fltzs9axiWfdhk9lm67J5Mmv17sr+dTAJ4Hq/J73ZlRqVK/8922fH0b+6ycFUYTccvmTSW1so2mi6bn+1NXzx93H4wsxTLmbLv2c1Osv3Z3/Y5eoLt23fu/uNWBC4aM+2WLiuPjyvHtKl5CV4/nd8U15rhtOIcclmo+Wr1QiyiNWYOm8WkdnJJG5opkTUMj09bXjvOwtjxmbKZ9vwJFUk58BLMM8bMBlJwuri+7JMO4vfHkfivNmx4eGz6mS44Nl0gv3NeMNqLlle7CH2VQJoVSDuQzVixhc4KtszbbNrCLc3CVkWJU2YkkeQcB/qZroefeylE9vKzm7+7+Z37nF7+9dFIfID9f4gPhmEPqRij7cf5dsyHRDLFhwOFQsqkQyqEEIPseunv9K1K72d+FE4hHnb4GU8LGIvNaL95jCWx/dnvSS+a/h5m+uyxEaar5q9hpnWZ1p5N1ahBktex8+x3ZmP+3NeQzje7j/7O3OeO28dKoT6d18i+c7PpPYyQS/u49Nlji9Jfhr2dGJx0XjbNxM8laGTaAW/bxAM++B1CneOid17P8BAsvGaGyGxVCSHhOhic8Tq9GHZa0DCLkBqmIKybMc0whkO1MxRoGCEKcJO3wzOksjenaLIa4QSd5WP98EZWYsPQTCfMWLmZTvT7MTOO2YPWo3hDf43GMUfZKvPaRMCvBExtY1Zs9kchw96a4hxGkkIrLeB2cN8zvFmf4sGnKOieTiG1nU/7zmoku2sR7QPaKehWq5P7tYFVLl8TKFvVaD/qFkXgfDaK8FGaF/R1H6y4wmVHeHxBS+v2KPASFHx7U0g+xZHenwjkEf49ylHdExGknqvDXo7yOmIVB0oVFoEiEShLQejhyw29GFhH45gzJASL1JN0mWkJmFLThJ6N+mipZn89/Hs8Ce9/qcR5IAX3f6lSfKwWXbsl8KbFqAMiUDACZaca9bC5qgfOGXzofIVzKVU2n6JNBIpJwOb2TPDZX4Jzbhzx7eH1H6bS85dUcf6Sas3/bULDsw7OnXmio5iF1rVEoIIJlJUgtLUFB7Dj6CTc/+Bcy8G0DqrgplXVi0nARnvh9JiPdmlI9vP1609Ugf4USP6YAvGBakSes1BOxSyTriUCIpAbgbJSjfajq40GBJ+rQuhgqURz6wBKNX8CZtgS4R/7HC0VU50UgL+h8Ps+/35ch/CfKfgG55+7zhQBESgWgbIRhJ24jnbXibU0jpHTfLF6TwVexwxdOPdsCndzX9hB4cdRn/Nt7ruvGju3cY5PaogK7BeqcrAJlIVq1PwF96L5DWGE7+KcYI3mBYPdKf1WepvzM+FnNwuNXHZTBlL4ud+IIPzDalxA4Zfxo/NbuVUeERCB3AgEXhCav+BuNBwWReSbFIRHxjQvmFvLK9WsBLIGL3yxGqAA/B0F3tcpBL/TgKMfc3CaRn6zElQCEQgGgcCrRnuwuCmC5KcYTPtIzQsGo9P5uZTZ0R/LaNaez8SQ+ja9/e5uhHu/gzX9fi67yiYCIjA/AoEWhLbIbg8S76CK6p3DGgnOrwforDSB7NwffwxRAP6Ozux3Ran+rMHap4RIBESgvAkEVjVqrhI92HkcH2Df5lv8Yj68yrulVLuCEDDLT1OB0vKzm5Fd7qWD+520AL2vBZda3E5tIiACFUAgsCPCHXistRb113A0uJgLLFZAU6mK+SRgAtD+OP+3gy9R/8m8/7kBHtWfF4/k8zrKSwREwP8EAikIbWmlalSfR0u+10kI+r+T+amEWQHIUd+zNIC5h1Fe/ukH+MlDq3GPVAp+aiiVRQSKSCBwqlFaiYa70X4iPbm+xcI38YFWRFy6VFAJZAUgBZ+5O9w1Au+fWrHmEX5XDL6gNqrKLQJ5IhA4QbgTNy6hEcM9XGvqJBnI5KkXlHE22YDXlHbbuRbfPXF4X2rB2ockAMu40VU1EZgjgUAJQlOJ1qDmUgrCz0gIzrGlKyy5WYGaEQy3LmoNvsnFXW9tROcDjPwiFUKF9QVVVwRmIxCYOcJ7qRKtRe2xdO+6jGu2zVYvHa9QAvZmZ8GvGQemn/3kXvaULU1Ych8XrdV6fhXaJ1RtEZiNQGAE4fFY1gzEPkMr0SYZyMzWrJV53EaAFIAJLn30O8YB3ZLE4DdacUVPZdJQrUVABHIlEAhBaI7zezDyvhpEXi0hmGvTVk46U4OaMQzn/Z5mEOw7qAr9x1Zc/HTlEFBNRUAEFkLA93OE5ji/FzuO4YPuv1hYOs5LLbqQBi+3cy0YNvtGbwzJ/+L6kxsX4ZJfs46yBC23hlZ9RKCABHw/IuzGE/Uuaj8ZRWixYokWsCcELOuMO4STokP8Q5wL3BTDwNfa8dG+gFVDxRUBEfABAV8Lwr9gcxXnfP6Wcz9nSiXqg97igyLsN4Zxd3MUeI8Db3Mj1j7qg6KpCCIgAgElkLYv92PZGfTYWQF3KT+v8uC40nX5sZWKWyYbBdJYKslR4P2DXIR5D3ZvaMQ6CcHiNoOuJgJlR8DHI8IbamOovrgakcOlEi27fjfnCplLBDUDXVwWiaNAbGrDuj/POROdIAIiIAJTEPClIDSfwb2oOT4EXDCi5ZWmaLbK2TVqEepRI/BwDPHre5G4ZyU2DFUOAdVUBESg0AR8KQiPQ1UDDf8+STVYneYGC90F/Jt/RhUa6ufqEN+htfDnWrD+Qf+WViUTAREIKgHfCUIzkOHE5VmMEflaCcGgdquFlTtjEGNRQt1n6Bd4ay9w+wqs71pYrjpbBERABKYm4CtjmayBTArOx6YurvaWOwFThdI3kAYx+BXjya5pwO7rVmCthGC5N7zqJwIlJOCrEeF23F5TD1xEA5nDhqDQkCXsFyW5tKlCaRDDGKHJbybgXNuG9Q+XpCC6qAiIQEURMC2ULzaLINOD7S9itMj/ZoGatc6gL5qlaIUYtQrlYrnJ22kYs5W+gRoFFo2+LiQClU3ANyPC3fhrbRS1l0cRbtZosHI6JeODpqOE0jjqkSQS19Tj6LsdnJaoHAKqqQiIQKkJ+EIQeriXq84/fBLnh94qA5lSd4niXd/mAzkSjHPV+J9w0dyOBqz/SfGuriuJgAiIQIaALwRhD/7Y4CB1RQiRCFVjapsKILB/PjD1DernP92I9XKQr4B2VxVFwI8ESi4IH0ZHlGvHnVmN8EkjiPuRkcqUZwK2biD/Ohks+59cpK7nSLAzz5dQdiIgAiKQM4GSCkIaRTidaG8NI/XhnEushIEmMGoU8xQtQzf3Y/c/LEfHYKArpMKLgAgEnkBJBSGwORpF4t1RRF+gucHA96UZK2DmyaYO5eejMRrFNOLHX23EPdKDz0hNB0VABIpBoGQO9eY8P5xeXcJZJ1eJYjR16a5hlqFcPtcWEPktl066rAnr/sWRECxdg+jKIiAC4wiUTBAC/1QVg3deDaIHUk02rlD6UT4EMkLQZQN7Zhl6SSvWf7t8aqeaiIAIlAOBkgjCDnS4uzFwIIcIF1JNVg4cVYcpCIyGS4tx9P+DJOKX0jJU7hFTcNIuERCB0hIoiSA8D41VES6xxFBqi6UWLW0HKNTVR30Eh2kR/G0un7ShGZf+tlDXUr4iIAIisBACRQ+x5nE02I/Wo5JwfsKHZasE4UKaz5/nZoSgO0hH+W8wWswnKQSf8GdJy7tUdq8By0LbMBCuQlUohKTrooF/SdfhXyFq72DEGUSK+ceK/mwZWx+GbncceAWp49jrjP3uoIr1ThS03pxtH61XIa4TcuJwuQzsyNhqzfs7o4R5mfI6zDM/G12uwtEJWVlUasanCtEXPUx5EmWjV1HbWMPVa/jn1PNlvJEpmtgwjdzP+8DdxTS/7Ubsp9m1TQvaaBPKm/75DDYysHbkuhpE1imU2lSEgr0v6yjP9QO/FodzZRvWPBPsGvmr9LZMWSNSzbVw2vkyuZQvG0v5EFjCG7ydD/42zsk2s8R2w9fx5q+hWrqaN7k9O8xCnH8OH9Zwedw+C7B5juXNOeHCZJ9ziSkv0uXI+YQ8JDTBW/Bqj/LNQ3HHZMFSs9lg0FiH/GxcQcZoWJ78Lz/bVP3WCs7N2KevZS/iIf5Z8EarjH0bu9kvGu3Zrt8NI/bhRbj0h+NTjE1dgO/2htqNllUsno0GFVi7AIxLmeWoEOyjELxnBN6V7Vj3XCnLE+RrWxB6YFdzL1KH8rZelULyaA/OkXxeHcx6LeGN20TeUS5Zte9GtwcCBd/ov8x3Y2B7Mp/pj4L/L3u9gl9IF8g7gVGhkvd8i5Ph3Po5p+ZMIPYwmtkbi+pHuI1zg/VwbW5QgbWL0zOKdhUTgvzrpRC8my85FIJrdxTt4mVwocyUwZJFVOMcSxXPq3qx80Te1qvIdHGYAs/ecVMUaBwBjv7zaGaWSv+VQfVVBREoOgHzXee9RZWp892ijQjtRt/DuUG+v/6UD8oWzQ0Wvd0LdkETguxQfWzTf9uNwSufh49ICOZA29ScS+A8j1qdk5j8tRRxLyPH5Yy+EzZxZ4LO/gX7LT0HEEoiAiUkYKrUoo0In8RB0Vb0f6AKkRbNDZaw1fN86VEh2M+H9tdCiF8lITgzYA93VA+g78gUHAo+nM4ZjOP4cthiN2OcIs98auVXOzNDHRWBfBKwV82ijAg5Z+D04pZDqdj5OW94TvLbNKq2oBPIvEm5A0l4X+co5mO1uOjZoNepEOWnNiTch0WHcGT3BuZ/BlUxJ0SokrG5NBN6GvMVgrryFIHcCRRpRLglyofAudWItms0mHvj+DmlCUGOBoeouvtWP+cEl0sITmquPmxup6HmqX1InsODp1D4LbZEJvyGM1Zrk87RDhEQgeITKPiI0EaD3di8km/Bv7D5D5v30BZsAqNCcIQj/O+mEL+8CRseC3aN8ld6jv6ie9FEy+jI2by5zmKfP4J9P2LCT5qQ/HFWTiKQTwJFGBFeHQmj7R1RRJZrNJjPpitNXnyo20iQC0d6P+L81iclBDPtsAefoztD/Sv7gfdE4PyNTQGYytP8leROUJq+qquKQK4ECioIqQ51dqKuuRo4TyvP59ok/k03KgSTbNdf0tjjyiasedi/pS1Oyfpw62JGaTmdTN7HF4SXkVGtjf7sT5sIiEAwCBRUED6A28KHYfiMKoSP0HqDwegQ05XSdOgc5Vi4kAep3u5oxrrfTJe2EvYPYMtyvgyc5SH5dxSAx1IQRjT6q4SWVx3LkUBBBeHzMMIQT84FUg0Fv+vYvCDDFf0xjsS1Lbj4h8Gv0fxq0EkBGIXzNo733k8ByGgvCEkAzo+lzhIBvxAomCC0EFF96DyFD88TRrTUkl/ae17l4AOfwYhCTwwitqkNF//7vDIJ+EmmAgWSZ7IaFzBE4Iv4chcy9ade8gLesCq+CJBAwQThNmyLMrj2BYxAzojmmi8Jam8zIUgfwe0cCX6xFcvuCGo95ltuM4JxUf96qkDXkMXLTQUqAThfmjpPBPxJoCCC0MKp9SL8QhoOvGZYo0F/tnwOpRp1k+imELx7CMNbGrG6Yt5oqNGI9mEHjV/c9RSAb6AArJcAzKHTKIkIBJBAQQThY2iNtME5txbharlMBLBXsMgmBMNw6DCf/B4FweeW4vKBYNZk7qXuwdbDerDzQmoz3sWzl5kAVPSXuXPUGSIQFAJ5F4ScM3H24h+WMX7G2TGNBoPSD8aV09wk+C/J0Ae/5EKY17RiXUUE0d6LWxjzM3km1/W7mCPBYy34g5zgx3UN/RCBsiSQd0EI3B5m8OWzowqnFtgOk3GVcB8eQfI6Gsc8FNiK5Fjwu3FO6HU4mcGvkxtCCJ3B0V+d+b1SHapNBESgAggUQBB21yZQ814+VCoAX/lVcdQ45slhjNzShku+V341HF8jiwfKke87aRW7loLvcKlBx/PRLxGoBAJ5FYTmMtGF7adW01DGfKu0BYuArXXO2JhdVGnf3YLldwSr9HMrbQcNui7B4uOA1EdYZxsFVpsQ1CYCIlB5BPIqCIEdVIu67+WDRS4TAetLNitI/7hhzovdG0Zyo4PVsYBVIefi/hWbmtsQeSsF/4dpFrTK1KAyhskZnxKKQNkRoL97fjYzktmDxGE0NHidHOjzw7RYudicIAWhR9XggxQI19Xjkp3Funaxr2MWoYsQ/gyF/iaunrHKDLokBIvdCrqeCPiLQB5HhLeH6Xq9ugbRekYg8VctVZoZCVAoMHKM+zhdXW5pxSX3z5g4oAfvxwWRw/CCk114n6DYP83GgPZPmwiIgAjkTRD2IFnPkcVqzbMEq1PZvCDV2V20EP1/LTj2rmCVPrfSmiq0BZHVUbiXc9R7mPVRhUbLjZ1SiUAlEMiLIMzEFd3JuKKhoyQIg9Nt0t6CcEa4ZOxPGD1ms4PTEsEpfW4l3YObDmS/XMs1As+nCrRZ/TM3bkolApVEIC+C8DEaySwC3hXl2EIPmuB0n9G5wT9yluzGdly6PTglz62ke3DjMRGEP856ns0xYFjO8blxUyoRqDQCCxaEZiQzgltWDiP52hGKQW3BIGD+gvSd20Z/wTtbcMl9wSh1bqU0DcVebD+ZQvBTPOOUjDkMlaLaREAERGAKAnmwGr06NITkW2gk0yTruykI+3BXZm1BZzCG+L3NWPRlHxZx3kViwPfqHuw4i0LwJqp+KQQ1HzhvmDpRBCqEwIJHhNuxLFqDkdX21q0tKAQcjy8tD3PRZM4Lvrs3KKWerZxd2NzYA+8dDJb9MY7/Dlas29mI6bgIiIARWJAgtOWWuhFjjEbnxZobDEaHyqpEhxC/sxXry8ZVohc3t1G4nxtG+HJ+LlZ/DEZ/VClFwA8EFiQIuUJNKITY2VWIhOU76IfmnLkMo1aig8OI/5gjpjtnTh2co/24cQkVoB9kRKNL6CTfLO1EcNpOJRUBPxBYkCDsxUBDCuEzFFfUD005exk4N+gx8s+jKbhb27C2LFSindiynD4fa7l24noabnHVCKnoZ+8JSiECIjCWwLyNZUwtmkLkVbQ8PNQMErT5m8CoSnRHDKm7KQR/4e/S5lY6zgmuqAIu5kjwYoo/CcHcsCmVCIjABALzFoSmFuXJZ4fpO6jN3wRMJQp4MRqP/CaGkTv8XdrcSjeIWw+oQmgdw8Ot45xgrXwEc+OmVCIgApMJzEsQcn7J2Y3BRfx8nSzzJkP12x4Tg4wl+gTXW//yUly+y2/lm2t5TB3KfreG562lEKyREJwrQaUXAREYS2BegvAenOMyisyp/Fuqh9BYnP77bj6DVIv2DCP1g8dR813/lXBuJerDrYurgfNZJ40E54ZOqUVABKYhMC9BeA5ew/lB52x7yGrzO4G0z+CjEeCLJ+DCQIf+6cHGVg/J93ENwUuo6q3XS5jf+57KJwLBIDBnQWhqUa47uJQre58qa1F/N7IZyHDUvj2FxNfqse4P/i7tzKXrxHUNHsJv58vXZRSCcpGYGZeOioAIzIHAnAUh0OG4SJ5WjWib3sjnQLrISTMGMohzVYnfhxH5SpEvn9fLedhcFUXNm2mY9RHqIBbLRSKveJWZCFQ8gTkLwgdoLcqH7FukFPV33zG1NV1bnqG7xFfrsWaHv0s7feksgHY3nFeHELqC/Y5h0+SqMz0tHREBEZgPgTkJQlOLLsXIEkbvOEUPpPngLs45Nhpkww5xNZDftCH878W5amGu0osdL6F69zLW6RhZKBeGsXIVgUonMCdBaGrRWi5rUyW1qK/7jY3WOYJ6ik7mX3Gwpt/XhZ2hcHSYX8V6rOec4Kup4p0hpQ6JgAiIwPwJzEkQmlqUKrc3y1p0/sALfaa1DZ3M+4cR+3kX8N+Fvl6h8t9Nh3n6Pv4dw6adY3OC1EZoEwEREIGCEJhTrNGVGKL5ukO1qN7OC9IaecqUwvBJhh37yuFYN5KnLIuazV+4nFIIibdSHXo+BWCYwrCo19fFREAEKotAziNCiy3KuZqXc623ZbIW9WcnsdEgXSZ6R5D4ST26furPUs5cKvaz8CJ4pzFw3zoKwmb1tZl56agIiMDCCeQsCH9EL2bOPZ2u2KILh17YHLynOKf2rw46Ajls70Lji9nH1nBu8HCtKVjYnqLcRUAEMgRyFoTHoLWWKqrTZC3qz66THQ2yfX76e3T/0p+lnLlU27Hp4Aii76Vx8mskBGdmpaMiIAL5I5CTIKQAdOi9dSwftocm5ceVP/p5z8l5mr6Dd50WwNGgRY6pReRNRPIe62+aF8x751CGIiAC0xDISRACVzsROjVXI+LKbGEakiXcnRkNhvpoxPSLPyESuLUGbf45gpqXu+lV5p1GzQuWsDPp0iJQgQRyFITmNuH9jR5Q/u0hNC7ZxkAHXwtiYO09aD0qhPC5LkJHS/Xu3z6mkolAuRKYVRByBOj0oHcFnbOP1byN/7qBRZGhpejgEOIPtqLpPv+VcOYS7cUtLdQ2vJlB3M9U/5qZlY6KgAgUhsCsgtCiyTioeVkVIo1yay5MIywkV4siQ5/B5zhi/w8H5w4vJK9in2sq0RTiL+fL1nkU6NWaFyx2C+h6IiACRiAHQbiKhgtJ+nXZI1ebnwhYi/AvNoTEo01o+oGfypZLWbrQdGQEkXfRXeIIjQZzIaY0IiAChSCQgyDcFmU0mVfoQVUI/AvL09SiEYR38UXluxwN7l1YbsU9m3FEG2nh+toUVaIJWSIXF76uJgIiMI7AjILQ5gf7ET2EZxyuNeDGcfPFD7ZPKob4Uw687/iiQHMoBOecj2NM1PdSrVsrlfscwCmpCIhA3gnMKAgZoYRRRZMvrUGkSvM3eWe/oAzNZYIjqm76d97XgkufXFBmRT65C1tX1iB8Ji97vOLWFhm+LicCIjCJwCyC8GpOQTmvMhWcNn8R4GiQrynedo6ovuWvks1cGg+3RUJInZhC8u0zp9RRERABESgOgVlWn2iNsBgnaH6wOI2R61UyLhPOIEdTv++C89tcz/NDuj2IH1EN9xy+YC3TaNAPLaIyiIAIzDQidHrhHciRx2FypPdXR7HxOS0td/Hze4djfWCWWtqBO+toffyqBLzTZSDjrz6l0ohAJROYVhDanCCtRY+tRljGDP7rIckRxJ5m3Ncf+q9o05cojD2rwvBWU51bLwOZ6TnpiAiIQHEJTCsILb4oLfteyqglxS2RrjYjATOS4WhwbwruzxZhw7MzJvbRwW7c0RxF5JQkvJOkavdRw6goIiACM0m5VYwo4xwvtagve4mpRb/vy5JNUygP/S/gobdRiEdkgTwNJO0WAREoCYFpjWX6sKuZD6yj5D9YknaZ8qI2N8iXkxGuQP+XBEL3T5nIhzt7cXMby30q+xMNr6hn0CYCIiACPiIwpd7THOm5ksGhNGxYwsgfPipuZRfFrEXpO7iHc2z3Lcaa/qDQoGHM8+nscRb7U0ijwaC0msopApVDYEpBaB5qFH9HVyHMB5c2vxAwIUKhsott8yO/lGm2cthokBFkTmE/epFGg7PR0nEREIFSEJhGEJojPY6zEYg2fxCwtqDh0hANTf7YhNTD/ijV7KVgeY+kgc/fajQ4OyulEAERKA2BaQRhujAvlKFMaRplqqvaKwkNTfbw46dOQHwHu7GpmWsNvpwahhdrNDhVq2qfCIiAHwhMKQj3oqmR04SHyFDGD02UKYP53VEt2glEfuKfUs1ckgTCh3HV+dNlKTozJx0VAREoLYGprEZpKBNeyRUNlspMprSNk716Ri3qDNEH79EuJP6U3e/nz+dwW20E8RfxZepEP5dTZRMBERCBSSNCM8hwkTyChjLy9/JJ/xhVi3bThOmXQQmp1oCRg8NwXhtFqE6Woj7pSCqGCIjAlAQmCUJLRbOMVYooMyWvkuw0y12OrPa48H5ekgLM8aIeOsIJwHxQT5F6fY7wlFwERKDoBKYQhFdTNYrn6y2+6G0x5QVtNEiLyxHODz7eiPgjUyby2c49aF8WRvgk+jsukcGVzxpHxREBEZhEYApBCJdC8HDOR01KrB3FJzDqNtHLK//WweUDxS/B3K/oIv48qnFfPfczdYYIiIAIFJ/AJGOZPixqAlIH6E2++I0xwxW7GeHnVzMc982hLmw2i+Pj+DL1fC635JtyqSAiIAIiMB2BSSPCBGLLmXiRlsmZDlnR93PJpcTOKkR+X/Qrz+uC7koayJzEUHAytpoXP50kAiJQbALjBCHf350wogdFZTFa7HaY8nqZJZfcAY6uHr4BnbumTOSjnR7uDjlIHUJtwokykvFRw6goIiACMxIYJwgtJecGD6WRw4wn6WDxCNB6t4et8UAHOnzv1tmPrjaOBI+ngc9yqdaL10d0JREQgYURmCDx0nM6hy4sS52dLwJmuRtDsjcOPJivPAuZTxLJFRSCr6DwNmNXbSIgAiIQCAKTjGVY6udpfrD0bWeSxIEbp4rxmV4MPVb6Es1cgvtxWySJkUP4KvViunvMnFhHRUAERMBHBMaNCB/A7RSMqZVSa5W+hcxtIgK3nyLlkUNxRU/pSzRzCQ5EgmpR9ziOBtvkejMzKx0VARHwF4FxgvAIdDV6cBZrROiPRqKxjPkPBsJalLFpl7O8L9H8sj/6jkohAiKQO4EJqtHGNlr9NUsQ5g6wUCkz84OJPub/h0JdI1/53suQamEkqUlwj0lJLZovrMpHBESgSATGjQiHkVjKt/oaewhrKx0Bm2Hjqu6cH/Sea0bVE6UrSW5XPhL1zew3L6Q6l9oE3xu35lYppRIBEagYAuMEIeNDLqcPYcVU3q8VHQ2rNkiB+GcHF/p+frAB0cVcc/BYqkUtTq02nxHgSwq4mgxqEU1/2m9tIiAC+wmMk3pc3WCFbpL9cEr5jZaXNJRxfR9km4LP6UFyKRfv4ohQm98I8AXFitQTR+LHMTj/y+9cWcY5mS9bNGrS6N1v7aXylIbAvhGhPdBoKHNAaYqhq04kwHnafg/xP07c77ffO3F9LdfHOJQq0YP1YPVX6zDUnYXGeIz39uVcFuvdzVj3yT7E30Wr3s9RED6XPuqvIqs0IlASAvsEoV3dQXK5VFslaYdxF2UbpIaR3JtC9PFxB3z4gy4TrXygruLIo0pzy/5pIEb4YWGch+LwPtGA9n9uw3qzQMZKbBjix4+o+XlII3gjok0EzCZj3OYskbHDOCBF/5GZH3RG6I7w9A607yx6AeZ4wSQii1jmVVKpzxFcgZKbcLORID/v5wj9Y03Y/XUHq2NjL5dCMsaXlrheesdS0fdKJrBPED6CjghnDLTqRIl7gz3IaDE6REH4+AsmPMBKXLRJl+fD1InCXURV2xEKsj0JT9F32EuUzQlyiuMnHAle0YA133bQQa3oxM1pDCFUa+m1iYAIjBkRHoCqOt4Y8iH0Qa/g+zwX4PV8H1YNuIHzg0lbhHeZfE9L23FMqNk4kG3x/RGkPtqMtf/DfdMM+pwmpqsvbYl1dRHwD4F9I8Iq1Dbw4dugeZ7SNw6FyiDn3XwvCLsQov9g6DDND5a2z5hamq4rSd67X6fv6RVtWPuLmUrEm76Gx6tmSqNjIlBJBPa5TwzBa+YbZO00r5CVxKSkdSV/LwaLKJN8pqQFyeHiFIIt7DOHa34wB1gFSmKWnxRsMc7tf5X95rpFuHRWS2NOgdCwiaFstYmACKQJ7BOEVKqY9V9YJvCl6xmZ+UHEk8DOOKK+X4gXCDfzgXqI1KKl6TMW15X/+sn/H5OIb6IQfLI0JdFVRSC4BGxaYZ8gpC9Yq91YEoSlbFC60CM0kkD82Xas4TyhfzdbdsnFEK2MQwdIi1D8djKjGI7EuzgS3DqEwVsX4yM7ci0Fe5lFLRrJNb3SiUC5EjBtFl8kvX2CkD/b0kqWcq1xAOqVGRE6w3xDeYbffS1fDkE31ei1K1lOGxVqKyIB8xGkOnRbHMmNKSTuoBDcO5fLU3hup2nNbjOt0SYClUrAwonyXhhOIPnufYKQqwZw5QltpSbANxRzeH661OWY7foUgg3UIKxkeUN8IM+WXMfzRCAjBJ0/0V3ls41Ycjd9BK2/zGlLoe5hjiJ/VwX3ROZXX4r22/+smeqbBfeYuH/sHjtu2/40k39l9oxPYfsmnpXZN9Xeqc7Npq7kT3t9mshm+leq6Y9MZJh7ysyZ8zHstF5ko0A7N47UX6h9+0gbLv2PrCC0erVMLJh+F58AzdptRLit+Fee2xXptN3ADmUjQm1FIGA3sE1dkPf9fIP9TAO6vuNg7RQ+grMXph3n9XXj1q30//T4SHh3FSJL6XqR16bMPNQyjyr7v/3OfGb+b/PK3Gf/pXjhJA14+Okk7Dv38bdnb1dWv32fPJbgCfabf07Sftv59p37+Wnf0wFU05/ML8V8Uhw9p+hbyXM8JrNr7vvO/Xbc4Yl2zPJMf/K7y/SWLfemj9s5TL5vc8guXb4x+9Kp+dvKnr7WvtRTfWFCpkuXd6rDOe9j+RhGyGM1c92cEOsdsnpNdQbrFeLAiHkaxvGbHeOeSdciX+Y3uQy8QJh8eVpmG83RdmRlT/aQfU7Km+VkUmeqtG6mLPurYPXhL5YD7v69Y7NPf+/ltMIT5PVzCsHvt+DStDYlfQE7qQeOBOEkZsXdYY+GESSGQ0huL+6V5341Riehq42zMq2km/vpOmMOBEz80QGeN7n3wxiSV7di/U/mcPqUSVtw0ZMe7v7YMLpuYUDuYzhheCgfZIv4LDDL8UkPHj5cuKWFhD2804KH5UpQmCYZrJ8CzIlTmPDTi3M/I9eAkWsyny5S/J39bp8pWrl6lj4e5h+jE/HPi0fSn/FEFUIUeEkKw0SyEeFEJ5/LCXSmWMbUIP9oRZY6Nf2U7rCnpD2+tInAggiM7fCc61GfWhDNBZ/s2JtwD9eF7FpwVgXMwN7SurClkfb3NJZRnykg6vRsIAULhUrq36kOvZZC8Pf5uh7VqibUnhz9y1e2ykcEAkdgrCBktAltpSLAN2p76MX5st05hIF0gORSlWX2614dcdDWxv7SKkE4O635pjDLUKos+5JI/nMSiU1U41Clo00ERCDfBMYIQqdBD7V84809P1M9mXqJH53PQ8dw7meWIuXKqjAG2ikI66nyKkUByv6ao0YxOygEb6b27/ZmXNpZ9pVWBUWgRARGBWGHTZ7WSTVaolYYvSxnoG1uxfcPvH7EGKLLWUyVXUh+p/ntM6YZGHWP+NMIktcPY/iupbjc1z6l+SWg3ESg+ASyI8IoL01BqK2UBChYRmh44PuIMgkM14ZRtchMxyQI89dj2P7pOUEajvxyBN5nWrDke82Zebz8XUQ5iYAITCKQFoQ9qLLYgzUaEU7iU+QdZlEX9r0gpIVFTZQWhjZ60ZYfAmZ9a0YxdPD9Nk3Mr2nFuvvzk7NyEQERmI1AWhDGuLo4LQC1wvhstAp8nHO0cfqI+dpi1BDQhKOaZWUkIgnCfHSJ0ZihPWz7r9BieNMSGcXkA6vyEIGcCaQFYQSuLcli6lFtJSJgo3E+CGNhJPeUqAg5X5Y+hNX0WZW7Tc7Epk84ahTzNJdP2kzXuzuWYIPv23/62uiICASTQFoQJhCu5ogwojnCUjaiw3AU3kgNquYUN7IUJebcYBXVd42TwkuUojABvaaplUcjxTxAy9DPMlLMf3I1+VhAq6Nii0CgCaQFIUch1R5c+oZpKxUBsrdwTwNxDPSXqgy5XJdldHuxuZYm/TKuygXYFGnGzAd+lzyvacL6X0+RTLtEQASKRCD9Up/knA+vxzhvGhMWifu4y9gLCP8sbFV/PWoZRcq/2yO4Okw1Xh3nCGVcNY9mMlUo/+0hvy10kr9YQnAeEHWKCOSZQHpESAlYZW+pMoXPM92cs0tHRGfMRjCiTNjX68Q1ojFE+8YaCu6oXptybuC0WVFmDUH3TzEuokvL268y6r3PIwjlXj+lFIEgE0gLwhRczhE66VDoQa5MkMvOCC0cEab6HFxo0WV8u1XxnYk9xRzqOa2sLRcCDJNmzhFJzgH/KI7YNc3ovo/zgZxm1SYCIuAHAmlByLf7KvmEla45TDXKh2WCa8r4en7QCIXRxyhEtRSEXtjKrW1mAqNWod00iPm/tAq9qQUbHpv5DB0VAREoNoG0IKRSlIIw/bXY19f19hGwlSf8LwhDiFIQmruNVsDZ13RTfMlahfIQVaGJUVXoBqlCp2ClXSJQagKjqlFUyTm6tE1B/glbaaC0pZj96g7qXBfxtKuNreGjbTKBjFWoyzX3kj/g0kmfa8H6n1Ewakp1MirtEQFfEEhbjXIGQ870JW8Oz1bc9r1q1IEt+M240Gnzj5JD810BRl0jdlMI3tiH2EWtuPinEoK+ayYVSATGERidI/QoCDXjM45M8X/Yory+dp0wJCYIqRrl/KAGOBO7iGlVeBftofX11iSimw7Aup6JafRbBETAfwTSI0I69UYlBkvdOA5HhEEQhGGH5XTVXyb3l7QYhPMTGsZ8vRUXSghORqQ9IuBLAmlByPd8WcqUuHn4MkKdY8j3I8IhDLDPOHQ91TaRAN0jvDgSOyOo2jHxmH6LgAj4l0BaEPJNVj5hpW8jqkZTPl+Z3iDRc0J6dGMwaaOxkxNFeNkQBg+YdFA7REAEfEsgLQj5P73hl7CJbLaNo4lUCglfR5UxRDVIsLiOnMGn6C8c1du/V9Qg+sYduL5uiiTaJQIi4EMCaUFIM3ipRkvcOKYaDfk8vFoGkUVWo8zWNokAjZ1sH9dpdM+vQfX7JQwnIdIOEfAlAY0IfdEsNpJIeTS59/0yPAMcEfKBz5UytE1FgH6D/OcdxCWWPlGH6st34sYlU6XTPhEQAf8QSAvClIwfSt4iJlz45+s4owapBoMpWo3GTXRrm5rAqDBcwlUmPlyD0DWduPHIqVNqrwiIgB8IpAUhTeHTn34oUCWWwUQK/5IRRH0vCPs4P0hVugThLB3VhGEcyXqqSf+uCpFNvbj55bOcosMiIAIlIjAqAD3NEZaoAeyyo5FHOCKMM+62v7da1FIOegwfxvUy/F3UkpfOGCWQ5God3ul0tt/SjZvOuh+3yUK75C2jAojAeAKjgpDhI7WVkoBFsE5w5OD78J1cTJbLRTnDFN4sq0ThbJ3GRvs2OuR2fBWi1x+JxPmd+HLDbOfpuAiIQPEIpAUgDTX0llo85lNeifO0qT0Y8b01ZhwjjICTGuKo0Pej1ylBl2gn1aS28PWh9DXsqMLQFZ3YsrxERdFlRUAEJhDIjgSznxMO62dxCKRnCb1mRH0/IlyCqgSl9SBL7Pv5zOK0Xe5XoZrURoftFIaXch2ra/uw9fm5n62UIiAChSKQFoBUcMmhvlCEc8g3M0doLglDvh8RWkxprlYyyD4zrLenHBp3QhKOCk0Y1pDheziqphHNTa+YkEQ/RUAEikxg9FmmOcIic5/ick5qAOas7vftUxSEyQEKb8ZF1RzhfFrLjGioKGXgcuf1DKKwmRalMqKZD0idIwJ5IjAqCD2NCPMEdD7ZZKSf+RG6vh8R2uiVFpBDFIH9tuyQtvkRsDa3eUN+Hk/n+xsOR/yCLmxunF9uOksERGAhBLLarVAAhiILqafOzSMBLx0KzumRGFw41IwRjXcIhWFHBO5HZUSzcKbKQQTmSiAtCCkEswJxrucrfQUS4DwX5wedPRwdVmDt819lM6JhYLZFGSMa55rd2CQjmvxjVo4iMC2BUUHoyX1iWkSFP0CHa/MjTCbR73vVqNGgsccwC9pVeDKVcwXzNUzAoxEN3htF9AuKRFM5ba+alp5AdiSoV/vSt0VgSuAiOsiO02lGH9ryR8DCdXPW0CzXTg/BvYmRaN5yPy7QS2r+ECsnEZiSQFYQMsSaHmpTEtLOSQQiGBri6KXTVmTXG9QkPAvaYcHMTVXK+/EljDR0w5E49v0ettYvKFOdLAIiMCOBtCDkXI+eZzNi0sGxBAZQN8xoRCYIuZCwus5YNvn4bq+ksfS8oXcYR4af7gcu68fWpfnIW3mIgAhMJjA6IvTCGg9ONPm55gAAOBNJREFUhqM9UxNYhpYR9pfOELyerEph6pTauxACGYvS5GIyvpy8P815wyMWkp/OFQERmJrA6KoTGhFOjafwezPjqfT/U/VoDoSxjIPVyT24qZuahE4uM7TEomhqKwwBM6Ih41pa6VJFimU92PyZJqz/db6u5uG6hkHUHsnAsUdRHdvKDki56zCwOm23aMDFAOtJXjvhwuNvlztTjIDkcZ/L3076O9Ol+FJkaa3/8s/2WyQ++7R9Lh2VQ0yfSFlcvjDC/J7ybDFqSx/JnEelsJOKZfbxe5LH7dywx3B06WMeuOgJ7JdtmeOWLvPb0iRGz8nuqUnv43W5f3ywCo8ridXSb5ej7XFbHaqYNsSCxfblm03gYYTH7B1w/JZkOZPMawkGWC9qttHBoBO8tLbAEEgLQnZsLcNUwiYzJ3XeN1PeZCUs1oyXZuBtOtRHnuVD8ugZE+rgggmk17zn4tn0NXyzg9CiPdj897/Hnu+dho55Bz5nh3O6sOm0XkQ+zHxPrYJTO94dJmOjk3maj1+GeeK+7NHMfquu7cmen03NWWUescgdJrDSH/yffcbTR+xrigLThKfp213OP5sgtNrTrjotOM3dOZFVxvM7b5nsL57tUGiyP/Kc7JYOh8s06fP4md3sxdM1yZ6qzu4a/UxRALL0lvGY9NlEVqYa5m/36/4tzEW1w3xh6EE1L2jTBVsG98LrZ6Ie/nXxajtZru2sz7Os+3MRRHbUoJNW159iYIrxee3PVd+KSUAjwmLSLqNr8ebu5U38dBlVyddVMdFiRjQRhE6sRmjj8Vh03Q7c+W9L8d6B+RS8B1uOr0P4I7T8fb3lG5vquT+fjCecYyInu435bl9Hf47ZO7ors2fsfkvM6KzZjKb9HH/O+GTjj1l+028zHZt8VjZ1Ns9MWTO/svtMcppIj3HkOIJUXwytuxzc/NRebPkzz3+Y7fAwjaMeq8HOnc4CXnAml057ciGQFoTsYAqxlgstpdlHwEVtbwKJZ6ii2rdPXwpLwB6mZkRDYXgER07X1qB3+Q7cevtSXLRrLlemUHU43/hKqjlfaC4whXSDsTLPvM2eInt+7imzZ8z0md/cZrrS2GMUjOYe0+Qi1ERDqMPZjq+xlxy2qxdDYk8MbY+zbR6k6P+li9QD3Yg/thIbuOyZtkIS0IiwkHTLOO8eDAzUI8QRocOVKJxau5m1FYeAGdFQnbmEfx+tQXL5LmzcuBgbHsv16tuwqboOoeVssaZcz1G6/BCw+8TuFPMYzbjJZPLlqNDhvGsbhaP9vZSpLuQofbABkSf24uZf8h77YRTuL6qxc5tGjPlpi7G5pLUNhE4luh5kY8Ho+8wEVuBSW6Xe5gh38q125sQ6mncCZkTDEV092Z9fjcj1e3HT8blepApVdr9HmT59/+d6ntIVjoA9fS3QHkeFGOL/h9PLfXq1fNk5uhrhD9Cg6F/5AnR/D9q+wxHjhj248RgPHdaG2vJAIHsjZD/zkKWyqAQCFIK8d71uvsU+yb9KqLLv6mgPTgrEMPmfSXXpTZz3e72Hu2ed5hhAZ4LtN8wKSa/tu1bdXyBTWdvo3wTjCFuaN1xbFKHXRhH+Aq1wf96HRT/oxdYP2wLPHm5TBKL96Ob8LfsEy37OOQOdkB8CfEPnMkyhMRZv+cm3sLm4e9hxbLJfW4kImCYno2JzXhlGaFMfdr2bD8XamYpzsE01wtnL0bwtp6UtIATM2MYEoglGbnUcLZ5MdekN7AM/70X86z24+T19uHUxR4p6ns+xTbPAZn2LnGO+Sj4HAhmltOOlUJf5OodzS5m0B6G9caQei9M/TA/U0rWEdRozouED8fmcX/pcH2Lrt2Nz+3Ql4hxTijc+X2Kcfo4Mp0um/T4mYKPFjFA05xOvmQLxzVSf3km/yl9wpEhV+ZYTpDrNvQGzglB3Q+7MlHKUwIHY1ceHsBlpdPGhKi4lJmBqNI4alnJk+PFaOFftxS2HTFcktpYJQfNjmy6J9geEgAnFYY4UR9j+bM1DqD7dwBeie/ux6B7OJ57l4fq6gFSlZMVMC0LeDOZxqk0E5kTArNcoAOko7D6hecI5oStY4sxyTqkGPgg/6CLJkcHNL57qYnRLN/VplalWtZUPAWv/Ic4s8oWoni9EZ/DZ/rUB1PwP5xLPp1BsY3vrzWeK5s6OCKc4pF0iMDsBeqHt5kP3IY0IZ2dVrBRjjGjeyognN+7FZvqq7Tei2cYHIv2mXsTQeMsL6UNYrPrqOpMJZEaJpiNIMn6m8zJaF99OCXgfheElO3HjEgnE8cxcvg/S/E8h1sZj0a9cCaRQtTuG+COco2J8Rb1s5sqt0OlspDfqp3YSY3ve0oMdl3Vh4ws66WbRAO9TfHF5O8tQY+m0lS8Ba12bPza3DN6fL6DF6cZaRH7Ui1su6cM/tksgZto+OyLUE6x874WC1qwF222e8FFeZLtGhQVFPefM7SFoYwKO2g+n6vpzLsK/icD9GR+I6zhiaLcj2iqHgPUF80/kw/4oGtdsBIbupaXphXtwW8UHVsgKwuxn5fQK1TQvBMwCkcGOn6Mp90P8y0ueyiS/BGzeyP7xRaWGvp9VaZMaCcH8Qg5QbmME4gvof3prGInv0cr0nOfQMaPbTYCqOOei8snVwRcEjypSvR3OmZ5OSBNIILaTI4wHNcLwb4ewu9vmjXSX+7eNil0yE4imMuU8MucQ3bvqsejfuLzaqx6uwIg1eoUvdu+b5npsiMA+oxahp4sP2d9zYt6ctKepoXaLgAj4kYD5I1JL4HJ0SF/EyHcOpB9iN249uJIc800Q8s8ZDb7tx2Yq/zJxtTU603tch+2ZQApDqkdjDAD1V4Z9onpUsRnKv8eqhuVGwHQFNn/ICLYNFIjro/B+0INFH9hRIT6IGhGWW48uUX1oifYsBfqvpHwrUQPosiKQBwKmPs/4IXqHUWXKWH3V9+zGzS+7v8xjmVIQLrPoyRKIeehElZxFDdo6GcH5fipZpB6t5I6gupcFAVOW2l8E4dOr4X7ncIx8bC8+21IWlZuiEhSALTapI0E4BRztyp2Ag9UxjgYfo3r0QalHc+emlCLgVwI2T5NRl6Zao4hcHUbjN/pw88nluNKFBKBfe2EAyxVG8hmqVn5m5vnaREAEyoOA3c8mEGkIdxJr9J+9SHycwrCsfA8pCAdcDgkVa7Q8+mxJa1GH5Ywyk/o1xeCzNMcuaVl0cREQgfwSGF0TsZHO+B0D6WWfNr+UlqVlYWjpbkO3qUZl857fPlORuVE9mqT4e5yT7D+Tc31FdgFVuswJZEeHnAJ5tYvQt/vR/sHZ1r8MAhK9tgehlQJUxiRCT/NmuY/OuiOKPRqghlNRRWAOBExVStfnRRQgW/oR+1I3NgXa79BdAXuJt6DbgXRhm0PTKWkxCCzGGlvn7kGqGH7PuJbFuKSuIQIiUAICFrrPotPQsvSdYUS+vQfNrw1qVBo9qUrQgcr9ksNw/so1Cn/AuUK9XZV7Y6t+FU3AbnDzO2RQ91VViNyzEm3rnwPdDwO2uZ0Y4Ms7l6zSJgJ5ItCOzl1DiP2MFqR/lStFnqAqGxHwMQGLWcr7nQtCh66vR/yWTmxaRneqwMgVN4RWjgodW5dQmwjkhYCtSMF1zx6lwcz3pXLIC1JlIgK+J2CGNHEKxChC76tG9P9xRYtjxi4I7ecK6Dnl59YJcNkeQ3TbMBL/w+iFu+RKEeCGVNFFYA4EsqpSvgS/gjYC3+jFrtcHwQGfPoRVHL4GZwg7hzZR0hISOAEXxjmJ/gfeED+QK0UJG0KXFoESEMhYlboH0Qn/q90YPvev6KguQTFyvqTrpq1GZd6XMzElzJnATiSejCH5XVqW7QnJVTVnbkooAuVAwNSkHGTRAT+8tRltH/WzEY1Uo+XQ43xah8OxfoRLuvyWE+jfl9GMTxtJxRKBAhIwExrOHYarEOqoQ/zznbiuoYCXm3fWbh+GpRqdNz6dOBuBHUg+EUP8P2lVplHhbLB0XATKkIAt7UTNEI1owmuiqP2HXtzcxmr6yqKUVqMpsxrVaqpl2AH9UCUbFSbhPcCb4NsaFfqhRVQGESg+gczCvzHQ1/D/8Ps/9uPGxTSs8Y0wlGq0+H2i4q74FGo4Kkx8k+ubbZcFacU1vyosAvsI0L/YhOEZSYT/eRBbfONrKEG4r4n0pVAEzILUQ+R+Rpv5d1qRFeoyylcERCAABDLCMPx6mtJQGN7sC2FI1WjY1KJahikAHSjIRWzGzqc5V/hNqkn/TAOaIFdFZRcBEVgggdGR4WtScP5pN25cWmo1qUaEC2xQnZ4bAYs2E0f8QRfeVzl5ntTKFLlxUyoRKFcCJgzpa/xa2g98eSdubS+lMJQgLNde5sN6LcXlu0boV0j16E81KvRhA6lIIlBkAqMjw9NrkbjlaXy2uciX33c5OtR7Jgz5Z8FxtIlAYQnEUPOHBLx/oX9Rj5zsC8tauYtAEAiYMIwicnYjar+wA3fWlaLMFIBhs16QBUMp6FfgNZfjwkH6FN1HIfg1Lt1SgQRUZREQgYkEhikMGaj73Grs/ZSHO4oejk1Pooktot8FJ3ALuh+nivTf6E/0sFSkBcetC4iA7wmYPnKEIdnoa3z5XvRfxFUrosUstARhMWnrWmkCHTScYYzbX3tw7qDhzLBcKtQxREAEzOneotBE4Hx2D7af6eHecLGocI6QHhTpOcJiXVLXEQGgBZfudRD7Dvvf1xVxRj1CBETACNiahpypq6I16dZe/OGEu3F3UXytNCJU/ysZgXr0/GkEsTsZlvcRLuZZsnLowiIgAv4hwNVqqCJ1F1Egfvm12LWCI8WC27BIEPqn/SuuJOZbSGXELxhh4nY62vfLirTiuoAqLAJTEhjhWvcMxbYKSG3Zjc/XT5kojzu5MG+i4NI2j+VVVmVGoA3rex1436L7zlcZgk3my2XWvqqOCMyXgLlV0JL0byOo/mihjWeyc4TSS823tXTeggk0Y/3jVIPcQRUIHe2LNj++4HIrAxEQgcISYFhGPhHCH9mLZ998LzoK9nCQarSw7ajccyTQgMUP0GLs5hRS22Q8kyM0JROBMidgVqTcIoyJfdPRWHxooeYLJQjLvCMFpXoOVsf64fw3XSq2Uk06JCVpUFpO5RSBwhIw4xlGnlkRQXIT8JXaQlxNgrAQVJXnvAiswNouWpDeQzXpv5ggVGDueWHUSSJQdgQy84Xh07vRvc7DbZF8V5DGMhk/QkUazTda5TcfAjZfOIzU7RSC/6WoM/MhqHNEoDwJMDQj5wtDn+hD/AQPHXkdxOU1s/LEr1oVm8C9+PGDDLd0E1/Ofs8lWop9eV1PBETAhwTM2Z4vx/W0I9i4F02N+SyiBGE+aSqvvBBYjXuSrWj8URLJGzg5vk0jw7xgVSYiEHgCw7QirUH0RC4WcXE+VaQShIHvGuVZAQfnDqeQ+FYS2Eivey7ZpK5ani2tWonA3AgMMzg3bQgu60XiRflSkXKO0AnRo15Pmbm1hVIXgYDFI40hdhetSLeyj47IkrQI0HUJEfA5AapGGXXGVKTJzwHL8rJkEwVg0imUb4bPeap4ASDQjku305foSxwV/iNf2lKyJA1Ao6mIIlBgAkNUkVYj8uoexN/NqDMLDgijkWCBG0zZL5xAM9b91UV8C1/Y7pJbxcJ5KgcRKAcCCY4M+Uy4cg+eWU7DugWFCpUgLIceUQF1aMClf+Sc4fUcEf4HI9PLx7AC2lxVFIGZCCToTlFLR3sX4cuB2xZkXq6g2zOR1jFfEeCc4e9oQn0NC/XdSFoY+qp4KowIiECRCZgVqYvQeb0YouHM/JdrcpkN9auORoZFbkBdbn4EqCa9fwTJT1MV8gML0L0gfcj8iqCzREAEfELAlKNVCNem4H6Sq7nNe1QoAeiTBlUxcifQivW/osO9LWb4QwnD3LkppQiUI4FhLtdEX+M39WL4b+brTiFBWI49o8zrxFGg14qLf8ElWq6kOuR/zOFe1qRl3uiqnghMQ8DCg9LPOESf449vQ2PVNMlm3C1BOCMeHfQrAROGbbj455wj+ASF4fdkQOPXllK5RKDwBGyukOEYT6pF+E3zGRVKEBa+jXSFAhJYhEt+leCbIOcKvmXRZzQyLCBsZS0CPiaQufu9y4BVcx4V0mo0bBOMEog+bmAVbWYCzVj7WxfexzlIpGet69kNoU0ERKCyCNBuwAxnXtaDnW+c66hQAtA3fcVx2tHum9IErSD1WPcHxiC8imrSOygM4zY61CYCIlBZBLisIN3sU5cAB0XnUnM9LeZCq0BpuSq7DWHc3ajWUGYBjNtxyZ84Yf5pWpNupvnMgM0bahMBEagcAiOcK6Ql+St70XtqxxzWLNSTonL6SEXUtAVrn3Iw+Pk4ktdSRdqpJZwqotlVSRHYR4DBNhy+DK/51Bym/CQI9+HTl3Ih0IDLdzWhbgtHhx9z4T6uxX3LpWVVDxGYnYAt0xRC6LU70HxcrtFm3AQSFrnbrNFnv4JSiEBACDg4r68B7V+hWfWlLPJvTBjKojQgjadiisACCFD4mdFMVQ1C7wfuyWmwR6tRGtktMHL3AsqsU0WgYAQcrI61YP23hpBYyxil36IoTMmitGC4lbEI+IaAWZBStp09hG1LcylUTtIyl4yURgT8SMBUHYuw/tdmSUajpFs4Z9iveUM/tpTKJAL5I8AXX65XGG0fQeRtubhSSBDmj71y8jGBZqx/nCqTjjgSV3JU+HQ0HZbNxwVW0URABBZEwNYr5Hvwe/i/WV0pJAgXhFonB4lAI9Z27QJu5Wz4h1juX4QtQqGc74PUhCqrCORMgC+9docf14/Wl81mNCNBmDNWJSwHAodj/UgdPvRtziFcwLBsX6EwHDKBqE0ERKC8CJj5J41mXFqPvxO4ekYfbQpC2stoE4EKI8DVKx4aROiyJLyr+NZIVamsSiusC6i6FUAgxlEhX3j/tg+LWmaqLqWgG5JZ+UyIdKxcCSzFRbsa0LmZKpQLOLn+Y0ai8RSarVxbW/WqRAImBqsRWZ5CkmsVTr+CvVSjldg7VOd9BBx0xJqw7ntc3PM83ig30RF3jxnSaBMBESgPAgyqQXHonH0PVk8r76Y9UB4IVAsRyI3AYmx4bAjOlQkk19DW7LeMV8jbR7dHbvSUSgT8S8DUo5z/O+2NOHXaVQ10p/u3/VSyIhNYjDX9TVh71wjwbgrE2xmzcK/cLIrcCLqcCOSZQManMNweQ/K06dSjEoR5hq7sgk9gEdb8MY7ayzh3+CFOtD9gY0PNHQa/XVWDyiVgyzPRVerN01mPShBWbt9QzWcg0M5YpU1Y/9UUYu+gqvQLXNZppyxLZwCmQyLgYwLmU8jR4Mk9qGqaqpjpWKPyn5gKjfaJANDEucMGpD7BZZ3eTRXLd6gqHbYQbbpn1DtEIDgEzHqUmp0VQN1L6F846falIEym3Se09kRwGlUlLS4Bh074DNH238Dw+/heuZ5vlr+nE75nKlNtIiACwSBgGh3KudcBHZMFYTCqoFKKQOkJNOKy3Y1Y80UKwTM5Ovw0/W+fZOQKzR+WvmkCVQJ7Ck96EgeqBsEsbCb2KE57BLxpJ2x6pZ0ARD9FYDYCNbjoyUZ0fTqG1BkUiJupKH1OAnE2ajpugUusn/DTGw3/xV96BBerZ3B6w9ivWom2QyZeU60wkYh+i0AOBOiIn2rFuj/8CRFal6bewrfN22hZuqMKNoOo2yoHhBWVxIQg/8X5ML6T/eMNLiIv44vUx2mI9STddFJ2VFthCXBKg1FmwtUMq/iKifOEk4aIhS2KcheB8iJwAi6Ms0b3e7jt9z0Y/iIj07yPZtpnhRFeQdeLTKRDm5nQVtEEzB+VL0t3JTFyVRMue2oUxq+7sfm/GO/5+iqEXkU/tyrrM9oKSSD9wnEql2e6Y6yCWq+uhWSuvCuGgEOB2IyLH/gu7rvUQ+x1fPP/DB9qf7K3fVOHabmniukKU1bU5qc46vtlCtHusQlasP5B6hDeR63C3ewn/bJHHksn/98ZKMNeNV66HVfXjM1dgnAsDX0XgQUSWI17kg249I+MX8pVLbxXJ5H8IB+C99Kkpp/BfykS7VEnNdgCMQf0dC/MWcJJjV+Li57tR+SDHBFeS7XpLr02Fa557YWEL6WHVKP5sLFXoSCkB4U2ERCBvBOow7rnGrH+i8NwzmC8wzfzbXRLCqnHOQJIZoSi3kPzDt2nGdoLkAfngCiGqqcq4nJcOMiFoz9L46vzefwPfGVK6oVpKlIL2zc6TxhxEDp+bE6Ugg79CLWJgAgUioDFMKUK7L4GrF0fQvUrqTJ9FwXjXfx8jnNHqaxQ1H1YqBYofb7WtnztWRmHN04lN7FkjVj3Tc5dvZ0C8Vs07BiUSn0ioYX/zrxgpMYZzOiVdOFclYMI5EygHufvbMCaf6P7xbsScE9MMMA35xP/mUKRI8VwrAbRtIm9LE9zRhqYhGzjJhfRWQ0U2T/+mEDkfcNI3ESjqz3qC/lt4tH52uOAjn3rrc3aKPktgnITAREwAuZ+wY9n+PdV++vBl1pTGDk2gfjJnMx/FfcdTXVaO9WoIVPncISQ/uPDlIe0BZEAR4VxtmJODdiKC3tYx4/3YMtDHMF8mlFRnscXJtf6graFEcgYzDiH7UHDMuZk9yDn7rWJgAiUnEATPrCHhbjX/jx0hAfQvshDatUwksfzQXgcH3+r+CBdSeHYRGOKkKnM7KFogjH7Z78zj8nsZ8mrpQKMJ/B0HM7Q+F0z/6LR1b92Ysufq5C8jqrSV44gIReLmZHNetTuF7uPkggdxcQShLMSUwIRKAEBjhapMcWO0b8fWhE8bK7iE7Sdap2DYvAOodHNYRSGB1HkHcDxZTs/W5isnt9rKDirGL/ENZVaevEZy2B0M0FpYjLzL/vdDtqe7P/tM7tlRWv2tz7nSsCsQCnATADetwj19sIzp60d6+7fiRv/D1+ErmLABptf5kPcFAra5kvA/DqHkHwRz/+B5aER4XxJ6jwRKCIBC/zNy20b/fvZ2Et7oHcGnqgZRKI+iXgD33gb6bbBh2WimW+9zRSYnJtKcfkZp4nH7LOBYq+eY8o6fq+l4Kzh72qKPLPtj3JfhL9pWce44mljOselMYGTFao2GrV/tmX/n/kcW6ry/T7dS0L2lSF73DgZMwqtwQQSXxjB8E+asW54PmSW4JKd96Lj4uPQ+hBHM59wEV5OFZ+TeX2ZT46VfY61Ef+O5Z/DvmsdXVtpCdjNghTf70YWocdGAtpEYE4EHJxm/aZv9G/7XE720MHutyq8E8MRqt8iYQxHY4hHQwhHExipYqQcfsaruDRxlHFyokm4URdelObnFJROhHNeET5L+N2lj5wXpqDlM8X85ZxQ5rtLy3SPRgkp/plo8Lifr+P7N14/nWZOspT58xnmJXkNe6blZTOhxZG2lT1bFisnywfOzVmZPVupx36HKYDs2cm0Nphw+JtOovxj/fgS4ZCRY35pvRyVP0Jn+W8OIfrr5Vg3yDTz3k7LaApu7cZNj3Lu+HN0wD+OI017aZl3npV6Il8UWXXn+YAZzHQkJAh90RPspnbYMnyOaBOBIhIYNdqJ8ZL2py0ABFpw8b3bsenttfCuoevNW6gqrZOqdG4NZ8v08sXmoAE0t/HLTnu70SYCIiACIhAgAstw6ZO9iH9gGLFrOfrcbfPB2WFsgKpRsqKaiRmJtXD0caAVgoIwrcYoWYF0YREQAREQgbkTWIkNQ1ww+to4Eh+gEHyELhaKRpMjRhsPkpfLhZkOt1MssoxeJHKEp2QiIAIi4DcCVJV+g0s6nUOL4u/SxWJYY8PcWsg4cYIwIwhzO0WpREAEREAE/EqgDesfSaD/3bQkvYmGNHtpWerXovqmXDYqpFHGYVYgzRH6pllUEBEQARGYP4FWXNFTj7VXMJ7pWj7k/0rVnxb8nQEnLYR51DnIkkgQzgBKh0RABEQgaASasOb/jiC1mg/6H9OqNCZV6dQtmF6ZEFjuYWONBOHUjLRXBERABAJLwKLR9FMYjiD+Jfob9ilw9+SmzIwI0bYbkRYJwsl8tEcEREAEAk9gGdZ3fg8/Xs94tZfRKPJZzh16sozc36w2R8itIYTkIgnCDAz9XwREQATKjsBq3JNsxtrbh5B4B6Pw/JKxSuMUimVXz/lUyCLy0KiIAezdxRKE8yGoc0RABEQgQAQW4+KfhhA/mz6Hd3LesF+q0kzjWUB0viBIEAaoL6uoIiACIjBvAnW4dPsDOPqDg4h9jJns5ELQFa8qNUMijgiXa0Q4726lE0VABEQgWAROY4D2Vqy/mbFJ304vut9UI1rRqlIGLbcR4XkShMHqxyqtCIiACCyYQAvW3zeEgbOGEf8XqkoHKlVVasHKqR49irHWFGt0wb1KGYiACIhAwAi046PPNWHJ+RwVfZQGNDu4WG1FqkpNGHJEyOAD2kRABERABCqOgIPVySas3crVGN5mVqUcHVakqlSq0Yrr+qqwCIiACIwn0Ih1PxuC81aODr9OB/yhSnOxkCAc3x/0SwREQAQqksBirNnBBWsvoDD8HufNRipJGEoQVmSXV6VFQAREYDIBrmLRm0L8KqpJt/HoaPCVyenKbY8EYbm1qOojAiIgAgsg0IoNf+ByTo8w6krFzBdKEC6gw+hUERABESg3Ah7utsUMq2hAQ0PKyhgUShCWWy9WfURABERgAQT2YvvJXMvwBXQriFSGGNR6hAvoLjpVBERABMqLwCA2r3AR+gxrtbi8ajZzbTQinJmPjoqACIhARRDYi1sOScK5g8s1vYSBxypmNGiNK0FYEV1clRQBERCB6Qn04qZXhZC6J4TQqTEkorZEUSVtEoSV1NqqqwiIgAhMINCNze91EL6LfoPHUQiGK00IGo7wBCb6KQIiIAIiUAEEPGys6UX043SeX5dEsonO9BVQ66mrKEE4NRftFQEREIGyJTCIjQf0InJDFUJvYSSZGjrQl21dc6mYBGEulJRGBERABMqEwG5sfUkc3k10kTiByzDRKKayhaA1a5h64ZCWnyiTHq5qiIAIiMAMBPZi89voLX8dV2U/eARxV0LQLEY5Q0pmMpiZoePokAiIgAgEnYCH2yI9iH04DOdyqkFbY0gGvUp5Kb8JQfLolGo0LziViQiIgAj4k8B2bG7vQfzaGoTfMYxkfYqPfm0ZAlWIYAgj/yBBqB4hAiIgAmVKoAsbXxCFu4lO8icPI1FV6UYxUzWzB/fPEoRTkdE+ERABEQg4gT3YcnoE7vUhOEdRCIY0Hzi5QbnKBucGvV0ShJPZaI8IiIAIBJaAhw63B60X0j/wKgq/pTYfKLvQyc1pCw/HkbTJ0p0ShJP5aI8IiIAIBJJAJ65r6EPtVdUIn08B2MQVJAJZj2IU2rwl+ILQF4UjY5liANc1REAERKDQBLqx6eAwneQ5H/hGOcnPTpsuJBSEyd17EO/WiHB2XkohAiIgAr4msBObXhlC5AtcVf7FnA+Uk3wOrcW5UySAZ1diw5AEYQ7AlEQEREAE/EpgDza/kwLwWjqEH8SRoCOjmNxaykaEVI4+YaklCHNjplTTEPBwL/vQI9U9cCKDGGSUouiUgYrq4KY8xDRnPw3H+e423gNIFT0ohoOI4+bxug5iTi0DXTHGx5T9ZzY+Q4jzXM91MNdAWXaeXTPX8xI5XceDk6LF5lAN3G7ggiEaZuS973vYXNUD98MROBtoDtMW13zgbN1k3HHraPz7s+2UIByHRj9yIdCFzY28yU/jzf3OHjx0FN9Am3letAZRe5pY/5q0cdLe8xDWzP0kMvPfYdKPztFuzTTM559zLmfG7cmeRwEccmLw2HfiU/af2UpkEUKsPB5SOZ/PhDwl5NC3jgKUSrIcNp7A01y+BPDbNBvvBytDisYqI3EaYri49YFubPlqM9wfOljTP81pc9q9A9cv7oN7DZ3k385QaQ2yC50TvnRiMyRif3nUfkgQzp1fRZ+RWbrFOYNqBQbtDTFUky3eImVMpXUKa/GcJU7R4BS+RNOLv/2VNLN82/j/Gt4nzXRoP5zxPc/qhXdDH27d3ICLdu1PPfdvO7DxhXU0iqE69BQGzZaT/NwRsm2og0AiRlH4FztdgnAeECv5lB5EltIq7SS+gbcOYKSSUajuIjAjAROaKfrwmdN2CG4Vx6wbuOt3Hu74loNzh2c8eZqDXbjpDXwB/TwF7CrOB8pJfhpOs+3OGMp4O4DeZyytBOFsxHR8HIEUQg0cDazI5c143In6IQIVTMDUcDWI1HAe72+60P0Lonh2LjjMSb4bbRdwPvBKnrc8ntbEzCUHpR1LIMRXkwRSf25FR5/tlyAcS0ffZyWQxHDUQ7Tej4qxWQuvBCJQQgI2QU5V3KHUqNTOpRhd6GjsQdsnahGik3yqRU7yc6E3dVobEVJ1/WD2qARhloQ+cyLA+Q4zkmC/0ZgwJ2BKJAKjBDIz6V5tHC6nDHPbzEk+hOjnuZL8GzkfWGfmHdoWTsA48oXiAQrDNFAJwoUzVQ4iIAIiMCsBM6Hh3PpI1AaGOWxduPnlXD/wBo5eXmIryUsI5gAthyQ2FuT86nCE87XZ5Hk0f85mqU8REAEREIGJBEatSftTcGf11ejCjW+nwLyTwvNEumFICE6EuYDfDEZuKuonGuA+mc2Gjl0Ofb/sXUWbCMxOwEPInKRyeqOdPTelEIHKIkA93Iy6zb/QSX4JcEkIYTrJpxabxam2/BKg2wlXnUj8Brg4ls3Z5no0KszS0OesBOLsQtWIUhDq5WlWWEogAmMImJELpeAKOlRUj9m97+sO3Lq4DslP05jmnfRxa5ST/D40ef5i7yLOj/kE2/dSIiGYZ8Tlnh1vUnae/IeLKnduqp8I0FzfQvG8kPN+r6cvoUVj2rd1Y/NxNUjcydHK+zh/JSG4j0x+v2TnB8nZXFj2bTKW2YdCX3IjYIJQqtHcWCmVCOwnYFajnIri1J/z970YOL4HW75D1Uo/RyYncR8DZ7vLKAQZJm7fQGX/yfqWFwIMDWkRZR7dhq7Hx2YoQTiWhr6LgAiIQAEJMDasWY7WRhB+FzVz/7+98/uNo7ri+Jn95V+xHbtxAhW08ICEgtS/oJX62DfUVo0qVUJCQsoDidWmSisQKFYLyUub8qOlpWqhQCEURBCloEKhEDUUpUUNadW0tCQESEOI7XXsxF7vj5np9+x6l9317s6sPbO+s/udCDw7c+fOuZ97Z87ce8859xuq8jROKlZK1xd0iHdm1kpA5wfhi/nadtmXF5mqQKEirKDgjh8C+KbFsxu3OUPohxbTkMBqAjpTiEDZq0/wSOgE9IMDNqMvowdecy/OEdbg4A9vAsWhUY7deINiChIgAYMIqNsEet3/cyV5rNpQRkWkIjSooqIhiq3uE7TpjkZlUUoSIIEVAhiORj/Qen1ULszXQ6EirCfC3z4I0GrUByQmIQESMIiAzs9CET4nsm/ViBbnCA2qqCiIoitvQ072CKNQWZSRBEigSADLYOmw6HkEeX0dynCVImSPkA2FBEiABEigqwmkisOi8odNkp5tVFAqwkZUeKwFAceF5Sh7hC0I8RQJkIBZBDRUHV5aT8NlYlVvUCWlIjSrvoyXhpFljK8iCkgCJFBFYCW26GlowCP11qLlZFSEZRL864sAnFHRnlz2CH3RYiISIIGNJpCCEz1sG54Zl/TlZrLQWKYZGR5vSACNClHaiwYzDc/zIAmQAAmYQmAltmgWPcFDzYZFVVb2CE2psYjIkUWPEJExuAxTROqLYpJALxPog5EMVvH402ZJ/6PZsKjyoSLs5VayxrI3Mj9eY1a8jARIgARCI6CWMfjvYfgOtpzO4dBoaFXQnRmnisOiOkeI7ytuJEACJGAoATWSyUrulCXOi14f7+wRGlqJJovFZWJMrh3KRgIkoATUSAaDno9slvkFLyJUhF6EeL6GwLLY8CO0Wg4z1FzAHyRAAiTQYQIaSSYjuXS/WI+2MpIpixWzJMbh0TIN/vVFICbQhdxIgARIwFACaiQDi77f9MvWs62MZMrio0eoiwlwIwF/BEpzhIw16o8WU5EACXSagC50nJH8EuwYfiqyw5eFO4dGO11LEb9ftij/6qC1ES8WxScBEugSAv2SVEvRw2My+y8/vUEtNhVhl1R+p4rRB6tRi5FlOoWb9yEBEmiDwIoD/TIsRe/xcpmozpaKsJoG90mABEiABCJLYAC9QQTYPjwqnzvh5TJRXUgqwmoa3Pck4EpBw8rYtJbxRMUEJEACHSSgc4PLUliCAvyByBfbsmynIuxgRfFWJEACJEAC4RDQuUGsQv9EKZxae3YMVITh1EkX52pr0O22vra6GAaLRgIkYAAB9RtclvzFuCTQG2wdTq2RuFSEjajwWFMCriQxKko/wqaAeIIESKDjBNRvEAuG/2xYLiCkWnu9QRWWirDjVRbtG/ZLAo6ncV++OdEuKaUnARKIAgEsFi5LkvsgKf33IYrMmkarqAijUNNGyah2Mg4UIc1ljKoWCkMCPUpAh0UR//jAoIxd8Os3WI+KirCeCH+TAAmQAAlEgoAayCCm6J8Lkvi1JTvW1BvUglIRRqK6TRJS5wgtuk+YVCWUhQR6kIA6z8NnMAftd8eETCOk2to3KsK1s+vJK7W1cYKwJ6uehSYBowio8zxWn39oi/QftWRqXa8lKkKjqpbCkAAJkAAJeBFQAxkE1n7flth+kZ0Fr/Re56kIvQjxfA0BjSyDA2sei6/JjD9IgARIoE0CulxS6T/nznGZOLdWA5nq22I9QknqWCs3EvBDYFBSUIT0I/TDimlIgASCJzCAtedzUnhmRKyn1mMgUy0Ze4TVNLhPAiRAAiRgLIEEhkSzkv+oIPHbRXbnghKUijAoksyHBEiABEggNAI6bqmBtWEgc8cWmTm9lggyzYSjImxGhscbElgsrj7hOnSnb4iHB0mABEIi0I8hUbhLHLoo6SdgJbpuA5lqMakIq2lw3xeBIL/EfN2QiUiABHqaQApDogiq/V5KrNuukX3ZoGFQEQZNlPmRAAmQAAkERkCHQ+EkmHfF/ma/bD0bxoc4FWFg1cWMSIAESIAEgibQV3Sctw/OSOyloKxE62VM1B/g784TQMBYdYWxzkiafiydx887kgAJGEpA5wWXJffaqPQd2Cw7Ax8SLRebirBMYsP+uuj4q/6zYtfICBXhhtUDb0wCJGASAY0ek5f8OVsKu0XSl8KUjUOjYdJl3iRAAiRAAm0T0HlBbFlbnF3jsvDOemOJeglARehFiOdJgARIgAQ6SiCJFeehBO+eEevFoF0lGhWEQ6ONqPAYCZAACZDAhhDQEGpwlXhyVFI/HA1xXrC6cIg1asWrD3CfBEiABEiABDaCgC60m5XcX5KS2oNVJTKdkgFDoy6HRztFm/chARIgARJoSCCF4dC82FhaybplUD76GLOEHQtgxaHRhlXCgyRAAiRAAp0ioMG0EUN03hHnljG54qQlu9e10G67crM32C4xpicBEiABEgiMQLwYStvNFWAhCn/BI2E5zbcSmIqwFR2eIwESIAESCI2AuklAEbpZKdw+K+7TluzMh3azFhlTEbaAw1OrCViSsDBwH6fn/2o2PEICJOCfgAYSUTcJzAvuXxLngetkMrTIMV5ScY7QixDP1xAYxK+OzWDX3Jk/SIAEuoWAfkhrDNGc5H68JH37r5bdHbMQbcSQPcJGVHiMBEiABEggNAIaQxTh036Zlfhtn5adS6HdyGfGVIQ+QTFZmUAOH3MxtpsyDv4lARJoi4A6zMNX8LGCpL69VW693NbFISXmCy0ksN2abQZzhPQ97dbaZblIIDwCOhyqSjAjuccdsSfHZed8eHdrL2coQouGD+0x6+nUOkcIRahtmhsJkAAJ+CKgLwydE8xK/hERe9eYfOuirws7lAgh1uDEwY0EfBPIW2gw2m64kQAJkIAnAbUOTRWVYOHnBXEnTVOCWgAqQc9qDD+BLszrihP7SBaM1y8ZeE4g5APbTfjNgncggcgTUD/BlXUFDy7L8p5PyeSCiYXiC82cWonBl8X4+rCkYFnF+LTG62xzapaSkEAPEkjgdQZn+UJBCncuSvrOK2TvoqkY6Edoas0YKpeFnqtIgiuWGFo/FIsETCCgvUAMiV6Gs/zeURn+1ahMLpsgVzMZjO+BNBOcxzeOAIdGN44970wCphNQoxhM95zPSf6mUZl9yJKbjVaCypOK0PRWZZh8JeMqh5bGhtULxSEBEwgMQAnaYv8dSvArm2XueawunzNBLi8ZqAi9CPF8HYE45gi5mHMdFP4kgZ4moEYxuqhuTgq/syX/5XGZPwYlWIgKFMwRcmHeqFSWCXLm0F7QaDhHaEJlUAYSMICAriWIzc6KfY8rhbtMdI/wwpTAfA8NZrwo8XyFABZNgfuEFedQQgUJd0igZwn0Q33AN/Bj9ARvG5eRQ1GYD2xUWXyfNaLCY00J9MF9Ao2GPcKmhHiCBLqfgA6F6nwgOlJvIFrMjeMy91hUlaDWFnuD3d9mAy2hDo32sd0EypSZkUCUCOgagggAUsBQ6AMZydy9TfZOw4gu0quzURFGqQUaICviROgoAtuNAXVBEUigkwQ0VJoOhebEPoWe4O1zMvTba2WX8a4RfhjxheaHUkfSWNaETHTkTuu5iUaVwQPBdrMeiLyWBCJGYMUgxs1K4RC87vaNyvTpzbIL+rA7Nr7QDKhHV+CRAAUzI/3Gxy1bCa/GdmNAu6EIJBA2AZ0L7EMvEBFiTmHs8/sjkn/Kkj0bupp8GGXGC01fwtxIwDeBGKJGJNFufF/AhCRAAtEjoArQFicHJfhoUmIH+uTCGfgGdk0vsLpGsMqqy6/7aiLcb0kAptKxuDhJl4ajLTnxJAlElUAcz7YGzHbEOZYX5+4xkZct2ZWNann8yE0l6IcS01QIpCpzhJE2EquUhzskQAIlAuVhUPQCz2LFiPvnJf+Lq2TPnM7bdDsjKsJur+HAy5fA0KigR8iNBEigGwiUrUHR+7sEY5jH8ftHw7Lt1IjssLuhfH7KQEXohxLTVAjg65BzhBUa3CGB6BJQBajzgAWxc4gM8zwe7YNnZfatGyISKDtI8lSEQdLsgbzw0MQxfwBjGW4kQAJRJFBSgHFYgjo2DGFeQsjEe0fFOWLJrV09D9iqrqAIaTXaChDP1RJArFEOjdYi4S8SiASB8hxgqQfovAKhfzIiQ3+Mcmi0oMAnYAp/tdP9c6FB8QolH3VEwH/oaS0YHcMT84LWfNHK2MIcIWcJQ2kMzJQEAiYQhwVoCpag6AFeRlSY38Ma9ME5SR+9Vqa6IipMELhUEaaCyIh59AKBKTUg0+F0+hH2QnWzjJEloB/XGg1G3SCg/M4jLuiz+I59eERmTsAXMBKL5XYSvg6N8tO+k8Qjfa/tWILpXAp+RpwjjHQ9UvhuJRCD4usr9f5cBMZ+e1mcJ1HWp0dl2wdWD1mBtlu/NJZpl1hPpz+JCeWxJEJLIPI2v596uimw8MYQ0Lm/JJSfGsEUxLkAF4hXE2I98aEsHblevnvJGEENFoTGMgZXjoGixTCfnMLyE/yAMrByKFLvEFDlp8OeGgUGrg+LMID5Kz5ND6M3+EKfzKL3N1XoHRrrL6mGWFvS8WRuJOBN4LOxmCxgTtnF3DJbjTcvpiCB4AjosCdifhb/IfLLIrzdT9hSeAFK8cUh2XoSQ5+c+1sjbihC+Y92qbmRgBeBszJnDUgiDtNWXZOQGwmQQIgE9L2sFp+q/NSyH72+NPz+/mbB9w/q8JVhmaDyC4i/DnGdAtyAsmM2ayPgYmLbXV6WeaO/6K6SBTstm7EESyyPT6cBzhKurbZ5FQk0IqDDneVen56HtWcWCvD0sthv4syrGIp5s19mP+SwZyN66zuWwNf9cSjCaXx5TCDY6vpy49VtE9CvPpg5o8HLuStlH5TMVNt5dO6Cffm43D8LJZjGQztC/9POkeeduouAPvefzPPFdLkjVXwZ+PidyYpzHMYuR/FuPjYomXdE9ur0Fb87Q2wCiWGZnL4o9z00KCmYF9G/MkTWDbPWQWlMeM9j4OMYHg6jG7vKl5Z7zyclcQIT9dfAQq1hmXiQBHqdgD7Xquz0X7mnp3aduulzg2HOLJTfBXxM/hdDnSdw+C2cP7FJku+J7MxQ8RVRdex/Res/W9L7F2X8+iFJ3Wjjw0OHSktf+8G9l4PLqWNsQr+RPhh9ksSQaP44euTPhX7DAG6wLP2nLckexgfqF1KSGIfFWgC5MougCegLuGRQD3O4NWfu/0r/KRsLU1IRjc+pSilvn+yVj6z9rx+Zq++nTHXT/5dUXOlXdRqNuKRvz7y4Lnp36Fm4l2BYNg3ldw77Z3Dlu1CM79iSx3NkfTgq8wsY6uQXpaLcwK1Sh648mJyXzE1xSX7dEfsGVB7WY3RTaCyehhHlBtKqHOXG0yxNRZCqBM3yrT/ezrXl7EvXNLqylKL5mXIOtX+rhwl1X/+Vt+pzYKo9wOJXIj445vFgPJsR+65tMnmqnN70v+/LgbFRGf4qXrTfQeO4TkvKeWZzaq30fLhLaHczeOkurTzDns9xXQn0EdBrPB4FrX2NV2y1m3/d7TBNLtAddbdDWXDMdfQuuuFGqjSKigPHyvt6GvvNRlTcqrJYKixkdTWxytxKbr1Q7w0jCksNKfJwUtf58SzkyuA4pjLkEjJYwD6eZXfOFisNn75p7M8ggvVsnyynh+UzCyI79Dok42YiAdTN6m1eDo5bktqClrUJLpot41/mcTk6/wg1ErN0v9mWxIKuNlYuqD8PleCi8cTxFaWrGtQ1FCuO79lKQ9W+BwTG79p8NBA02mtN3pAJvV2n2Hr1nmi4er6SVynf4jE9rVsMeVfyQER27DuwkFT5HDw81ddbeIjcxEpm+GMNg9UE2rk+OCrMBAoytFKYAeS9DWlw2NWHMIe83sbtnocX0PFNcv7fUfwidGUqNiMDV/TJ0JdQvptRts/raAK3jSegztVob0cw/Pa9aXHfSMiwlYDFbzuSxWUIDXbAQsP12D7G+UErLfbK4+CRvMlpRzLuFoGbqj4qNVvGPSuLlYZVgM4pyHjxd07S7nY8pK8j/bT8s5Km+vKvCb7pZTvKDgPL4nYl/o5Z78p5MGnN5SoZw7WX3JMr98HlThSf1Woe3G9M4P/1iLHkAyCMSgAAAABJRU5ErkJggg==;container=0;" vertex="1" parent="DrQzbPBQm9nXxSn8lfKz-22">
          <mxGeometry x="57.69" y="20" width="34.62" height="40" as="geometry" />
        </mxCell>
        <mxCell id="DrQzbPBQm9nXxSn8lfKz-13" value="" style="shape=image;verticalLabelPosition=bottom;verticalAlign=top;imageAspect=0;aspect=fixed;image=data:image/png,iVBORw0KGgoAAAANSUhEUgAAAcIAAAIICAYAAAD9g+4KAAAAAXNSR0IArs4c6QAAAERlWElmTU0AKgAAAAgAAYdpAAQAAAABAAAAGgAAAAAAA6ABAAMAAAABAAEAAKACAAQAAAABAAABwqADAAQAAAABAAACCAAAAADi+B39AABAAElEQVR4AeydCYAkRZX3/5l19H1Pz8UMILcjgggqHlyuF+oiiIz6eS0iIM4BjKB4gI0uKIIzMMPAgrrs4n4rC5/u6nqsuivifYDoCogKyDEwR09PT9/ddeX3f1VdM313dXcdmVX/HJqqyoyMjPhFZL6MF++9cKBNBETAdwQ8eA5we3g3wtUp9NVWIVSbQqouBa8uBKfW458L1Dhwqj2gCnCiHlIRwAs7cHnIzuf/gRSPJZhfkj+TPMDvmc8kHB7zuM+OeUlL4yHE78lUCO6+76N5cF86jxSvnYoz33D6fIe/+V/6tx0P8Xtm3wiSnqW1ckQRsXwtHcvkpFL8q+H3Ie6z77bfiuYhzj9WhVvme+Z3ve1ANY/F+GdVzmweRvjb/ohkwpbCkLcILvNeMuFI9ueQtw0Dk87LHp3uM4FeL4HWOZ83XX5T7T8MS70n8Yh7MBqdbVMlyMO+Fek8rEtMxycPFylIFnG3Gwl3EPFwE0KhEQxFwohEE7wP2G95vyRqQwjVsV828PKNLpwW9u0T+dfOyj7oIvSbJLxfNWPdX7PFS98s2R/6FAERKDyBe9ERPhhN9bVAazWcdgqzpSmEljvwlvHpupQl4D60Uei18BhvZo83dVroRXksTEHouLB/PJr+l3uZ9z+9+VgYc1r2V2Zf5tfY75bU9o7f5/AnZVBms0+TvunP0Z32MSrkMvvHpKX0TAtr/i8rCC2N5Wf52pbOe99vy5uZjabJpOC5o79N4E3auM+E9HSPufSLwFTnTcpo/A7PCpYif34UbmPmfG6n/wpyEes7xJl+cynIBQqXaYht6vJ+4SfC5MQXQPAFMPOd9XLDo/dH5i7hKxa7ofVe229bHKmeJBK3/RyPXfVGbBmZroekE+t/IiAC8yPg4e5QD3Y3chRFIYeDmMshHNEdxhvuYD58VnJUxNdwr4VCrYZvsaHMDcpbmwnths3ctvs/bb9tWVGU+VX8/09+YEzeM1WpcktlZ+5Puf/bVDnOvm/282dPMd1V5n/mdDlO3p9t88lH8rmnOFcpZImz98T+mmT3TH9VE5B11FP0YeiqFlz8mWK05/Sl0RERKAMCHu6sG0HvASNIHe7BXcWbahWF3hF8M11J0dVu6poIKPL4zwSc/SVHRZ191yYCIlB8AvbyyZHhjhASL5AgLD5/XTHABHbg+ro61B5IzdgqTnodR/XYMXz/PJJ/B/DGqgtT4NmohoIwLeyyIzuJuwA3uopetgTsfk0g8epw2dZQFROBBRLwOJc3gPZFFGLPTyJ5AgXcSziqO5rfD+QIry7Km8gEnc0/2D/75BvmAq+q00VABIpFwO5hamcOkSAsFnFdx/cEPNwbHsKjSzi6O4ZC7RU9tDRzkHwBLdDaqxGxSfm0sKO1JWK8fexPmwiIQHAJ2D3Nv4MkCIPbhir5Agl0oMO9APWtDag6huO4k3rx0KuY5TGc01tUjbBr83g2ysuM9CT0Fohbp4uA7wiYWQ21OkslCH3XNCpQIQk8g401zQgdmoRrQu/V/Hsp/e6W008vklFz0qiat0Zco71CNoPyFgHfEKChDH1itYlAmRPoxh3NYfS/mC4Lr+Eb4Gmc61tVBbfRjFoSFHgSfGXeAVQ9EZiFgAThLIB0OHgEaOTidqJ9cR2cE2nYcrqHgVMchJ4XgRvNqDuTGKb40yYCIiACRkCCUP2gLAiY8NuNtqUMMcG5PudNVfBO5iT4ygjn+jLzfEmqOyX8yqKxVQkRyCsBLylBmFegyqyYBKjmdPrxD3RYT5jwe0sE3qn05VtBYxfH5vik8ixma+haIhA8AhamkFFmnpEgDF7bVXyJu7GpmZ33xD5sOZPzfq9lVz44ykDTGeFnIz9ZeFZ8JxEAEciZgEaEOaNSwtIS8GjtOQj36ARCb+Fb3JspCJ/PT0acl3tDaVtGVxeB4BPQiDD4bVi2NfBwTmgvXrYijOgbqPp8G1WeL+XIr9EMXmzUZz5A2kRABERgoQQkCBdKUOfnnUAXNnPVBvdlfXDOCcN7A0d+Ky1ktQk/qT3zjlsZikCFE3A8CcIK7wJ+qX5m2aKdB9K59QzG81xN4fdiCsNqE3wKZeaXVlI5RKD8CFCzlJAgLL92DVSNMqs51Bzfi853UvC9yUZ/VgGN/gLVjCqsCASagARhoJsvuIXvw+Z2xvc8nYLvXfx7Bd0e6jX6C257quQiEGQCEoRBbr2Alf1eLmv0Yix9HpfDXE0zl3dQ+HERW8c11actVatNBERABEpBQIKwFNQr7Jp/xR3VrRg4ltV+j4vEmVzW6AALcG1r98nys8I6g6orAr4j4MlYxndtUkYF8rC1vhepV7oYPJdO76+j5WeLqT9HFOqsjFpZVRGBYBOgT3JcI8Jgt6EvS2+RX+j795o+eOdR/XkyO1ptjMIvLr8/X7aXCiUClU5AgrDSe0Ae69+Lm9u4zOWbOO/3AbpBnEgr0Ijm//IIWFmJgAgUhIAEYUGwVlamvbhtERB7C+Cdz/m/EygIQ6YC1fxfZfUD1VYEgkpAgjCoLeeDcpsATGHkLJq9XED15/F0g0iv+iAB6IPGURFEQARyIsBXdhnL5ERKicYRMBUoR39neIh9kCPAl2QFYEJzgOM46YcIiIC/CVi0YhdQZBl/N5O/SpdZ/ij8RpbqIo4AX55VgUoA+qudVBoREIG5EZBqdG68KjJ1J65rCKP2NFqAruHo71RCiGoOsCK7giotAmVJQIKwLJs1P5V6hmsANiP8UiC0lgLwjbQEpRuEjGDyQ1e5iIAI+IWABKFfWsJH5fAYCq0bzasiiHyIwm+1OcKPSAD6qIVUFBEQgfwRcFIShPmjGficaO3pDOGWFYwGc14V3PdzHnClHOED36yqgAiIwAwE+NxLShDOAKiSDvVgY2sfbjmLKtB1YYSOTTEOaIyxYLSJgAiIQLkTkCAs9xaepX4e5wF7EH0VLUA3hIDXMHnYRoHaREAERKBSCEgQVkpLT6inrQjfh52H9wIcATr/h2rQZhOAcoafAEo/RUAEyp6ABGHZN/HkCvbihkVcEf4ddIZfT1Xo4fF0QGytBziZlPaIgAiUNwFzqdccYXm38YTaeVwXsB/DrwCSH6E16OvYARwtiTQBkn6KgAhUDIG0GISsRiuiwc0adC+2HtiHgTV0haA1aKjNBKDUoBXR/KqkCIjALASkGp0FUNAPe/hyQw9ufmME7keoBn1xgv6A5hSvTQREQAREIENAgrBMe8LdNIZ5NTqP6MPQZRGE3sFq1koNWqaNrWqJgAgsiIAE4YLw+fNkC44NbD8rgvBHaBBzlNSg/mwnlUoERMAPBGQs44dWyFsZzCWiH7uOSgEf4+rw59AYJjosp/i88VVGIiAC5UeABjMKsVYuzboHtzX1oZORYdwronCO1CiwXFpW9RABESg0AalGC024wPkzQLbbh0WHAfGP0iL0XbQErRpWZJgCU1f2IiAC5URAgjDArbkLW+v7kXwDBeCVHAkeo1FggBtTRRcBESgZAQnCkqFf2IUHsfEARgS9hD6BHwSces0FLoynzhYBEag8AuZLHVJkmeA1/F+wuWoRcGISoasZI/QUWyk+xcbUJgIiIAIiMHcCniLLzB1aKc+wpZJScN5Dv0CbD1ymUWApW0PXFgERKBcCUo0GoCU7aBDzIbQc6iD0CY4C3+0hFRrmOFCbCIiACIjAwglIEC6cYUFzsEDZA+g/xYH79zSIOcGWSpIqtKDIlbkIiECFEZAg9HGD9+BLXDV+4O/oHH8FF85tlyrUx42loomACASUgJuUIPRh09lqET249XkOhq/kcknv5QjQtWDZ2kRABERABPJHILMMU1KRZfKHND85MUxatB9bT6QxzGfDCL1CqtD8cFUuIiACIjAdAY0IpyNTgv1d2Ny4F9vPjiJyNZdMWilVaAkaQZcUARGoOAIShD5p8p24cUkEzsV0kL+EqtEahUnzScOoGCIgAmVPQIKwxE1ssUJ3M1ZoFTxahYbOMfd4+6dNBERABESg8AQ4DaU5wsJjnv4KD6Mj2o3Wl1XD/Tz9A08c4ZJJihEzPS8dEQEREIF8ErAQa4CsRvPJdE557cD1ddWofnMY7nV8IzlI84FzwqfEIiACIpA3AlKN5g1l7hntxS0tLrz30zXiKp7VKCGYOzulFAEREIF8E5AgzDfRWfKja8TSJJLmIL+Wg/KQxYnRJgIiIAIiUDoCEoRFYp9xkt9yCIXftQyavVqrRhQJvC4jAiIgArMQkCCcBVA+Dt+LjvBebHlhBO5Ghks7VUYx+aCqPERABERgYQTMWCaOVEKCcGEcZz3bIsXQSf6VHAXeSCF4jOYDZ0WmBCIgAiJQNAI0WPQkCAuI28PGmr3Y9QaGSruRkWIOlBAsIGxlLQIiIALzJODO8zydNguBTlzX0IfoO/mm8UUTgiNcPkmbCIiACIiA/whoRFiANunGpmYX0XP5lvEZ6qDrYlo5ogCUlaUIiIAI5IeABGF+OO7LZRtubqOP4Do6yX+ModKiFjJNmwiIgAiIgD8J0JJfIdby2TR92NxO4XdFiIGzKQBdxQzNJ13lJQIiIAL5JWAB1gCtR5g3qv1cPSIJp4OWoR/MBM7OIM7bBZSRCIiACIhAQQhINZoHrJ3YsjwFh47y7vtsPjATyDUPGSsLERABERCBghOQIFwAYo75nD3YuiIKj6tHhN5hlqESggsAqlNFQAREoAQEJAjnCZ0Cz9mLrQdSCH6BQvBsRYuZJ0idJgIiIAIlJiA/wnk0gAnBnbj5YFqG3mRC0BzlNSM4D5A6RQREQARKRICr/6Q1eB5CSQnCOTZCZiR440G1cG7knOBbFC1mjgCVXAREQAR8QsAGMJ5WqJ9ba2SFYBiRGzkSPENCcG78lFoEREAE/EhAI8IcW8UMY4Y5JzgqBDUSzJGbkomACIiA3wlIEObWQrQO/cIKzgRu5EhQQjA3ZkolAiIgAoEgIKvRHJppAFuWMWT29RGE3yp1aA7AlEQEREAEAkRAgnCWxtqZjhiDz0YRfru5SGgTAREQAREoDwK0++A/hVibsTUtdqgH92ou3Phe+QnOiEoHRUAERCCoBFKaI5ym6WwViQRXkGDs0AszYdOmSajdIiACIiACgSYgQThF8z2Fz7bUIbWefoKXJBQ7dApC2iUCIiAC5UNAc4QT2rILmxspAM9l1IGPcxUJJ0UNsjYREAEREIHyJaAR4Zi23YHr6xg27RwHzjUUf2EJwTFw9FUEREAEypAAQ6x5EoSjDevhjuoqVL2ec4I3cFe1VpYvwx6vKomACIjAPgIWbdRWp3cTEoQk4eG2SA/6X0EgW4im2eYFtYmACIiACJQ7AcezWKMVLwg93B3ajeFjXDi3cDS4PC4hWO49X/UTAREQgVECXiqCRGWPCD10uL3Yc0iUI8EoQkfawrraREAEREAEKoZAIoVQrKJHhINYtsRB4voqhF8+pKgxFdPzVVEREAERSM8QAvEEhkcqVhD2ph3m41dGGERbQlA3hQiIgAhUFgF6B/AfBsNwBipSEJqvIF0jPsh5wYukDq2szq/aioAIiIAR4PMflAPdjajrqzhB6GFjDSt9Ji1EP5kJuCqHed0WIiACIlBpBGgcacLwSQcXxitKEGbcJCIvN19Bij/5ClZaz1d9RUAERGCUgAlCDoZ+bT8rRhCahWg/4kdQJ7yFo8F2+QrqfhABERCByiRgalGuLct19RLfMAIVIQg5+nN2o20pP2+ghegqzQtWZudXrUVABETAhGAdqugsl7qtGR/+nRGpiKDbPbilOYzkx2gh+gZZiOpGEIGZCYyalU9INPXeCYnG/Zz7GXxj5b+FbtPlYNYA0x2b+ZrzO2vmPPNx1Go0/y1XHgu7Su7ly1wnf1fL9iX7NOHHONL8dMGB0OAAhr44QJnQaoHFuJW9IMwE0vbeRQQf0kgw906plP4mYI9mu8Gz/+xGt3+Zz/Fltzs9axiWfdhk9lm67J5Mmv17sr+dTAJ4Hq/J73ZlRqVK/8922fH0b+6ycFUYTccvmTSW1so2mi6bn+1NXzx93H4wsxTLmbLv2c1Osv3Z3/Y5eoLt23fu/uNWBC4aM+2WLiuPjyvHtKl5CV4/nd8U15rhtOIcclmo+Wr1QiyiNWYOm8WkdnJJG5opkTUMj09bXjvOwtjxmbKZ9vwJFUk58BLMM8bMBlJwuri+7JMO4vfHkfivNmx4eGz6mS44Nl0gv3NeMNqLlle7CH2VQJoVSDuQzVixhc4KtszbbNrCLc3CVkWJU2YkkeQcB/qZroefeylE9vKzm7+7+Z37nF7+9dFIfID9f4gPhmEPqRij7cf5dsyHRDLFhwOFQsqkQyqEEIPseunv9K1K72d+FE4hHnb4GU8LGIvNaL95jCWx/dnvSS+a/h5m+uyxEaar5q9hpnWZ1p5N1ahBktex8+x3ZmP+3NeQzje7j/7O3OeO28dKoT6d18i+c7PpPYyQS/u49Nlji9Jfhr2dGJx0XjbNxM8laGTaAW/bxAM++B1CneOid17P8BAsvGaGyGxVCSHhOhic8Tq9GHZa0DCLkBqmIKybMc0whkO1MxRoGCEKcJO3wzOksjenaLIa4QSd5WP98EZWYsPQTCfMWLmZTvT7MTOO2YPWo3hDf43GMUfZKvPaRMCvBExtY1Zs9kchw96a4hxGkkIrLeB2cN8zvFmf4sGnKOieTiG1nU/7zmoku2sR7QPaKehWq5P7tYFVLl8TKFvVaD/qFkXgfDaK8FGaF/R1H6y4wmVHeHxBS+v2KPASFHx7U0g+xZHenwjkEf49ylHdExGknqvDXo7yOmIVB0oVFoEiEShLQejhyw29GFhH45gzJASL1JN0mWkJmFLThJ6N+mipZn89/Hs8Ce9/qcR5IAX3f6lSfKwWXbsl8KbFqAMiUDACZaca9bC5qgfOGXzofIVzKVU2n6JNBIpJwOb2TPDZX4Jzbhzx7eH1H6bS85dUcf6Sas3/bULDsw7OnXmio5iF1rVEoIIJlJUgtLUFB7Dj6CTc/+Bcy8G0DqrgplXVi0nARnvh9JiPdmlI9vP1609Ugf4USP6YAvGBakSes1BOxSyTriUCIpAbgbJSjfajq40GBJ+rQuhgqURz6wBKNX8CZtgS4R/7HC0VU50UgL+h8Ps+/35ch/CfKfgG55+7zhQBESgWgbIRhJ24jnbXibU0jpHTfLF6TwVexwxdOPdsCndzX9hB4cdRn/Nt7ruvGju3cY5PaogK7BeqcrAJlIVq1PwF96L5DWGE7+KcYI3mBYPdKf1WepvzM+FnNwuNXHZTBlL4ud+IIPzDalxA4Zfxo/NbuVUeERCB3AgEXhCav+BuNBwWReSbFIRHxjQvmFvLK9WsBLIGL3yxGqAA/B0F3tcpBL/TgKMfc3CaRn6zElQCEQgGgcCrRnuwuCmC5KcYTPtIzQsGo9P5uZTZ0R/LaNaez8SQ+ja9/e5uhHu/gzX9fi67yiYCIjA/AoEWhLbIbg8S76CK6p3DGgnOrwforDSB7NwffwxRAP6Ozux3Ran+rMHap4RIBESgvAkEVjVqrhI92HkcH2Df5lv8Yj68yrulVLuCEDDLT1OB0vKzm5Fd7qWD+520AL2vBZda3E5tIiACFUAgsCPCHXistRb113A0uJgLLFZAU6mK+SRgAtD+OP+3gy9R/8m8/7kBHtWfF4/k8zrKSwREwP8EAikIbWmlalSfR0u+10kI+r+T+amEWQHIUd+zNIC5h1Fe/ukH+MlDq3GPVAp+aiiVRQSKSCBwqlFaiYa70X4iPbm+xcI38YFWRFy6VFAJZAUgBZ+5O9w1Au+fWrHmEX5XDL6gNqrKLQJ5IhA4QbgTNy6hEcM9XGvqJBnI5KkXlHE22YDXlHbbuRbfPXF4X2rB2ockAMu40VU1EZgjgUAJQlOJ1qDmUgrCz0gIzrGlKyy5WYGaEQy3LmoNvsnFXW9tROcDjPwiFUKF9QVVVwRmIxCYOcJ7qRKtRe2xdO+6jGu2zVYvHa9QAvZmZ8GvGQemn/3kXvaULU1Ych8XrdV6fhXaJ1RtEZiNQGAE4fFY1gzEPkMr0SYZyMzWrJV53EaAFIAJLn30O8YB3ZLE4DdacUVPZdJQrUVABHIlEAhBaI7zezDyvhpEXi0hmGvTVk46U4OaMQzn/Z5mEOw7qAr9x1Zc/HTlEFBNRUAEFkLA93OE5ji/FzuO4YPuv1hYOs5LLbqQBi+3cy0YNvtGbwzJ/+L6kxsX4ZJfs46yBC23hlZ9RKCABHw/IuzGE/Uuaj8ZRWixYokWsCcELOuMO4STokP8Q5wL3BTDwNfa8dG+gFVDxRUBEfABAV8Lwr9gcxXnfP6Wcz9nSiXqg97igyLsN4Zxd3MUeI8Db3Mj1j7qg6KpCCIgAgElkLYv92PZGfTYWQF3KT+v8uC40nX5sZWKWyYbBdJYKslR4P2DXIR5D3ZvaMQ6CcHiNoOuJgJlR8DHI8IbamOovrgakcOlEi27fjfnCplLBDUDXVwWiaNAbGrDuj/POROdIAIiIAJTEPClIDSfwb2oOT4EXDCi5ZWmaLbK2TVqEepRI/BwDPHre5G4ZyU2DFUOAdVUBESg0AR8KQiPQ1UDDf8+STVYneYGC90F/Jt/RhUa6ufqEN+htfDnWrD+Qf+WViUTAREIKgHfCUIzkOHE5VmMEflaCcGgdquFlTtjEGNRQt1n6Bd4ay9w+wqs71pYrjpbBERABKYm4CtjmayBTArOx6YurvaWOwFThdI3kAYx+BXjya5pwO7rVmCthGC5N7zqJwIlJOCrEeF23F5TD1xEA5nDhqDQkCXsFyW5tKlCaRDDGKHJbybgXNuG9Q+XpCC6qAiIQEURMC2ULzaLINOD7S9itMj/ZoGatc6gL5qlaIUYtQrlYrnJ22kYs5W+gRoFFo2+LiQClU3ANyPC3fhrbRS1l0cRbtZosHI6JeODpqOE0jjqkSQS19Tj6LsdnJaoHAKqqQiIQKkJ+EIQeriXq84/fBLnh94qA5lSd4niXd/mAzkSjHPV+J9w0dyOBqz/SfGuriuJgAiIQIaALwRhD/7Y4CB1RQiRCFVjapsKILB/PjD1DernP92I9XKQr4B2VxVFwI8ESi4IH0ZHlGvHnVmN8EkjiPuRkcqUZwK2biD/Ohks+59cpK7nSLAzz5dQdiIgAiKQM4GSCkIaRTidaG8NI/XhnEushIEmMGoU8xQtQzf3Y/c/LEfHYKArpMKLgAgEnkBJBSGwORpF4t1RRF+gucHA96UZK2DmyaYO5eejMRrFNOLHX23EPdKDz0hNB0VABIpBoGQO9eY8P5xeXcJZJ1eJYjR16a5hlqFcPtcWEPktl066rAnr/sWRECxdg+jKIiAC4wiUTBAC/1QVg3deDaIHUk02rlD6UT4EMkLQZQN7Zhl6SSvWf7t8aqeaiIAIlAOBkgjCDnS4uzFwIIcIF1JNVg4cVYcpCIyGS4tx9P+DJOKX0jJU7hFTcNIuERCB0hIoiSA8D41VES6xxFBqi6UWLW0HKNTVR30Eh2kR/G0un7ShGZf+tlDXUr4iIAIisBACRQ+x5nE02I/Wo5JwfsKHZasE4UKaz5/nZoSgO0hH+W8wWswnKQSf8GdJy7tUdq8By0LbMBCuQlUohKTrooF/SdfhXyFq72DEGUSK+ceK/mwZWx+GbncceAWp49jrjP3uoIr1ThS03pxtH61XIa4TcuJwuQzsyNhqzfs7o4R5mfI6zDM/G12uwtEJWVlUasanCtEXPUx5EmWjV1HbWMPVa/jn1PNlvJEpmtgwjdzP+8DdxTS/7Ubsp9m1TQvaaBPKm/75DDYysHbkuhpE1imU2lSEgr0v6yjP9QO/FodzZRvWPBPsGvmr9LZMWSNSzbVw2vkyuZQvG0v5EFjCG7ydD/42zsk2s8R2w9fx5q+hWrqaN7k9O8xCnH8OH9Zwedw+C7B5juXNOeHCZJ9ziSkv0uXI+YQ8JDTBW/Bqj/LNQ3HHZMFSs9lg0FiH/GxcQcZoWJ78Lz/bVP3WCs7N2KevZS/iIf5Z8EarjH0bu9kvGu3Zrt8NI/bhRbj0h+NTjE1dgO/2htqNllUsno0GFVi7AIxLmeWoEOyjELxnBN6V7Vj3XCnLE+RrWxB6YFdzL1KH8rZelULyaA/OkXxeHcx6LeGN20TeUS5Zte9GtwcCBd/ov8x3Y2B7Mp/pj4L/L3u9gl9IF8g7gVGhkvd8i5Ph3Po5p+ZMIPYwmtkbi+pHuI1zg/VwbW5QgbWL0zOKdhUTgvzrpRC8my85FIJrdxTt4mVwocyUwZJFVOMcSxXPq3qx80Te1qvIdHGYAs/ecVMUaBwBjv7zaGaWSv+VQfVVBREoOgHzXee9RZWp892ijQjtRt/DuUG+v/6UD8oWzQ0Wvd0LdkETguxQfWzTf9uNwSufh49ICOZA29ScS+A8j1qdk5j8tRRxLyPH5Yy+EzZxZ4LO/gX7LT0HEEoiAiUkYKrUoo0In8RB0Vb0f6AKkRbNDZaw1fN86VEh2M+H9tdCiF8lITgzYA93VA+g78gUHAo+nM4ZjOP4cthiN2OcIs98auVXOzNDHRWBfBKwV82ijAg5Z+D04pZDqdj5OW94TvLbNKq2oBPIvEm5A0l4X+co5mO1uOjZoNepEOWnNiTch0WHcGT3BuZ/BlUxJ0SokrG5NBN6GvMVgrryFIHcCRRpRLglyofAudWItms0mHvj+DmlCUGOBoeouvtWP+cEl0sITmquPmxup6HmqX1InsODp1D4LbZEJvyGM1Zrk87RDhEQgeITKPiI0EaD3di8km/Bv7D5D5v30BZsAqNCcIQj/O+mEL+8CRseC3aN8ld6jv6ie9FEy+jI2by5zmKfP4J9P2LCT5qQ/HFWTiKQTwJFGBFeHQmj7R1RRJZrNJjPpitNXnyo20iQC0d6P+L81iclBDPtsAefoztD/Sv7gfdE4PyNTQGYytP8leROUJq+qquKQK4ECioIqQ51dqKuuRo4TyvP59ok/k03KgSTbNdf0tjjyiasedi/pS1Oyfpw62JGaTmdTN7HF4SXkVGtjf7sT5sIiEAwCBRUED6A28KHYfiMKoSP0HqDwegQ05XSdOgc5Vi4kAep3u5oxrrfTJe2EvYPYMtyvgyc5SH5dxSAx1IQRjT6q4SWVx3LkUBBBeHzMMIQT84FUg0Fv+vYvCDDFf0xjsS1Lbj4h8Gv0fxq0EkBGIXzNo733k8ByGgvCEkAzo+lzhIBvxAomCC0EFF96DyFD88TRrTUkl/ae17l4AOfwYhCTwwitqkNF//7vDIJ+EmmAgWSZ7IaFzBE4Iv4chcy9ade8gLesCq+CJBAwQThNmyLMrj2BYxAzojmmi8Jam8zIUgfwe0cCX6xFcvuCGo95ltuM4JxUf96qkDXkMXLTQUqAThfmjpPBPxJoCCC0MKp9SL8QhoOvGZYo0F/tnwOpRp1k+imELx7CMNbGrG6Yt5oqNGI9mEHjV/c9RSAb6AArJcAzKHTKIkIBJBAQQThY2iNtME5txbharlMBLBXsMgmBMNw6DCf/B4FweeW4vKBYNZk7qXuwdbDerDzQmoz3sWzl5kAVPSXuXPUGSIQFAJ5F4ScM3H24h+WMX7G2TGNBoPSD8aV09wk+C/J0Ae/5EKY17RiXUUE0d6LWxjzM3km1/W7mCPBYy34g5zgx3UN/RCBsiSQd0EI3B5m8OWzowqnFtgOk3GVcB8eQfI6Gsc8FNiK5Fjwu3FO6HU4mcGvkxtCCJ3B0V+d+b1SHapNBESgAggUQBB21yZQ814+VCoAX/lVcdQ45slhjNzShku+V341HF8jiwfKke87aRW7loLvcKlBx/PRLxGoBAJ5FYTmMtGF7adW01DGfKu0BYuArXXO2JhdVGnf3YLldwSr9HMrbQcNui7B4uOA1EdYZxsFVpsQ1CYCIlB5BPIqCIEdVIu67+WDRS4TAetLNitI/7hhzovdG0Zyo4PVsYBVIefi/hWbmtsQeSsF/4dpFrTK1KAyhskZnxKKQNkRoL97fjYzktmDxGE0NHidHOjzw7RYudicIAWhR9XggxQI19Xjkp3Funaxr2MWoYsQ/gyF/iaunrHKDLokBIvdCrqeCPiLQB5HhLeH6Xq9ugbRekYg8VctVZoZCVAoMHKM+zhdXW5pxSX3z5g4oAfvxwWRw/CCk114n6DYP83GgPZPmwiIgAjkTRD2IFnPkcVqzbMEq1PZvCDV2V20EP1/LTj2rmCVPrfSmiq0BZHVUbiXc9R7mPVRhUbLjZ1SiUAlEMiLIMzEFd3JuKKhoyQIg9Nt0t6CcEa4ZOxPGD1ms4PTEsEpfW4l3YObDmS/XMs1As+nCrRZ/TM3bkolApVEIC+C8DEaySwC3hXl2EIPmuB0n9G5wT9yluzGdly6PTglz62ke3DjMRGEP856ns0xYFjO8blxUyoRqDQCCxaEZiQzgltWDiP52hGKQW3BIGD+gvSd20Z/wTtbcMl9wSh1bqU0DcVebD+ZQvBTPOOUjDkMlaLaREAERGAKAnmwGr06NITkW2gk0yTruykI+3BXZm1BZzCG+L3NWPRlHxZx3kViwPfqHuw4i0LwJqp+KQQ1HzhvmDpRBCqEwIJHhNuxLFqDkdX21q0tKAQcjy8tD3PRZM4Lvrs3KKWerZxd2NzYA+8dDJb9MY7/Dlas29mI6bgIiIARWJAgtOWWuhFjjEbnxZobDEaHyqpEhxC/sxXry8ZVohc3t1G4nxtG+HJ+LlZ/DEZ/VClFwA8EFiQIuUJNKITY2VWIhOU76IfmnLkMo1aig8OI/5gjpjtnTh2co/24cQkVoB9kRKNL6CTfLO1EcNpOJRUBPxBYkCDsxUBDCuEzFFfUD005exk4N+gx8s+jKbhb27C2LFSindiynD4fa7l24noabnHVCKnoZ+8JSiECIjCWwLyNZUwtmkLkVbQ8PNQMErT5m8CoSnRHDKm7KQR/4e/S5lY6zgmuqAIu5kjwYoo/CcHcsCmVCIjABALzFoSmFuXJZ4fpO6jN3wRMJQp4MRqP/CaGkTv8XdrcSjeIWw+oQmgdw8Ot45xgrXwEc+OmVCIgApMJzEsQcn7J2Y3BRfx8nSzzJkP12x4Tg4wl+gTXW//yUly+y2/lm2t5TB3KfreG562lEKyREJwrQaUXAREYS2BegvAenOMyisyp/Fuqh9BYnP77bj6DVIv2DCP1g8dR813/lXBuJerDrYurgfNZJ40E54ZOqUVABKYhMC9BeA5ew/lB52x7yGrzO4G0z+CjEeCLJ+DCQIf+6cHGVg/J93ENwUuo6q3XS5jf+57KJwLBIDBnQWhqUa47uJQre58qa1F/N7IZyHDUvj2FxNfqse4P/i7tzKXrxHUNHsJv58vXZRSCcpGYGZeOioAIzIHAnAUh0OG4SJ5WjWib3sjnQLrISTMGMohzVYnfhxH5SpEvn9fLedhcFUXNm2mY9RHqIBbLRSKveJWZCFQ8gTkLwgdoLcqH7FukFPV33zG1NV1bnqG7xFfrsWaHv0s7feksgHY3nFeHELqC/Y5h0+SqMz0tHREBEZgPgTkJQlOLLsXIEkbvOEUPpPngLs45Nhpkww5xNZDftCH878W5amGu0osdL6F69zLW6RhZKBeGsXIVgUonMCdBaGrRWi5rUyW1qK/7jY3WOYJ6ik7mX3Gwpt/XhZ2hcHSYX8V6rOec4Kup4p0hpQ6JgAiIwPwJzEkQmlqUKrc3y1p0/sALfaa1DZ3M+4cR+3kX8N+Fvl6h8t9Nh3n6Pv4dw6adY3OC1EZoEwEREIGCEJhTrNGVGKL5ukO1qN7OC9IaecqUwvBJhh37yuFYN5KnLIuazV+4nFIIibdSHXo+BWCYwrCo19fFREAEKotAziNCiy3KuZqXc623ZbIW9WcnsdEgXSZ6R5D4ST26furPUs5cKvaz8CJ4pzFw3zoKwmb1tZl56agIiMDCCeQsCH9EL2bOPZ2u2KILh17YHLynOKf2rw46Ajls70Lji9nH1nBu8HCtKVjYnqLcRUAEMgRyFoTHoLWWKqrTZC3qz66THQ2yfX76e3T/0p+lnLlU27Hp4Aii76Vx8mskBGdmpaMiIAL5I5CTIKQAdOi9dSwftocm5ceVP/p5z8l5mr6Dd50WwNGgRY6pReRNRPIe62+aF8x751CGIiAC0xDISRACVzsROjVXI+LKbGEakiXcnRkNhvpoxPSLPyESuLUGbf45gpqXu+lV5p1GzQuWsDPp0iJQgQRyFITmNuH9jR5Q/u0hNC7ZxkAHXwtiYO09aD0qhPC5LkJHS/Xu3z6mkolAuRKYVRByBOj0oHcFnbOP1byN/7qBRZGhpejgEOIPtqLpPv+VcOYS7cUtLdQ2vJlB3M9U/5qZlY6KgAgUhsCsgtCiyTioeVkVIo1yay5MIywkV4siQ5/B5zhi/w8H5w4vJK9in2sq0RTiL+fL1nkU6NWaFyx2C+h6IiACRiAHQbiKhgtJ+nXZI1ebnwhYi/AvNoTEo01o+oGfypZLWbrQdGQEkXfRXeIIjQZzIaY0IiAChSCQgyDcFmU0mVfoQVUI/AvL09SiEYR38UXluxwN7l1YbsU9m3FEG2nh+toUVaIJWSIXF76uJgIiMI7AjILQ5gf7ET2EZxyuNeDGcfPFD7ZPKob4Uw687/iiQHMoBOecj2NM1PdSrVsrlfscwCmpCIhA3gnMKAgZoYRRRZMvrUGkSvM3eWe/oAzNZYIjqm76d97XgkufXFBmRT65C1tX1iB8Ji97vOLWFhm+LicCIjCJwCyC8GpOQTmvMhWcNn8R4GiQrynedo6ovuWvks1cGg+3RUJInZhC8u0zp9RRERABESgOgVlWn2iNsBgnaH6wOI2R61UyLhPOIEdTv++C89tcz/NDuj2IH1EN9xy+YC3TaNAPLaIyiIAIzDQidHrhHciRx2FypPdXR7HxOS0td/Hze4djfWCWWtqBO+toffyqBLzTZSDjrz6l0ohAJROYVhDanCCtRY+tRljGDP7rIckRxJ5m3Ncf+q9o05cojD2rwvBWU51bLwOZ6TnpiAiIQHEJTCsILb4oLfteyqglxS2RrjYjATOS4WhwbwruzxZhw7MzJvbRwW7c0RxF5JQkvJOkavdRw6goIiACM0m5VYwo4xwvtagve4mpRb/vy5JNUygP/S/gobdRiEdkgTwNJO0WAREoCYFpjWX6sKuZD6yj5D9YknaZ8qI2N8iXkxGuQP+XBEL3T5nIhzt7cXMby30q+xMNr6hn0CYCIiACPiIwpd7THOm5ksGhNGxYwsgfPipuZRfFrEXpO7iHc2z3Lcaa/qDQoGHM8+nscRb7U0ijwaC0msopApVDYEpBaB5qFH9HVyHMB5c2vxAwIUKhsott8yO/lGm2cthokBFkTmE/epFGg7PR0nEREIFSEJhGEJojPY6zEYg2fxCwtqDh0hANTf7YhNTD/ijV7KVgeY+kgc/fajQ4OyulEAERKA2BaQRhujAvlKFMaRplqqvaKwkNTfbw46dOQHwHu7GpmWsNvpwahhdrNDhVq2qfCIiAHwhMKQj3oqmR04SHyFDGD02UKYP53VEt2glEfuKfUs1ckgTCh3HV+dNlKTozJx0VAREoLYGprEZpKBNeyRUNlspMprSNk716Ri3qDNEH79EuJP6U3e/nz+dwW20E8RfxZepEP5dTZRMBERCBSSNCM8hwkTyChjLy9/JJ/xhVi3bThOmXQQmp1oCRg8NwXhtFqE6Woj7pSCqGCIjAlAQmCUJLRbOMVYooMyWvkuw0y12OrPa48H5ekgLM8aIeOsIJwHxQT5F6fY7wlFwERKDoBKYQhFdTNYrn6y2+6G0x5QVtNEiLyxHODz7eiPgjUyby2c49aF8WRvgk+jsukcGVzxpHxREBEZhEYApBCJdC8HDOR01KrB3FJzDqNtHLK//WweUDxS/B3K/oIv48qnFfPfczdYYIiIAIFJ/AJGOZPixqAlIH6E2++I0xwxW7GeHnVzMc982hLmw2i+Pj+DL1fC635JtyqSAiIAIiMB2BSSPCBGLLmXiRlsmZDlnR93PJpcTOKkR+X/Qrz+uC7koayJzEUHAytpoXP50kAiJQbALjBCHf350wogdFZTFa7HaY8nqZJZfcAY6uHr4BnbumTOSjnR7uDjlIHUJtwokykvFRw6goIiACMxIYJwgtJecGD6WRw4wn6WDxCNB6t4et8UAHOnzv1tmPrjaOBI+ngc9yqdaL10d0JREQgYURmCDx0nM6hy4sS52dLwJmuRtDsjcOPJivPAuZTxLJFRSCr6DwNmNXbSIgAiIQCAKTjGVY6udpfrD0bWeSxIEbp4rxmV4MPVb6Es1cgvtxWySJkUP4KvViunvMnFhHRUAERMBHBMaNCB/A7RSMqZVSa5W+hcxtIgK3nyLlkUNxRU/pSzRzCQ5EgmpR9ziOBtvkejMzKx0VARHwF4FxgvAIdDV6cBZrROiPRqKxjPkPBsJalLFpl7O8L9H8sj/6jkohAiKQO4EJqtHGNlr9NUsQ5g6wUCkz84OJPub/h0JdI1/53suQamEkqUlwj0lJLZovrMpHBESgSATGjQiHkVjKt/oaewhrKx0Bm2Hjqu6cH/Sea0bVE6UrSW5XPhL1zew3L6Q6l9oE3xu35lYppRIBEagYAuMEIeNDLqcPYcVU3q8VHQ2rNkiB+GcHF/p+frAB0cVcc/BYqkUtTq02nxHgSwq4mgxqEU1/2m9tIiAC+wmMk3pc3WCFbpL9cEr5jZaXNJRxfR9km4LP6UFyKRfv4ohQm98I8AXFitQTR+LHMTj/y+9cWcY5mS9bNGrS6N1v7aXylIbAvhGhPdBoKHNAaYqhq04kwHnafg/xP07c77ffO3F9LdfHOJQq0YP1YPVX6zDUnYXGeIz39uVcFuvdzVj3yT7E30Wr3s9RED6XPuqvIqs0IlASAvsEoV3dQXK5VFslaYdxF2UbpIaR3JtC9PFxB3z4gy4TrXygruLIo0pzy/5pIEb4YWGch+LwPtGA9n9uw3qzQMZKbBjix4+o+XlII3gjok0EzCZj3OYskbHDOCBF/5GZH3RG6I7w9A607yx6AeZ4wSQii1jmVVKpzxFcgZKbcLORID/v5wj9Y03Y/XUHq2NjL5dCMsaXlrheesdS0fdKJrBPED6CjghnDLTqRIl7gz3IaDE6REH4+AsmPMBKXLRJl+fD1InCXURV2xEKsj0JT9F32EuUzQlyiuMnHAle0YA133bQQa3oxM1pDCFUa+m1iYAIjBkRHoCqOt4Y8iH0Qa/g+zwX4PV8H1YNuIHzg0lbhHeZfE9L23FMqNk4kG3x/RGkPtqMtf/DfdMM+pwmpqsvbYl1dRHwD4F9I8Iq1Dbw4dugeZ7SNw6FyiDn3XwvCLsQov9g6DDND5a2z5hamq4rSd67X6fv6RVtWPuLmUrEm76Gx6tmSqNjIlBJBPa5TwzBa+YbZO00r5CVxKSkdSV/LwaLKJN8pqQFyeHiFIIt7DOHa34wB1gFSmKWnxRsMc7tf5X95rpFuHRWS2NOgdCwiaFstYmACKQJ7BOEVKqY9V9YJvCl6xmZ+UHEk8DOOKK+X4gXCDfzgXqI1KKl6TMW15X/+sn/H5OIb6IQfLI0JdFVRSC4BGxaYZ8gpC9Yq91YEoSlbFC60CM0kkD82Xas4TyhfzdbdsnFEK2MQwdIi1D8djKjGI7EuzgS3DqEwVsX4yM7ci0Fe5lFLRrJNb3SiUC5EjBtFl8kvX2CkD/b0kqWcq1xAOqVGRE6w3xDeYbffS1fDkE31ei1K1lOGxVqKyIB8xGkOnRbHMmNKSTuoBDcO5fLU3hup2nNbjOt0SYClUrAwonyXhhOIPnufYKQqwZw5QltpSbANxRzeH661OWY7foUgg3UIKxkeUN8IM+WXMfzRCAjBJ0/0V3ls41Ycjd9BK2/zGlLoe5hjiJ/VwX3ROZXX4r22/+smeqbBfeYuH/sHjtu2/40k39l9oxPYfsmnpXZN9Xeqc7Npq7kT3t9mshm+leq6Y9MZJh7ysyZ8zHstF5ko0A7N47UX6h9+0gbLv2PrCC0erVMLJh+F58AzdptRLit+Fee2xXptN3ADmUjQm1FIGA3sE1dkPf9fIP9TAO6vuNg7RQ+grMXph3n9XXj1q30//T4SHh3FSJL6XqR16bMPNQyjyr7v/3OfGb+b/PK3Gf/pXjhJA14+Okk7Dv38bdnb1dWv32fPJbgCfabf07Sftv59p37+Wnf0wFU05/ML8V8Uhw9p+hbyXM8JrNr7vvO/Xbc4Yl2zPJMf/K7y/SWLfemj9s5TL5vc8guXb4x+9Kp+dvKnr7WvtRTfWFCpkuXd6rDOe9j+RhGyGM1c92cEOsdsnpNdQbrFeLAiHkaxvGbHeOeSdciX+Y3uQy8QJh8eVpmG83RdmRlT/aQfU7Km+VkUmeqtG6mLPurYPXhL5YD7v69Y7NPf+/ltMIT5PVzCsHvt+DStDYlfQE7qQeOBOEkZsXdYY+GESSGQ0huL+6V5341Riehq42zMq2km/vpOmMOBEz80QGeN7n3wxiSV7di/U/mcPqUSVtw0ZMe7v7YMLpuYUDuYzhheCgfZIv4LDDL8UkPHj5cuKWFhD2804KH5UpQmCYZrJ8CzIlTmPDTi3M/I9eAkWsyny5S/J39bp8pWrl6lj4e5h+jE/HPi0fSn/FEFUIUeEkKw0SyEeFEJ5/LCXSmWMbUIP9oRZY6Nf2U7rCnpD2+tInAggiM7fCc61GfWhDNBZ/s2JtwD9eF7FpwVgXMwN7SurClkfb3NJZRnykg6vRsIAULhUrq36kOvZZC8Pf5uh7VqibUnhz9y1e2ykcEAkdgrCBktAltpSLAN2p76MX5st05hIF0gORSlWX2614dcdDWxv7SKkE4O635pjDLUKos+5JI/nMSiU1U41Clo00ERCDfBMYIQqdBD7V84809P1M9mXqJH53PQ8dw7meWIuXKqjAG2ikI66nyKkUByv6ao0YxOygEb6b27/ZmXNpZ9pVWBUWgRARGBWGHTZ7WSTVaolYYvSxnoG1uxfcPvH7EGKLLWUyVXUh+p/ntM6YZGHWP+NMIktcPY/iupbjc1z6l+SWg3ESg+ASyI8IoL01BqK2UBChYRmh44PuIMgkM14ZRtchMxyQI89dj2P7pOUEajvxyBN5nWrDke82Zebz8XUQ5iYAITCKQFoQ9qLLYgzUaEU7iU+QdZlEX9r0gpIVFTZQWhjZ60ZYfAmZ9a0YxdPD9Nk3Mr2nFuvvzk7NyEQERmI1AWhDGuLo4LQC1wvhstAp8nHO0cfqI+dpi1BDQhKOaZWUkIgnCfHSJ0ZihPWz7r9BieNMSGcXkA6vyEIGcCaQFYQSuLcli6lFtJSJgo3E+CGNhJPeUqAg5X5Y+hNX0WZW7Tc7Epk84ahTzNJdP2kzXuzuWYIPv23/62uiICASTQFoQJhCu5ogwojnCUjaiw3AU3kgNquYUN7IUJebcYBXVd42TwkuUojABvaaplUcjxTxAy9DPMlLMf3I1+VhAq6Nii0CgCaQFIUch1R5c+oZpKxUBsrdwTwNxDPSXqgy5XJdldHuxuZYm/TKuygXYFGnGzAd+lzyvacL6X0+RTLtEQASKRCD9Up/knA+vxzhvGhMWifu4y9gLCP8sbFV/PWoZRcq/2yO4Okw1Xh3nCGVcNY9mMlUo/+0hvy10kr9YQnAeEHWKCOSZQHpESAlYZW+pMoXPM92cs0tHRGfMRjCiTNjX68Q1ojFE+8YaCu6oXptybuC0WVFmDUH3TzEuokvL268y6r3PIwjlXj+lFIEgE0gLwhRczhE66VDoQa5MkMvOCC0cEab6HFxo0WV8u1XxnYk9xRzqOa2sLRcCDJNmzhFJzgH/KI7YNc3ovo/zgZxm1SYCIuAHAmlByLf7KvmEla45TDXKh2WCa8r4en7QCIXRxyhEtRSEXtjKrW1mAqNWod00iPm/tAq9qQUbHpv5DB0VAREoNoG0IKRSlIIw/bXY19f19hGwlSf8LwhDiFIQmruNVsDZ13RTfMlahfIQVaGJUVXoBqlCp2ClXSJQagKjqlFUyTm6tE1B/glbaaC0pZj96g7qXBfxtKuNreGjbTKBjFWoyzX3kj/g0kmfa8H6n1Ewakp1MirtEQFfEEhbjXIGQ870JW8Oz1bc9r1q1IEt+M240Gnzj5JD810BRl0jdlMI3tiH2EWtuPinEoK+ayYVSATGERidI/QoCDXjM45M8X/Yory+dp0wJCYIqRrl/KAGOBO7iGlVeBftofX11iSimw7Aup6JafRbBETAfwTSI0I69UYlBkvdOA5HhEEQhGGH5XTVXyb3l7QYhPMTGsZ8vRUXSghORqQ9IuBLAmlByPd8WcqUuHn4MkKdY8j3I8IhDLDPOHQ91TaRAN0jvDgSOyOo2jHxmH6LgAj4l0BaEPJNVj5hpW8jqkZTPl+Z3iDRc0J6dGMwaaOxkxNFeNkQBg+YdFA7REAEfEsgLQj5P73hl7CJbLaNo4lUCglfR5UxRDVIsLiOnMGn6C8c1du/V9Qg+sYduL5uiiTaJQIi4EMCaUFIM3ipRkvcOKYaDfk8vFoGkUVWo8zWNokAjZ1sH9dpdM+vQfX7JQwnIdIOEfAlAY0IfdEsNpJIeTS59/0yPAMcEfKBz5UytE1FgH6D/OcdxCWWPlGH6st34sYlU6XTPhEQAf8QSAvClIwfSt4iJlz45+s4owapBoMpWo3GTXRrm5rAqDBcwlUmPlyD0DWduPHIqVNqrwiIgB8IpAUhTeHTn34oUCWWwUQK/5IRRH0vCPs4P0hVugThLB3VhGEcyXqqSf+uCpFNvbj55bOcosMiIAIlIjAqAD3NEZaoAeyyo5FHOCKMM+62v7da1FIOegwfxvUy/F3UkpfOGCWQ5God3ul0tt/SjZvOuh+3yUK75C2jAojAeAKjgpDhI7WVkoBFsE5w5OD78J1cTJbLRTnDFN4sq0ThbJ3GRvs2OuR2fBWi1x+JxPmd+HLDbOfpuAiIQPEIpAUgDTX0llo85lNeifO0qT0Y8b01ZhwjjICTGuKo0Pej1ylBl2gn1aS28PWh9DXsqMLQFZ3YsrxERdFlRUAEJhDIjgSznxMO62dxCKRnCb1mRH0/IlyCqgSl9SBL7Pv5zOK0Xe5XoZrURoftFIaXch2ra/uw9fm5n62UIiAChSKQFoBUcMmhvlCEc8g3M0doLglDvh8RWkxprlYyyD4zrLenHBp3QhKOCk0Y1pDheziqphHNTa+YkEQ/RUAEikxg9FmmOcIic5/ick5qAOas7vftUxSEyQEKb8ZF1RzhfFrLjGioKGXgcuf1DKKwmRalMqKZD0idIwJ5IjAqCD2NCPMEdD7ZZKSf+RG6vh8R2uiVFpBDFIH9tuyQtvkRsDa3eUN+Hk/n+xsOR/yCLmxunF9uOksERGAhBLLarVAAhiILqafOzSMBLx0KzumRGFw41IwRjXcIhWFHBO5HZUSzcKbKQQTmSiAtCCkEswJxrucrfQUS4DwX5wedPRwdVmDt819lM6JhYLZFGSMa55rd2CQjmvxjVo4iMC2BUUHoyX1iWkSFP0CHa/MjTCbR73vVqNGgsccwC9pVeDKVcwXzNUzAoxEN3htF9AuKRFM5ba+alp5AdiSoV/vSt0VgSuAiOsiO02lGH9ryR8DCdXPW0CzXTg/BvYmRaN5yPy7QS2r+ECsnEZiSQFYQMsSaHmpTEtLOSQQiGBri6KXTVmTXG9QkPAvaYcHMTVXK+/EljDR0w5E49v0ettYvKFOdLAIiMCOBtCDkXI+eZzNi0sGxBAZQN8xoRCYIuZCwus5YNvn4bq+ksfS8oXcYR4af7gcu68fWpfnIW3mIgAhMJjA6IvTCGg9ONPm55gAAOBNJREFUhqM9UxNYhpYR9pfOELyerEph6pTauxACGYvS5GIyvpy8P815wyMWkp/OFQERmJrA6KoTGhFOjafwezPjqfT/U/VoDoSxjIPVyT24qZuahE4uM7TEomhqKwwBM6Ih41pa6VJFimU92PyZJqz/db6u5uG6hkHUHsnAsUdRHdvKDki56zCwOm23aMDFAOtJXjvhwuNvlztTjIDkcZ/L3076O9Ol+FJkaa3/8s/2WyQ++7R9Lh2VQ0yfSFlcvjDC/J7ybDFqSx/JnEelsJOKZfbxe5LH7dywx3B06WMeuOgJ7JdtmeOWLvPb0iRGz8nuqUnv43W5f3ywCo8ridXSb5ej7XFbHaqYNsSCxfblm03gYYTH7B1w/JZkOZPMawkGWC9qttHBoBO8tLbAEEgLQnZsLcNUwiYzJ3XeN1PeZCUs1oyXZuBtOtRHnuVD8ugZE+rgggmk17zn4tn0NXyzg9CiPdj897/Hnu+dho55Bz5nh3O6sOm0XkQ+zHxPrYJTO94dJmOjk3maj1+GeeK+7NHMfquu7cmen03NWWUescgdJrDSH/yffcbTR+xrigLThKfp213OP5sgtNrTrjotOM3dOZFVxvM7b5nsL57tUGiyP/Kc7JYOh8s06fP4md3sxdM1yZ6qzu4a/UxRALL0lvGY9NlEVqYa5m/36/4tzEW1w3xh6EE1L2jTBVsG98LrZ6Ie/nXxajtZru2sz7Os+3MRRHbUoJNW159iYIrxee3PVd+KSUAjwmLSLqNr8ebu5U38dBlVyddVMdFiRjQRhE6sRmjj8Vh03Q7c+W9L8d6B+RS8B1uOr0P4I7T8fb3lG5vquT+fjCecYyInu435bl9Hf47ZO7ors2fsfkvM6KzZjKb9HH/O+GTjj1l+028zHZt8VjZ1Ns9MWTO/svtMcppIj3HkOIJUXwytuxzc/NRebPkzz3+Y7fAwjaMeq8HOnc4CXnAml057ciGQFoTsYAqxlgstpdlHwEVtbwKJZ6ii2rdPXwpLwB6mZkRDYXgER07X1qB3+Q7cevtSXLRrLlemUHU43/hKqjlfaC4whXSDsTLPvM2eInt+7imzZ8z0md/cZrrS2GMUjOYe0+Qi1ERDqMPZjq+xlxy2qxdDYk8MbY+zbR6k6P+li9QD3Yg/thIbuOyZtkIS0IiwkHTLOO8eDAzUI8QRocOVKJxau5m1FYeAGdFQnbmEfx+tQXL5LmzcuBgbHsv16tuwqboOoeVssaZcz1G6/BCw+8TuFPMYzbjJZPLlqNDhvGsbhaP9vZSpLuQofbABkSf24uZf8h77YRTuL6qxc5tGjPlpi7G5pLUNhE4luh5kY8Ho+8wEVuBSW6Xe5gh38q125sQ6mncCZkTDEV092Z9fjcj1e3HT8blepApVdr9HmT59/+d6ntIVjoA9fS3QHkeFGOL/h9PLfXq1fNk5uhrhD9Cg6F/5AnR/D9q+wxHjhj248RgPHdaG2vJAIHsjZD/zkKWyqAQCFIK8d71uvsU+yb9KqLLv6mgPTgrEMPmfSXXpTZz3e72Hu2ed5hhAZ4LtN8wKSa/tu1bdXyBTWdvo3wTjCFuaN1xbFKHXRhH+Aq1wf96HRT/oxdYP2wLPHm5TBKL96Ob8LfsEy37OOQOdkB8CfEPnMkyhMRZv+cm3sLm4e9hxbLJfW4kImCYno2JzXhlGaFMfdr2bD8XamYpzsE01wtnL0bwtp6UtIATM2MYEoglGbnUcLZ5MdekN7AM/70X86z24+T19uHUxR4p6ns+xTbPAZn2LnGO+Sj4HAhmltOOlUJf5OodzS5m0B6G9caQei9M/TA/U0rWEdRozouED8fmcX/pcH2Lrt2Nz+3Ql4hxTijc+X2Kcfo4Mp0um/T4mYKPFjFA05xOvmQLxzVSf3km/yl9wpEhV+ZYTpDrNvQGzglB3Q+7MlHKUwIHY1ceHsBlpdPGhKi4lJmBqNI4alnJk+PFaOFftxS2HTFcktpYJQfNjmy6J9geEgAnFYY4UR9j+bM1DqD7dwBeie/ux6B7OJ57l4fq6gFSlZMVMC0LeDOZxqk0E5kTArNcoAOko7D6hecI5oStY4sxyTqkGPgg/6CLJkcHNL57qYnRLN/VplalWtZUPAWv/Ic4s8oWoni9EZ/DZ/rUB1PwP5xLPp1BsY3vrzWeK5s6OCKc4pF0iMDsBeqHt5kP3IY0IZ2dVrBRjjGjeyognN+7FZvqq7Tei2cYHIv2mXsTQeMsL6UNYrPrqOpMJZEaJpiNIMn6m8zJaF99OCXgfheElO3HjEgnE8cxcvg/S/E8h1sZj0a9cCaRQtTuG+COco2J8Rb1s5sqt0OlspDfqp3YSY3ve0oMdl3Vh4ws66WbRAO9TfHF5O8tQY+m0lS8Ba12bPza3DN6fL6DF6cZaRH7Ui1su6cM/tksgZto+OyLUE6x874WC1qwF222e8FFeZLtGhQVFPefM7SFoYwKO2g+n6vpzLsK/icD9GR+I6zhiaLcj2iqHgPUF80/kw/4oGtdsBIbupaXphXtwW8UHVsgKwuxn5fQK1TQvBMwCkcGOn6Mp90P8y0ueyiS/BGzeyP7xRaWGvp9VaZMaCcH8Qg5QbmME4gvof3prGInv0cr0nOfQMaPbTYCqOOei8snVwRcEjypSvR3OmZ5OSBNIILaTI4wHNcLwb4ewu9vmjXSX+7eNil0yE4imMuU8MucQ3bvqsejfuLzaqx6uwIg1eoUvdu+b5npsiMA+oxahp4sP2d9zYt6ctKepoXaLgAj4kYD5I1JL4HJ0SF/EyHcOpB9iN249uJIc800Q8s8ZDb7tx2Yq/zJxtTU603tch+2ZQApDqkdjDAD1V4Z9onpUsRnKv8eqhuVGwHQFNn/ICLYNFIjro/B+0INFH9hRIT6IGhGWW48uUX1oifYsBfqvpHwrUQPosiKQBwKmPs/4IXqHUWXKWH3V9+zGzS+7v8xjmVIQLrPoyRKIeehElZxFDdo6GcH5fipZpB6t5I6gupcFAVOW2l8E4dOr4X7ncIx8bC8+21IWlZuiEhSALTapI0E4BRztyp2Ag9UxjgYfo3r0QalHc+emlCLgVwI2T5NRl6Zao4hcHUbjN/pw88nluNKFBKBfe2EAyxVG8hmqVn5m5vnaREAEyoOA3c8mEGkIdxJr9J+9SHycwrCsfA8pCAdcDgkVa7Q8+mxJa1GH5Ywyk/o1xeCzNMcuaVl0cREQgfwSGF0TsZHO+B0D6WWfNr+UlqVlYWjpbkO3qUZl857fPlORuVE9mqT4e5yT7D+Tc31FdgFVuswJZEeHnAJ5tYvQt/vR/sHZ1r8MAhK9tgehlQJUxiRCT/NmuY/OuiOKPRqghlNRRWAOBExVStfnRRQgW/oR+1I3NgXa79BdAXuJt6DbgXRhm0PTKWkxCCzGGlvn7kGqGH7PuJbFuKSuIQIiUAICFrrPotPQsvSdYUS+vQfNrw1qVBo9qUrQgcr9ksNw/so1Cn/AuUK9XZV7Y6t+FU3AbnDzO2RQ91VViNyzEm3rnwPdDwO2uZ0Y4Ms7l6zSJgJ5ItCOzl1DiP2MFqR/lStFnqAqGxHwMQGLWcr7nQtCh66vR/yWTmxaRneqwMgVN4RWjgodW5dQmwjkhYCtSMF1zx6lwcz3pXLIC1JlIgK+J2CGNHEKxChC76tG9P9xRYtjxi4I7ecK6Dnl59YJcNkeQ3TbMBL/w+iFu+RKEeCGVNFFYA4EsqpSvgS/gjYC3+jFrtcHwQGfPoRVHL4GZwg7hzZR0hISOAEXxjmJ/gfeED+QK0UJG0KXFoESEMhYlboH0Qn/q90YPvev6KguQTFyvqTrpq1GZd6XMzElzJnATiSejCH5XVqW7QnJVTVnbkooAuVAwNSkHGTRAT+8tRltH/WzEY1Uo+XQ43xah8OxfoRLuvyWE+jfl9GMTxtJxRKBAhIwExrOHYarEOqoQ/zznbiuoYCXm3fWbh+GpRqdNz6dOBuBHUg+EUP8P2lVplHhbLB0XATKkIAt7UTNEI1owmuiqP2HXtzcxmr6yqKUVqMpsxrVaqpl2AH9UCUbFSbhPcCb4NsaFfqhRVQGESg+gczCvzHQ1/D/8Ps/9uPGxTSs8Y0wlGq0+H2i4q74FGo4Kkx8k+ubbZcFacU1vyosAvsI0L/YhOEZSYT/eRBbfONrKEG4r4n0pVAEzILUQ+R+Rpv5d1qRFeoyylcERCAABDLCMPx6mtJQGN7sC2FI1WjY1KJahikAHSjIRWzGzqc5V/hNqkn/TAOaIFdFZRcBEVgggdGR4WtScP5pN25cWmo1qUaEC2xQnZ4bAYs2E0f8QRfeVzl5ntTKFLlxUyoRKFcCJgzpa/xa2g98eSdubS+lMJQgLNde5sN6LcXlu0boV0j16E81KvRhA6lIIlBkAqMjw9NrkbjlaXy2uciX33c5OtR7Jgz5Z8FxtIlAYQnEUPOHBLx/oX9Rj5zsC8tauYtAEAiYMIwicnYjar+wA3fWlaLMFIBhs16QBUMp6FfgNZfjwkH6FN1HIfg1Lt1SgQRUZREQgYkEhikMGaj73Grs/ZSHO4oejk1Pooktot8FJ3ALuh+nivTf6E/0sFSkBcetC4iA7wmYPnKEIdnoa3z5XvRfxFUrosUstARhMWnrWmkCHTScYYzbX3tw7qDhzLBcKtQxREAEzOneotBE4Hx2D7af6eHecLGocI6QHhTpOcJiXVLXEQGgBZfudRD7Dvvf1xVxRj1CBETACNiahpypq6I16dZe/OGEu3F3UXytNCJU/ysZgXr0/GkEsTsZlvcRLuZZsnLowiIgAv4hwNVqqCJ1F1Egfvm12LWCI8WC27BIEPqn/SuuJOZbSGXELxhh4nY62vfLirTiuoAqLAJTEhjhWvcMxbYKSG3Zjc/XT5kojzu5MG+i4NI2j+VVVmVGoA3rex1436L7zlcZgk3my2XWvqqOCMyXgLlV0JL0byOo/mihjWeyc4TSS823tXTeggk0Y/3jVIPcQRUIHe2LNj++4HIrAxEQgcISYFhGPhHCH9mLZ998LzoK9nCQarSw7ajccyTQgMUP0GLs5hRS22Q8kyM0JROBMidgVqTcIoyJfdPRWHxooeYLJQjLvCMFpXoOVsf64fw3XSq2Uk06JCVpUFpO5RSBwhIw4xlGnlkRQXIT8JXaQlxNgrAQVJXnvAiswNouWpDeQzXpv5ggVGDueWHUSSJQdgQy84Xh07vRvc7DbZF8V5DGMhk/QkUazTda5TcfAjZfOIzU7RSC/6WoM/MhqHNEoDwJMDQj5wtDn+hD/AQPHXkdxOU1s/LEr1oVm8C9+PGDDLd0E1/Ofs8lWop9eV1PBETAhwTM2Z4vx/W0I9i4F02N+SyiBGE+aSqvvBBYjXuSrWj8URLJGzg5vk0jw7xgVSYiEHgCw7QirUH0RC4WcXE+VaQShIHvGuVZAQfnDqeQ+FYS2Eivey7ZpK5ani2tWonA3AgMMzg3bQgu60XiRflSkXKO0AnRo15Pmbm1hVIXgYDFI40hdhetSLeyj47IkrQI0HUJEfA5AapGGXXGVKTJzwHL8rJkEwVg0imUb4bPeap4ASDQjku305foSxwV/iNf2lKyJA1Ao6mIIlBgAkNUkVYj8uoexN/NqDMLDgijkWCBG0zZL5xAM9b91UV8C1/Y7pJbxcJ5KgcRKAcCCY4M+Uy4cg+eWU7DugWFCpUgLIceUQF1aMClf+Sc4fUcEf4HI9PLx7AC2lxVFIGZCCToTlFLR3sX4cuB2xZkXq6g2zOR1jFfEeCc4e9oQn0NC/XdSFoY+qp4KowIiECRCZgVqYvQeb0YouHM/JdrcpkN9auORoZFbkBdbn4EqCa9fwTJT1MV8gML0L0gfcj8iqCzREAEfELAlKNVCNem4H6Sq7nNe1QoAeiTBlUxcifQivW/osO9LWb4QwnD3LkppQiUI4FhLtdEX+M39WL4b+brTiFBWI49o8zrxFGg14qLf8ElWq6kOuR/zOFe1qRl3uiqnghMQ8DCg9LPOESf449vQ2PVNMlm3C1BOCMeHfQrAROGbbj455wj+ASF4fdkQOPXllK5RKDwBGyukOEYT6pF+E3zGRVKEBa+jXSFAhJYhEt+leCbIOcKvmXRZzQyLCBsZS0CPiaQufu9y4BVcx4V0mo0bBOMEog+bmAVbWYCzVj7WxfexzlIpGet69kNoU0ERKCyCNBuwAxnXtaDnW+c66hQAtA3fcVx2tHum9IErSD1WPcHxiC8imrSOygM4zY61CYCIlBZBLisIN3sU5cAB0XnUnM9LeZCq0BpuSq7DWHc3ajWUGYBjNtxyZ84Yf5pWpNupvnMgM0bahMBEagcAiOcK6Ql+St70XtqxxzWLNSTonL6SEXUtAVrn3Iw+Pk4ktdSRdqpJZwqotlVSRHYR4DBNhy+DK/51Bym/CQI9+HTl3Ih0IDLdzWhbgtHhx9z4T6uxX3LpWVVDxGYnYAt0xRC6LU70HxcrtFm3AQSFrnbrNFnv4JSiEBACDg4r68B7V+hWfWlLPJvTBjKojQgjadiisACCFD4mdFMVQ1C7wfuyWmwR6tRGtktMHL3AsqsU0WgYAQcrI61YP23hpBYyxil36IoTMmitGC4lbEI+IaAWZBStp09hG1LcylUTtIyl4yURgT8SMBUHYuw/tdmSUajpFs4Z9iveUM/tpTKJAL5I8AXX65XGG0fQeRtubhSSBDmj71y8jGBZqx/nCqTjjgSV3JU+HQ0HZbNxwVW0URABBZEwNYr5Hvwe/i/WV0pJAgXhFonB4lAI9Z27QJu5Wz4h1juX4QtQqGc74PUhCqrCORMgC+9docf14/Wl81mNCNBmDNWJSwHAodj/UgdPvRtziFcwLBsX6EwHDKBqE0ERKC8CJj5J41mXFqPvxO4ekYfbQpC2stoE4EKI8DVKx4aROiyJLyr+NZIVamsSiusC6i6FUAgxlEhX3j/tg+LWmaqLqWgG5JZ+UyIdKxcCSzFRbsa0LmZKpQLOLn+Y0ai8RSarVxbW/WqRAImBqsRWZ5CkmsVTr+CvVSjldg7VOd9BBx0xJqw7ntc3PM83ig30RF3jxnSaBMBESgPAgyqQXHonH0PVk8r76Y9UB4IVAsRyI3AYmx4bAjOlQkk19DW7LeMV8jbR7dHbvSUSgT8S8DUo5z/O+2NOHXaVQ10p/u3/VSyIhNYjDX9TVh71wjwbgrE2xmzcK/cLIrcCLqcCOSZQManMNweQ/K06dSjEoR5hq7sgk9gEdb8MY7ayzh3+CFOtD9gY0PNHQa/XVWDyiVgyzPRVerN01mPShBWbt9QzWcg0M5YpU1Y/9UUYu+gqvQLXNZppyxLZwCmQyLgYwLmU8jR4Mk9qGqaqpjpWKPyn5gKjfaJANDEucMGpD7BZZ3eTRXLd6gqHbYQbbpn1DtEIDgEzHqUmp0VQN1L6F846falIEym3Se09kRwGlUlLS4Bh074DNH238Dw+/heuZ5vlr+nE75nKlNtIiACwSBgGh3KudcBHZMFYTCqoFKKQOkJNOKy3Y1Y80UKwTM5Ovw0/W+fZOQKzR+WvmkCVQJ7Ck96EgeqBsEsbCb2KE57BLxpJ2x6pZ0ARD9FYDYCNbjoyUZ0fTqG1BkUiJupKH1OAnE2ajpugUusn/DTGw3/xV96BBerZ3B6w9ivWom2QyZeU60wkYh+i0AOBOiIn2rFuj/8CRFal6bewrfN22hZuqMKNoOo2yoHhBWVxIQg/8X5ML6T/eMNLiIv44vUx2mI9STddFJ2VFthCXBKg1FmwtUMq/iKifOEk4aIhS2KcheB8iJwAi6Ms0b3e7jt9z0Y/iIj07yPZtpnhRFeQdeLTKRDm5nQVtEEzB+VL0t3JTFyVRMue2oUxq+7sfm/GO/5+iqEXkU/tyrrM9oKSSD9wnEql2e6Y6yCWq+uhWSuvCuGgEOB2IyLH/gu7rvUQ+x1fPP/DB9qf7K3fVOHabmniukKU1bU5qc46vtlCtHusQlasP5B6hDeR63C3ewn/bJHHksn/98ZKMNeNV66HVfXjM1dgnAsDX0XgQUSWI17kg249I+MX8pVLbxXJ5H8IB+C99Kkpp/BfykS7VEnNdgCMQf0dC/MWcJJjV+Li57tR+SDHBFeS7XpLr02Fa557YWEL6WHVKP5sLFXoSCkB4U2ERCBvBOow7rnGrH+i8NwzmC8wzfzbXRLCqnHOQJIZoSi3kPzDt2nGdoLkAfngCiGqqcq4nJcOMiFoz9L46vzefwPfGVK6oVpKlIL2zc6TxhxEDp+bE6Ugg79CLWJgAgUioDFMKUK7L4GrF0fQvUrqTJ9FwXjXfx8jnNHqaxQ1H1YqBYofb7WtnztWRmHN04lN7FkjVj3Tc5dvZ0C8Vs07BiUSn0ioYX/zrxgpMYZzOiVdOFclYMI5EygHufvbMCaf6P7xbsScE9MMMA35xP/mUKRI8VwrAbRtIm9LE9zRhqYhGzjJhfRWQ0U2T/+mEDkfcNI3ESjqz3qC/lt4tH52uOAjn3rrc3aKPktgnITAREwAuZ+wY9n+PdV++vBl1pTGDk2gfjJnMx/FfcdTXVaO9WoIVPncISQ/uPDlIe0BZEAR4VxtmJODdiKC3tYx4/3YMtDHMF8mlFRnscXJtf6graFEcgYzDiH7UHDMuZk9yDn7rWJgAiUnEATPrCHhbjX/jx0hAfQvshDatUwksfzQXgcH3+r+CBdSeHYRGOKkKnM7KFogjH7Z78zj8nsZ8mrpQKMJ/B0HM7Q+F0z/6LR1b92Ysufq5C8jqrSV44gIReLmZHNetTuF7uPkggdxcQShLMSUwIRKAEBjhapMcWO0b8fWhE8bK7iE7Sdap2DYvAOodHNYRSGB1HkHcDxZTs/W5isnt9rKDirGL/ENZVaevEZy2B0M0FpYjLzL/vdDtqe7P/tM7tlRWv2tz7nSsCsQCnATADetwj19sIzp60d6+7fiRv/D1+ErmLABptf5kPcFAra5kvA/DqHkHwRz/+B5aER4XxJ6jwRKCIBC/zNy20b/fvZ2Et7oHcGnqgZRKI+iXgD33gb6bbBh2WimW+9zRSYnJtKcfkZp4nH7LOBYq+eY8o6fq+l4Kzh72qKPLPtj3JfhL9pWce44mljOselMYGTFao2GrV/tmX/n/kcW6ry/T7dS0L2lSF73DgZMwqtwQQSXxjB8E+asW54PmSW4JKd96Lj4uPQ+hBHM59wEV5OFZ+TeX2ZT46VfY61Ef+O5Z/DvmsdXVtpCdjNghTf70YWocdGAtpEYE4EHJxm/aZv9G/7XE720MHutyq8E8MRqt8iYQxHY4hHQwhHExipYqQcfsaruDRxlHFyokm4URdelObnFJROhHNeET5L+N2lj5wXpqDlM8X85ZxQ5rtLy3SPRgkp/plo8Lifr+P7N14/nWZOspT58xnmJXkNe6blZTOhxZG2lT1bFisnywfOzVmZPVupx36HKYDs2cm0Nphw+JtOovxj/fgS4ZCRY35pvRyVP0Jn+W8OIfrr5Vg3yDTz3k7LaApu7cZNj3Lu+HN0wD+OI017aZl3npV6Il8UWXXn+YAZzHQkJAh90RPspnbYMnyOaBOBIhIYNdqJ8ZL2py0ABFpw8b3bsenttfCuoevNW6gqrZOqdG4NZ8v08sXmoAE0t/HLTnu70SYCIiACIhAgAstw6ZO9iH9gGLFrOfrcbfPB2WFsgKpRsqKaiRmJtXD0caAVgoIwrcYoWYF0YREQAREQgbkTWIkNQ1ww+to4Eh+gEHyELhaKRpMjRhsPkpfLhZkOt1MssoxeJHKEp2QiIAIi4DcCVJV+g0s6nUOL4u/SxWJYY8PcWsg4cYIwIwhzO0WpREAEREAE/EqgDesfSaD/3bQkvYmGNHtpWerXovqmXDYqpFHGYVYgzRH6pllUEBEQARGYP4FWXNFTj7VXMJ7pWj7k/0rVnxb8nQEnLYR51DnIkkgQzgBKh0RABEQgaASasOb/jiC1mg/6H9OqNCZV6dQtmF6ZEFjuYWONBOHUjLRXBERABAJLwKLR9FMYjiD+Jfob9ilw9+SmzIwI0bYbkRYJwsl8tEcEREAEAk9gGdZ3fg8/Xs94tZfRKPJZzh16sozc36w2R8itIYTkIgnCDAz9XwREQATKjsBq3JNsxtrbh5B4B6Pw/JKxSuMUimVXz/lUyCLy0KiIAezdxRKE8yGoc0RABEQgQAQW4+KfhhA/mz6Hd3LesF+q0kzjWUB0viBIEAaoL6uoIiACIjBvAnW4dPsDOPqDg4h9jJns5ELQFa8qNUMijgiXa0Q4726lE0VABEQgWAROY4D2Vqy/mbFJ304vut9UI1rRqlIGLbcR4XkShMHqxyqtCIiACCyYQAvW3zeEgbOGEf8XqkoHKlVVasHKqR49irHWFGt0wb1KGYiACIhAwAi046PPNWHJ+RwVfZQGNDu4WG1FqkpNGHJEyOAD2kRABERABCqOgIPVySas3crVGN5mVqUcHVakqlSq0Yrr+qqwCIiACIwn0Ih1PxuC81aODr9OB/yhSnOxkCAc3x/0SwREQAQqksBirNnBBWsvoDD8HufNRipJGEoQVmSXV6VFQAREYDIBrmLRm0L8KqpJt/HoaPCVyenKbY8EYbm1qOojAiIgAgsg0IoNf+ByTo8w6krFzBdKEC6gw+hUERABESg3Ah7utsUMq2hAQ0PKyhgUShCWWy9WfURABERgAQT2YvvJXMvwBXQriFSGGNR6hAvoLjpVBERABMqLwCA2r3AR+gxrtbi8ajZzbTQinJmPjoqACIhARRDYi1sOScK5g8s1vYSBxypmNGiNK0FYEV1clRQBERCB6Qn04qZXhZC6J4TQqTEkorZEUSVtEoSV1NqqqwiIgAhMINCNze91EL6LfoPHUQiGK00IGo7wBCb6KQIiIAIiUAEEPGys6UX043SeX5dEsonO9BVQ66mrKEE4NRftFQEREIGyJTCIjQf0InJDFUJvYSSZGjrQl21dc6mYBGEulJRGBERABMqEwG5sfUkc3k10kTiByzDRKKayhaA1a5h64ZCWnyiTHq5qiIAIiMAMBPZi89voLX8dV2U/eARxV0LQLEY5Q0pmMpiZoePokAiIgAgEnYCH2yI9iH04DOdyqkFbY0gGvUp5Kb8JQfLolGo0LziViQiIgAj4k8B2bG7vQfzaGoTfMYxkfYqPfm0ZAlWIYAgj/yBBqB4hAiIgAmVKoAsbXxCFu4lO8icPI1FV6UYxUzWzB/fPEoRTkdE+ERABEQg4gT3YcnoE7vUhOEdRCIY0Hzi5QbnKBucGvV0ShJPZaI8IiIAIBJaAhw63B60X0j/wKgq/pTYfKLvQyc1pCw/HkbTJ0p0ShJP5aI8IiIAIBJJAJ65r6EPtVdUIn08B2MQVJAJZj2IU2rwl+ILQF4UjY5liANc1REAERKDQBLqx6eAwneQ5H/hGOcnPTpsuJBSEyd17EO/WiHB2XkohAiIgAr4msBObXhlC5AtcVf7FnA+Uk3wOrcW5UySAZ1diw5AEYQ7AlEQEREAE/EpgDza/kwLwWjqEH8SRoCOjmNxaykaEVI4+YaklCHNjplTTEPBwL/vQI9U9cCKDGGSUouiUgYrq4KY8xDRnPw3H+e423gNIFT0ohoOI4+bxug5iTi0DXTHGx5T9ZzY+Q4jzXM91MNdAWXaeXTPX8xI5XceDk6LF5lAN3G7ggiEaZuS973vYXNUD98MROBtoDtMW13zgbN1k3HHraPz7s+2UIByHRj9yIdCFzY28yU/jzf3OHjx0FN9Am3letAZRe5pY/5q0cdLe8xDWzP0kMvPfYdKPztFuzTTM559zLmfG7cmeRwEccmLw2HfiU/af2UpkEUKsPB5SOZ/PhDwl5NC3jgKUSrIcNp7A01y+BPDbNBvvBytDisYqI3EaYri49YFubPlqM9wfOljTP81pc9q9A9cv7oN7DZ3k385QaQ2yC50TvnRiMyRif3nUfkgQzp1fRZ+RWbrFOYNqBQbtDTFUky3eImVMpXUKa/GcJU7R4BS+RNOLv/2VNLN82/j/Gt4nzXRoP5zxPc/qhXdDH27d3ICLdu1PPfdvO7DxhXU0iqE69BQGzZaT/NwRsm2og0AiRlH4FztdgnAeECv5lB5EltIq7SS+gbcOYKSSUajuIjAjAROaKfrwmdN2CG4Vx6wbuOt3Hu74loNzh2c8eZqDXbjpDXwB/TwF7CrOB8pJfhpOs+3OGMp4O4DeZyytBOFsxHR8HIEUQg0cDazI5c143In6IQIVTMDUcDWI1HAe72+60P0Lonh2LjjMSb4bbRdwPvBKnrc8ntbEzCUHpR1LIMRXkwRSf25FR5/tlyAcS0ffZyWQxHDUQ7Tej4qxWQuvBCJQQgI2QU5V3KHUqNTOpRhd6GjsQdsnahGik3yqRU7yc6E3dVobEVJ1/WD2qARhloQ+cyLA+Q4zkmC/0ZgwJ2BKJAKjBDIz6V5tHC6nDHPbzEk+hOjnuZL8GzkfWGfmHdoWTsA48oXiAQrDNFAJwoUzVQ4iIAIiMCsBM6Hh3PpI1AaGOWxduPnlXD/wBo5eXmIryUsI5gAthyQ2FuT86nCE87XZ5Hk0f85mqU8REAEREIGJBEatSftTcGf11ejCjW+nwLyTwvNEumFICE6EuYDfDEZuKuonGuA+mc2Gjl0Ofb/sXUWbCMxOwEPInKRyeqOdPTelEIHKIkA93Iy6zb/QSX4JcEkIYTrJpxabxam2/BKg2wlXnUj8Brg4ls3Z5no0KszS0OesBOLsQtWIUhDq5WlWWEogAmMImJELpeAKOlRUj9m97+sO3Lq4DslP05jmnfRxa5ST/D40ef5i7yLOj/kE2/dSIiGYZ8Tlnh1vUnae/IeLKnduqp8I0FzfQvG8kPN+r6cvoUVj2rd1Y/NxNUjcydHK+zh/JSG4j0x+v2TnB8nZXFj2bTKW2YdCX3IjYIJQqtHcWCmVCOwnYFajnIri1J/z970YOL4HW75D1Uo/RyYncR8DZ7vLKAQZJm7fQGX/yfqWFwIMDWkRZR7dhq7Hx2YoQTiWhr6LgAiIQAEJMDasWY7WRhB+FzVz/7+98/uNo7ri+Jn95V+xHbtxAhW08ICEgtS/oJX62DfUVo0qVUJCQsoDidWmSisQKFYLyUub8qOlpWqhQCEURBCloEKhEDUUpUUNadW0tCQESEOI7XXsxF7vj5np9+x6l9317s6sPbO+s/udCDw7c+fOuZ97Z87ce8859xuq8jROKlZK1xd0iHdm1kpA5wfhi/nadtmXF5mqQKEirKDgjh8C+KbFsxu3OUPohxbTkMBqAjpTiEDZq0/wSOgE9IMDNqMvowdecy/OEdbg4A9vAsWhUY7deINiChIgAYMIqNsEet3/cyV5rNpQRkWkIjSooqIhiq3uE7TpjkZlUUoSIIEVAhiORj/Qen1ULszXQ6EirCfC3z4I0GrUByQmIQESMIiAzs9CET4nsm/ViBbnCA2qqCiIoitvQ072CKNQWZSRBEigSADLYOmw6HkEeX0dynCVImSPkA2FBEiABEigqwmkisOi8odNkp5tVFAqwkZUeKwFAceF5Sh7hC0I8RQJkIBZBDRUHV5aT8NlYlVvUCWlIjSrvoyXhpFljK8iCkgCJFBFYCW26GlowCP11qLlZFSEZRL864sAnFHRnlz2CH3RYiISIIGNJpCCEz1sG54Zl/TlZrLQWKYZGR5vSACNClHaiwYzDc/zIAmQAAmYQmAltmgWPcFDzYZFVVb2CE2psYjIkUWPEJExuAxTROqLYpJALxPog5EMVvH402ZJ/6PZsKjyoSLs5VayxrI3Mj9eY1a8jARIgARCI6CWMfjvYfgOtpzO4dBoaFXQnRmnisOiOkeI7ytuJEACJGAoATWSyUrulCXOi14f7+wRGlqJJovFZWJMrh3KRgIkoATUSAaDno9slvkFLyJUhF6EeL6GwLLY8CO0Wg4z1FzAHyRAAiTQYQIaSSYjuXS/WI+2MpIpixWzJMbh0TIN/vVFICbQhdxIgARIwFACaiQDi77f9MvWs62MZMrio0eoiwlwIwF/BEpzhIw16o8WU5EACXSagC50nJH8EuwYfiqyw5eFO4dGO11LEb9ftij/6qC1ES8WxScBEugSAv2SVEvRw2My+y8/vUEtNhVhl1R+p4rRB6tRi5FlOoWb9yEBEmiDwIoD/TIsRe/xcpmozpaKsJoG90mABEiABCJLYAC9QQTYPjwqnzvh5TJRXUgqwmoa3Pck4EpBw8rYtJbxRMUEJEACHSSgc4PLUliCAvyByBfbsmynIuxgRfFWJEACJEAC4RDQuUGsQv9EKZxae3YMVITh1EkX52pr0O22vra6GAaLRgIkYAAB9RtclvzFuCTQG2wdTq2RuFSEjajwWFMCriQxKko/wqaAeIIESKDjBNRvEAuG/2xYLiCkWnu9QRWWirDjVRbtG/ZLAo6ncV++OdEuKaUnARKIAgEsFi5LkvsgKf33IYrMmkarqAijUNNGyah2Mg4UIc1ljKoWCkMCPUpAh0UR//jAoIxd8Os3WI+KirCeCH+TAAmQAAlEgoAayCCm6J8Lkvi1JTvW1BvUglIRRqK6TRJS5wgtuk+YVCWUhQR6kIA6z8NnMAftd8eETCOk2to3KsK1s+vJK7W1cYKwJ6uehSYBowio8zxWn39oi/QftWRqXa8lKkKjqpbCkAAJkAAJeBFQAxkE1n7flth+kZ0Fr/Re56kIvQjxfA0BjSyDA2sei6/JjD9IgARIoE0CulxS6T/nznGZOLdWA5nq22I9QknqWCs3EvBDYFBSUIT0I/TDimlIgASCJzCAtedzUnhmRKyn1mMgUy0Ze4TVNLhPAiRAAiRgLIEEhkSzkv+oIPHbRXbnghKUijAoksyHBEiABEggNAI6bqmBtWEgc8cWmTm9lggyzYSjImxGhscbElgsrj7hOnSnb4iHB0mABEIi0I8hUbhLHLoo6SdgJbpuA5lqMakIq2lw3xeBIL/EfN2QiUiABHqaQApDogiq/V5KrNuukX3ZoGFQEQZNlPmRAAmQAAkERkCHQ+EkmHfF/ma/bD0bxoc4FWFg1cWMSIAESIAEgibQV3Sctw/OSOyloKxE62VM1B/g784TQMBYdYWxzkiafiydx887kgAJGEpA5wWXJffaqPQd2Cw7Ax8SLRebirBMYsP+uuj4q/6zYtfICBXhhtUDb0wCJGASAY0ek5f8OVsKu0XSl8KUjUOjYdJl3iRAAiRAAm0T0HlBbFlbnF3jsvDOemOJeglARehFiOdJgARIgAQ6SiCJFeehBO+eEevFoF0lGhWEQ6ONqPAYCZAACZDAhhDQEGpwlXhyVFI/HA1xXrC6cIg1asWrD3CfBEiABEiABDaCgC60m5XcX5KS2oNVJTKdkgFDoy6HRztFm/chARIgARJoSCCF4dC82FhaybplUD76GLOEHQtgxaHRhlXCgyRAAiRAAp0ioMG0EUN03hHnljG54qQlu9e10G67crM32C4xpicBEiABEgiMQLwYStvNFWAhCn/BI2E5zbcSmIqwFR2eIwESIAESCI2AuklAEbpZKdw+K+7TluzMh3azFhlTEbaAw1OrCViSsDBwH6fn/2o2PEICJOCfgAYSUTcJzAvuXxLngetkMrTIMV5ScY7QixDP1xAYxK+OzWDX3Jk/SIAEuoWAfkhrDNGc5H68JH37r5bdHbMQbcSQPcJGVHiMBEiABEggNAIaQxTh036Zlfhtn5adS6HdyGfGVIQ+QTFZmUAOH3MxtpsyDv4lARJoi4A6zMNX8LGCpL69VW693NbFISXmCy0ksN2abQZzhPQ97dbaZblIIDwCOhyqSjAjuccdsSfHZed8eHdrL2coQouGD+0x6+nUOkcIRahtmhsJkAAJ+CKgLwydE8xK/hERe9eYfOuirws7lAgh1uDEwY0EfBPIW2gw2m64kQAJkIAnAbUOTRWVYOHnBXEnTVOCWgAqQc9qDD+BLszrihP7SBaM1y8ZeE4g5APbTfjNgncggcgTUD/BlXUFDy7L8p5PyeSCiYXiC82cWonBl8X4+rCkYFnF+LTG62xzapaSkEAPEkjgdQZn+UJBCncuSvrOK2TvoqkY6Edoas0YKpeFnqtIgiuWGFo/FIsETCCgvUAMiV6Gs/zeURn+1ahMLpsgVzMZjO+BNBOcxzeOAIdGN44970wCphNQoxhM95zPSf6mUZl9yJKbjVaCypOK0PRWZZh8JeMqh5bGhtULxSEBEwgMQAnaYv8dSvArm2XueawunzNBLi8ZqAi9CPF8HYE45gi5mHMdFP4kgZ4moEYxuqhuTgq/syX/5XGZPwYlWIgKFMwRcmHeqFSWCXLm0F7QaDhHaEJlUAYSMICAriWIzc6KfY8rhbtMdI/wwpTAfA8NZrwo8XyFABZNgfuEFedQQgUJd0igZwn0Q33AN/Bj9ARvG5eRQ1GYD2xUWXyfNaLCY00J9MF9Ao2GPcKmhHiCBLqfgA6F6nwgOlJvIFrMjeMy91hUlaDWFnuD3d9mAy2hDo32sd0EypSZkUCUCOgagggAUsBQ6AMZydy9TfZOw4gu0quzURFGqQUaICviROgoAtuNAXVBEUigkwQ0VJoOhebEPoWe4O1zMvTba2WX8a4RfhjxheaHUkfSWNaETHTkTuu5iUaVwQPBdrMeiLyWBCJGYMUgxs1K4RC87vaNyvTpzbIL+rA7Nr7QDKhHV+CRAAUzI/3Gxy1bCa/GdmNAu6EIJBA2AZ0L7EMvEBFiTmHs8/sjkn/Kkj0bupp8GGXGC01fwtxIwDeBGKJGJNFufF/AhCRAAtEjoArQFicHJfhoUmIH+uTCGfgGdk0vsLpGsMqqy6/7aiLcb0kAptKxuDhJl4ajLTnxJAlElUAcz7YGzHbEOZYX5+4xkZct2ZWNann8yE0l6IcS01QIpCpzhJE2EquUhzskQAIlAuVhUPQCz2LFiPvnJf+Lq2TPnM7bdDsjKsJur+HAy5fA0KigR8iNBEigGwiUrUHR+7sEY5jH8ftHw7Lt1IjssLuhfH7KQEXohxLTVAjg65BzhBUa3CGB6BJQBajzgAWxc4gM8zwe7YNnZfatGyISKDtI8lSEQdLsgbzw0MQxfwBjGW4kQAJRJFBSgHFYgjo2DGFeQsjEe0fFOWLJrV09D9iqrqAIaTXaChDP1RJArFEOjdYi4S8SiASB8hxgqQfovAKhfzIiQ3+Mcmi0oMAnYAp/tdP9c6FB8QolH3VEwH/oaS0YHcMT84LWfNHK2MIcIWcJQ2kMzJQEAiYQhwVoCpag6AFeRlSY38Ma9ME5SR+9Vqa6IipMELhUEaaCyIh59AKBKTUg0+F0+hH2QnWzjJEloB/XGg1G3SCg/M4jLuiz+I59eERmTsAXMBKL5XYSvg6N8tO+k8Qjfa/tWILpXAp+RpwjjHQ9UvhuJRCD4usr9f5cBMZ+e1mcJ1HWp0dl2wdWD1mBtlu/NJZpl1hPpz+JCeWxJEJLIPI2v596uimw8MYQ0Lm/JJSfGsEUxLkAF4hXE2I98aEsHblevnvJGEENFoTGMgZXjoGixTCfnMLyE/yAMrByKFLvEFDlp8OeGgUGrg+LMID5Kz5ND6M3+EKfzKL3N1XoHRrrL6mGWFvS8WRuJOBN4LOxmCxgTtnF3DJbjTcvpiCB4AjosCdifhb/IfLLIrzdT9hSeAFK8cUh2XoSQ5+c+1sjbihC+Y92qbmRgBeBszJnDUgiDtNWXZOQGwmQQIgE9L2sFp+q/NSyH72+NPz+/mbB9w/q8JVhmaDyC4i/DnGdAtyAsmM2ayPgYmLbXV6WeaO/6K6SBTstm7EESyyPT6cBzhKurbZ5FQk0IqDDneVen56HtWcWCvD0sthv4syrGIp5s19mP+SwZyN66zuWwNf9cSjCaXx5TCDY6vpy49VtE9CvPpg5o8HLuStlH5TMVNt5dO6Cffm43D8LJZjGQztC/9POkeeduouAPvefzPPFdLkjVXwZ+PidyYpzHMYuR/FuPjYomXdE9ur0Fb87Q2wCiWGZnL4o9z00KCmYF9G/MkTWDbPWQWlMeM9j4OMYHg6jG7vKl5Z7zyclcQIT9dfAQq1hmXiQBHqdgD7Xquz0X7mnp3aduulzg2HOLJTfBXxM/hdDnSdw+C2cP7FJku+J7MxQ8RVRdex/Res/W9L7F2X8+iFJ3Wjjw0OHSktf+8G9l4PLqWNsQr+RPhh9ksSQaP44euTPhX7DAG6wLP2nLckexgfqF1KSGIfFWgC5MougCegLuGRQD3O4NWfu/0r/KRsLU1IRjc+pSilvn+yVj6z9rx+Zq++nTHXT/5dUXOlXdRqNuKRvz7y4Lnp36Fm4l2BYNg3ldw77Z3Dlu1CM79iSx3NkfTgq8wsY6uQXpaLcwK1Sh648mJyXzE1xSX7dEfsGVB7WY3RTaCyehhHlBtKqHOXG0yxNRZCqBM3yrT/ezrXl7EvXNLqylKL5mXIOtX+rhwl1X/+Vt+pzYKo9wOJXIj445vFgPJsR+65tMnmqnN70v+/LgbFRGf4qXrTfQeO4TkvKeWZzaq30fLhLaHczeOkurTzDns9xXQn0EdBrPB4FrX2NV2y1m3/d7TBNLtAddbdDWXDMdfQuuuFGqjSKigPHyvt6GvvNRlTcqrJYKixkdTWxytxKbr1Q7w0jCksNKfJwUtf58SzkyuA4pjLkEjJYwD6eZXfOFisNn75p7M8ggvVsnyynh+UzCyI79Dok42YiAdTN6m1eDo5bktqClrUJLpot41/mcTk6/wg1ErN0v9mWxIKuNlYuqD8PleCi8cTxFaWrGtQ1FCuO79lKQ9W+BwTG79p8NBA02mtN3pAJvV2n2Hr1nmi4er6SVynf4jE9rVsMeVfyQER27DuwkFT5HDw81ddbeIjcxEpm+GMNg9UE2rk+OCrMBAoytFKYAeS9DWlw2NWHMIe83sbtnocX0PFNcv7fUfwidGUqNiMDV/TJ0JdQvptRts/raAK3jSegztVob0cw/Pa9aXHfSMiwlYDFbzuSxWUIDXbAQsP12D7G+UErLfbK4+CRvMlpRzLuFoGbqj4qNVvGPSuLlYZVgM4pyHjxd07S7nY8pK8j/bT8s5Km+vKvCb7pZTvKDgPL4nYl/o5Z78p5MGnN5SoZw7WX3JMr98HlThSf1Woe3G9M4P/1iLHkAyCMSgAAAABJRU5ErkJggg==;container=0;" vertex="1" parent="DrQzbPBQm9nXxSn8lfKz-22">
          <mxGeometry x="57.69" y="80" width="34.62" height="40" as="geometry" />
        </mxCell>
        <mxCell id="DrQzbPBQm9nXxSn8lfKz-14" value="R-Socket&#xa;10.240.203.131,132,133" style="shape=image;verticalLabelPosition=bottom;verticalAlign=top;imageAspect=0;aspect=fixed;image=data:image/png,iVBORw0KGgoAAAANSUhEUgAAAcIAAAIICAYAAAD9g+4KAAAAAXNSR0IArs4c6QAAAERlWElmTU0AKgAAAAgAAYdpAAQAAAABAAAAGgAAAAAAA6ABAAMAAAABAAEAAKACAAQAAAABAAABwqADAAQAAAABAAACCAAAAADi+B39AABAAElEQVR4AeydCYAkRZX3/5l19H1Pz8UMILcjgggqHlyuF+oiiIz6eS0iIM4BjKB4gI0uKIIzMMPAgrrs4n4rC5/u6nqsuivifYDoCogKyDEwR09PT9/ddeX3f1VdM313dXcdmVX/HJqqyoyMjPhFZL6MF++9cKBNBETAdwQ8eA5we3g3wtUp9NVWIVSbQqouBa8uBKfW458L1Dhwqj2gCnCiHlIRwAs7cHnIzuf/gRSPJZhfkj+TPMDvmc8kHB7zuM+OeUlL4yHE78lUCO6+76N5cF86jxSvnYoz33D6fIe/+V/6tx0P8Xtm3wiSnqW1ckQRsXwtHcvkpFL8q+H3Ie6z77bfiuYhzj9WhVvme+Z3ve1ANY/F+GdVzmweRvjb/ohkwpbCkLcILvNeMuFI9ueQtw0Dk87LHp3uM4FeL4HWOZ83XX5T7T8MS70n8Yh7MBqdbVMlyMO+Fek8rEtMxycPFylIFnG3Gwl3EPFwE0KhEQxFwohEE7wP2G95vyRqQwjVsV828PKNLpwW9u0T+dfOyj7oIvSbJLxfNWPdX7PFS98s2R/6FAERKDyBe9ERPhhN9bVAazWcdgqzpSmEljvwlvHpupQl4D60Uei18BhvZo83dVroRXksTEHouLB/PJr+l3uZ9z+9+VgYc1r2V2Zf5tfY75bU9o7f5/AnZVBms0+TvunP0Z32MSrkMvvHpKX0TAtr/i8rCC2N5Wf52pbOe99vy5uZjabJpOC5o79N4E3auM+E9HSPufSLwFTnTcpo/A7PCpYif34UbmPmfG6n/wpyEes7xJl+cynIBQqXaYht6vJ+4SfC5MQXQPAFMPOd9XLDo/dH5i7hKxa7ofVe229bHKmeJBK3/RyPXfVGbBmZroekE+t/IiAC8yPg4e5QD3Y3chRFIYeDmMshHNEdxhvuYD58VnJUxNdwr4VCrYZvsaHMDcpbmwnths3ctvs/bb9tWVGU+VX8/09+YEzeM1WpcktlZ+5Puf/bVDnOvm/282dPMd1V5n/mdDlO3p9t88lH8rmnOFcpZImz98T+mmT3TH9VE5B11FP0YeiqFlz8mWK05/Sl0RERKAMCHu6sG0HvASNIHe7BXcWbahWF3hF8M11J0dVu6poIKPL4zwSc/SVHRZ191yYCIlB8AvbyyZHhjhASL5AgLD5/XTHABHbg+ro61B5IzdgqTnodR/XYMXz/PJJ/B/DGqgtT4NmohoIwLeyyIzuJuwA3uopetgTsfk0g8epw2dZQFROBBRLwOJc3gPZFFGLPTyJ5AgXcSziqO5rfD+QIry7Km8gEnc0/2D/75BvmAq+q00VABIpFwO5hamcOkSAsFnFdx/cEPNwbHsKjSzi6O4ZC7RU9tDRzkHwBLdDaqxGxSfm0sKO1JWK8fexPmwiIQHAJ2D3Nv4MkCIPbhir5Agl0oMO9APWtDag6huO4k3rx0KuY5TGc01tUjbBr83g2ysuM9CT0Fohbp4uA7wiYWQ21OkslCH3XNCpQIQk8g401zQgdmoRrQu/V/Hsp/e6W008vklFz0qiat0Zco71CNoPyFgHfEKChDH1itYlAmRPoxh3NYfS/mC4Lr+Eb4Gmc61tVBbfRjFoSFHgSfGXeAVQ9EZiFgAThLIB0OHgEaOTidqJ9cR2cE2nYcrqHgVMchJ4XgRvNqDuTGKb40yYCIiACRkCCUP2gLAiY8NuNtqUMMcG5PudNVfBO5iT4ygjn+jLzfEmqOyX8yqKxVQkRyCsBLylBmFegyqyYBKjmdPrxD3RYT5jwe0sE3qn05VtBYxfH5vik8ixma+haIhA8AhamkFFmnpEgDF7bVXyJu7GpmZ33xD5sOZPzfq9lVz44ykDTGeFnIz9ZeFZ8JxEAEciZgEaEOaNSwtIS8GjtOQj36ARCb+Fb3JspCJ/PT0acl3tDaVtGVxeB4BPQiDD4bVi2NfBwTmgvXrYijOgbqPp8G1WeL+XIr9EMXmzUZz5A2kRABERgoQQkCBdKUOfnnUAXNnPVBvdlfXDOCcN7A0d+Ky1ktQk/qT3zjlsZikCFE3A8CcIK7wJ+qX5m2aKdB9K59QzG81xN4fdiCsNqE3wKZeaXVlI5RKD8CFCzlJAgLL92DVSNMqs51Bzfi853UvC9yUZ/VgGN/gLVjCqsCASagARhoJsvuIXvw+Z2xvc8nYLvXfx7Bd0e6jX6C257quQiEGQCEoRBbr2Alf1eLmv0Yix9HpfDXE0zl3dQ+HERW8c11actVatNBERABEpBQIKwFNQr7Jp/xR3VrRg4ltV+j4vEmVzW6AALcG1r98nys8I6g6orAr4j4MlYxndtUkYF8rC1vhepV7oYPJdO76+j5WeLqT9HFOqsjFpZVRGBYBOgT3JcI8Jgt6EvS2+RX+j795o+eOdR/XkyO1ptjMIvLr8/X7aXCiUClU5AgrDSe0Ae69+Lm9u4zOWbOO/3AbpBnEgr0Ijm//IIWFmJgAgUhIAEYUGwVlamvbhtERB7C+Cdz/m/EygIQ6YC1fxfZfUD1VYEgkpAgjCoLeeDcpsATGHkLJq9XED15/F0g0iv+iAB6IPGURFEQARyIsBXdhnL5ERKicYRMBUoR39neIh9kCPAl2QFYEJzgOM46YcIiIC/CVi0YhdQZBl/N5O/SpdZ/ij8RpbqIo4AX55VgUoA+qudVBoREIG5EZBqdG68KjJ1J65rCKP2NFqAruHo71RCiGoOsCK7giotAmVJQIKwLJs1P5V6hmsANiP8UiC0lgLwjbQEpRuEjGDyQ1e5iIAI+IWABKFfWsJH5fAYCq0bzasiiHyIwm+1OcKPSAD6qIVUFBEQgfwRcFIShPmjGficaO3pDOGWFYwGc14V3PdzHnClHOED36yqgAiIwAwE+NxLShDOAKiSDvVgY2sfbjmLKtB1YYSOTTEOaIyxYLSJgAiIQLkTkCAs9xaepX4e5wF7EH0VLUA3hIDXMHnYRoHaREAERKBSCEgQVkpLT6inrQjfh52H9wIcATr/h2rQZhOAcoafAEo/RUAEyp6ABGHZN/HkCvbihkVcEf4ddIZfT1Xo4fF0QGytBziZlPaIgAiUNwFzqdccYXm38YTaeVwXsB/DrwCSH6E16OvYARwtiTQBkn6KgAhUDIG0GISsRiuiwc0adC+2HtiHgTV0haA1aKjNBKDUoBXR/KqkCIjALASkGp0FUNAPe/hyQw9ufmME7keoBn1xgv6A5hSvTQREQAREIENAgrBMe8LdNIZ5NTqP6MPQZRGE3sFq1koNWqaNrWqJgAgsiIAE4YLw+fNkC44NbD8rgvBHaBBzlNSg/mwnlUoERMAPBGQs44dWyFsZzCWiH7uOSgEf4+rw59AYJjosp/i88VVGIiAC5UeABjMKsVYuzboHtzX1oZORYdwronCO1CiwXFpW9RABESg0AalGC024wPkzQLbbh0WHAfGP0iL0XbQErRpWZJgCU1f2IiAC5URAgjDArbkLW+v7kXwDBeCVHAkeo1FggBtTRRcBESgZAQnCkqFf2IUHsfEARgS9hD6BHwSces0FLoynzhYBEag8AuZLHVJkmeA1/F+wuWoRcGISoasZI/QUWyk+xcbUJgIiIAIiMHcCniLLzB1aKc+wpZJScN5Dv0CbD1ymUWApW0PXFgERKBcCUo0GoCU7aBDzIbQc6iD0CY4C3+0hFRrmOFCbCIiACIjAwglIEC6cYUFzsEDZA+g/xYH79zSIOcGWSpIqtKDIlbkIiECFEZAg9HGD9+BLXDV+4O/oHH8FF85tlyrUx42loomACASUgJuUIPRh09lqET249XkOhq/kcknv5QjQtWDZ2kRABERABPJHILMMU1KRZfKHND85MUxatB9bT6QxzGfDCL1CqtD8cFUuIiACIjAdAY0IpyNTgv1d2Ny4F9vPjiJyNZdMWilVaAkaQZcUARGoOAIShD5p8p24cUkEzsV0kL+EqtEahUnzScOoGCIgAmVPQIKwxE1ssUJ3M1ZoFTxahYbOMfd4+6dNBERABESg8AQ4DaU5wsJjnv4KD6Mj2o3Wl1XD/Tz9A08c4ZJJihEzPS8dEQEREIF8ErAQa4CsRvPJdE557cD1ddWofnMY7nV8IzlI84FzwqfEIiACIpA3AlKN5g1l7hntxS0tLrz30zXiKp7VKCGYOzulFAEREIF8E5AgzDfRWfKja8TSJJLmIL+Wg/KQxYnRJgIiIAIiUDoCEoRFYp9xkt9yCIXftQyavVqrRhQJvC4jAiIgArMQkCCcBVA+Dt+LjvBebHlhBO5Ghks7VUYx+aCqPERABERgYQTMWCaOVEKCcGEcZz3bIsXQSf6VHAXeSCF4jOYDZ0WmBCIgAiJQNAI0WPQkCAuI28PGmr3Y9QaGSruRkWIOlBAsIGxlLQIiIALzJODO8zydNguBTlzX0IfoO/mm8UUTgiNcPkmbCIiACIiA/whoRFiANunGpmYX0XP5lvEZ6qDrYlo5ogCUlaUIiIAI5IeABGF+OO7LZRtubqOP4Do6yX+ModKiFjJNmwiIgAiIgD8J0JJfIdby2TR92NxO4XdFiIGzKQBdxQzNJ13lJQIiIAL5JWAB1gCtR5g3qv1cPSIJp4OWoR/MBM7OIM7bBZSRCIiACIhAQQhINZoHrJ3YsjwFh47y7vtsPjATyDUPGSsLERABERCBghOQIFwAYo75nD3YuiIKj6tHhN5hlqESggsAqlNFQAREoAQEJAjnCZ0Cz9mLrQdSCH6BQvBsRYuZJ0idJgIiIAIlJiA/wnk0gAnBnbj5YFqG3mRC0BzlNSM4D5A6RQREQARKRICr/6Q1eB5CSQnCOTZCZiR440G1cG7knOBbFC1mjgCVXAREQAR8QsAGMJ5WqJ9ba2SFYBiRGzkSPENCcG78lFoEREAE/EhAI8IcW8UMY4Y5JzgqBDUSzJGbkomACIiA3wlIEObWQrQO/cIKzgRu5EhQQjA3ZkolAiIgAoEgIKvRHJppAFuWMWT29RGE3yp1aA7AlEQEREAEAkRAgnCWxtqZjhiDz0YRfru5SGgTAREQAREoDwK0++A/hVibsTUtdqgH92ou3Phe+QnOiEoHRUAERCCoBFKaI5ym6WwViQRXkGDs0AszYdOmSajdIiACIiACgSYgQThF8z2Fz7bUIbWefoKXJBQ7dApC2iUCIiAC5UNAc4QT2rILmxspAM9l1IGPcxUJJ0UNsjYREAEREIHyJaAR4Zi23YHr6xg27RwHzjUUf2EJwTFw9FUEREAEypAAQ6x5EoSjDevhjuoqVL2ec4I3cFe1VpYvwx6vKomACIjAPgIWbdRWp3cTEoQk4eG2SA/6X0EgW4im2eYFtYmACIiACJQ7AcezWKMVLwg93B3ajeFjXDi3cDS4PC4hWO49X/UTAREQgVECXiqCRGWPCD10uL3Yc0iUI8EoQkfawrraREAEREAEKoZAIoVQrKJHhINYtsRB4voqhF8+pKgxFdPzVVEREAERSM8QAvEEhkcqVhD2ph3m41dGGERbQlA3hQiIgAhUFgF6B/AfBsNwBipSEJqvIF0jPsh5wYukDq2szq/aioAIiIAR4PMflAPdjajrqzhB6GFjDSt9Ji1EP5kJuCqHed0WIiACIlBpBGgcacLwSQcXxitKEGbcJCIvN19Bij/5ClZaz1d9RUAERGCUgAlCDoZ+bT8rRhCahWg/4kdQJ7yFo8F2+QrqfhABERCByiRgalGuLct19RLfMAIVIQg5+nN2o20pP2+ghegqzQtWZudXrUVABETAhGAdqugsl7qtGR/+nRGpiKDbPbilOYzkx2gh+gZZiOpGEIGZCYyalU9INPXeCYnG/Zz7GXxj5b+FbtPlYNYA0x2b+ZrzO2vmPPNx1Go0/y1XHgu7Su7ly1wnf1fL9iX7NOHHONL8dMGB0OAAhr44QJnQaoHFuJW9IMwE0vbeRQQf0kgw906plP4mYI9mu8Gz/+xGt3+Zz/Fltzs9axiWfdhk9lm67J5Mmv17sr+dTAJ4Hq/J73ZlRqVK/8922fH0b+6ycFUYTccvmTSW1so2mi6bn+1NXzx93H4wsxTLmbLv2c1Osv3Z3/Y5eoLt23fu/uNWBC4aM+2WLiuPjyvHtKl5CV4/nd8U15rhtOIcclmo+Wr1QiyiNWYOm8WkdnJJG5opkTUMj09bXjvOwtjxmbKZ9vwJFUk58BLMM8bMBlJwuri+7JMO4vfHkfivNmx4eGz6mS44Nl0gv3NeMNqLlle7CH2VQJoVSDuQzVixhc4KtszbbNrCLc3CVkWJU2YkkeQcB/qZroefeylE9vKzm7+7+Z37nF7+9dFIfID9f4gPhmEPqRij7cf5dsyHRDLFhwOFQsqkQyqEEIPseunv9K1K72d+FE4hHnb4GU8LGIvNaL95jCWx/dnvSS+a/h5m+uyxEaar5q9hpnWZ1p5N1ahBktex8+x3ZmP+3NeQzje7j/7O3OeO28dKoT6d18i+c7PpPYyQS/u49Nlji9Jfhr2dGJx0XjbNxM8laGTaAW/bxAM++B1CneOid17P8BAsvGaGyGxVCSHhOhic8Tq9GHZa0DCLkBqmIKybMc0whkO1MxRoGCEKcJO3wzOksjenaLIa4QSd5WP98EZWYsPQTCfMWLmZTvT7MTOO2YPWo3hDf43GMUfZKvPaRMCvBExtY1Zs9kchw96a4hxGkkIrLeB2cN8zvFmf4sGnKOieTiG1nU/7zmoku2sR7QPaKehWq5P7tYFVLl8TKFvVaD/qFkXgfDaK8FGaF/R1H6y4wmVHeHxBS+v2KPASFHx7U0g+xZHenwjkEf49ylHdExGknqvDXo7yOmIVB0oVFoEiEShLQejhyw29GFhH45gzJASL1JN0mWkJmFLThJ6N+mipZn89/Hs8Ce9/qcR5IAX3f6lSfKwWXbsl8KbFqAMiUDACZaca9bC5qgfOGXzofIVzKVU2n6JNBIpJwOb2TPDZX4Jzbhzx7eH1H6bS85dUcf6Sas3/bULDsw7OnXmio5iF1rVEoIIJlJUgtLUFB7Dj6CTc/+Bcy8G0DqrgplXVi0nARnvh9JiPdmlI9vP1609Ugf4USP6YAvGBakSes1BOxSyTriUCIpAbgbJSjfajq40GBJ+rQuhgqURz6wBKNX8CZtgS4R/7HC0VU50UgL+h8Ps+/35ch/CfKfgG55+7zhQBESgWgbIRhJ24jnbXibU0jpHTfLF6TwVexwxdOPdsCndzX9hB4cdRn/Nt7ruvGju3cY5PaogK7BeqcrAJlIVq1PwF96L5DWGE7+KcYI3mBYPdKf1WepvzM+FnNwuNXHZTBlL4ud+IIPzDalxA4Zfxo/NbuVUeERCB3AgEXhCav+BuNBwWReSbFIRHxjQvmFvLK9WsBLIGL3yxGqAA/B0F3tcpBL/TgKMfc3CaRn6zElQCEQgGgcCrRnuwuCmC5KcYTPtIzQsGo9P5uZTZ0R/LaNaez8SQ+ja9/e5uhHu/gzX9fi67yiYCIjA/AoEWhLbIbg8S76CK6p3DGgnOrwforDSB7NwffwxRAP6Ozux3Ran+rMHap4RIBESgvAkEVjVqrhI92HkcH2Df5lv8Yj68yrulVLuCEDDLT1OB0vKzm5Fd7qWD+520AL2vBZda3E5tIiACFUAgsCPCHXistRb113A0uJgLLFZAU6mK+SRgAtD+OP+3gy9R/8m8/7kBHtWfF4/k8zrKSwREwP8EAikIbWmlalSfR0u+10kI+r+T+amEWQHIUd+zNIC5h1Fe/ukH+MlDq3GPVAp+aiiVRQSKSCBwqlFaiYa70X4iPbm+xcI38YFWRFy6VFAJZAUgBZ+5O9w1Au+fWrHmEX5XDL6gNqrKLQJ5IhA4QbgTNy6hEcM9XGvqJBnI5KkXlHE22YDXlHbbuRbfPXF4X2rB2ockAMu40VU1EZgjgUAJQlOJ1qDmUgrCz0gIzrGlKyy5WYGaEQy3LmoNvsnFXW9tROcDjPwiFUKF9QVVVwRmIxCYOcJ7qRKtRe2xdO+6jGu2zVYvHa9QAvZmZ8GvGQemn/3kXvaULU1Ych8XrdV6fhXaJ1RtEZiNQGAE4fFY1gzEPkMr0SYZyMzWrJV53EaAFIAJLn30O8YB3ZLE4DdacUVPZdJQrUVABHIlEAhBaI7zezDyvhpEXi0hmGvTVk46U4OaMQzn/Z5mEOw7qAr9x1Zc/HTlEFBNRUAEFkLA93OE5ji/FzuO4YPuv1hYOs5LLbqQBi+3cy0YNvtGbwzJ/+L6kxsX4ZJfs46yBC23hlZ9RKCABHw/IuzGE/Uuaj8ZRWixYokWsCcELOuMO4STokP8Q5wL3BTDwNfa8dG+gFVDxRUBEfABAV8Lwr9gcxXnfP6Wcz9nSiXqg97igyLsN4Zxd3MUeI8Db3Mj1j7qg6KpCCIgAgElkLYv92PZGfTYWQF3KT+v8uC40nX5sZWKWyYbBdJYKslR4P2DXIR5D3ZvaMQ6CcHiNoOuJgJlR8DHI8IbamOovrgakcOlEi27fjfnCplLBDUDXVwWiaNAbGrDuj/POROdIAIiIAJTEPClIDSfwb2oOT4EXDCi5ZWmaLbK2TVqEepRI/BwDPHre5G4ZyU2DFUOAdVUBESg0AR8KQiPQ1UDDf8+STVYneYGC90F/Jt/RhUa6ufqEN+htfDnWrD+Qf+WViUTAREIKgHfCUIzkOHE5VmMEflaCcGgdquFlTtjEGNRQt1n6Bd4ay9w+wqs71pYrjpbBERABKYm4CtjmayBTArOx6YurvaWOwFThdI3kAYx+BXjya5pwO7rVmCthGC5N7zqJwIlJOCrEeF23F5TD1xEA5nDhqDQkCXsFyW5tKlCaRDDGKHJbybgXNuG9Q+XpCC6qAiIQEURMC2ULzaLINOD7S9itMj/ZoGatc6gL5qlaIUYtQrlYrnJ22kYs5W+gRoFFo2+LiQClU3ANyPC3fhrbRS1l0cRbtZosHI6JeODpqOE0jjqkSQS19Tj6LsdnJaoHAKqqQiIQKkJ+EIQeriXq84/fBLnh94qA5lSd4niXd/mAzkSjHPV+J9w0dyOBqz/SfGuriuJgAiIQIaALwRhD/7Y4CB1RQiRCFVjapsKILB/PjD1DernP92I9XKQr4B2VxVFwI8ESi4IH0ZHlGvHnVmN8EkjiPuRkcqUZwK2biD/Ohks+59cpK7nSLAzz5dQdiIgAiKQM4GSCkIaRTidaG8NI/XhnEushIEmMGoU8xQtQzf3Y/c/LEfHYKArpMKLgAgEnkBJBSGwORpF4t1RRF+gucHA96UZK2DmyaYO5eejMRrFNOLHX23EPdKDz0hNB0VABIpBoGQO9eY8P5xeXcJZJ1eJYjR16a5hlqFcPtcWEPktl066rAnr/sWRECxdg+jKIiAC4wiUTBAC/1QVg3deDaIHUk02rlD6UT4EMkLQZQN7Zhl6SSvWf7t8aqeaiIAIlAOBkgjCDnS4uzFwIIcIF1JNVg4cVYcpCIyGS4tx9P+DJOKX0jJU7hFTcNIuERCB0hIoiSA8D41VES6xxFBqi6UWLW0HKNTVR30Eh2kR/G0un7ShGZf+tlDXUr4iIAIisBACRQ+x5nE02I/Wo5JwfsKHZasE4UKaz5/nZoSgO0hH+W8wWswnKQSf8GdJy7tUdq8By0LbMBCuQlUohKTrooF/SdfhXyFq72DEGUSK+ceK/mwZWx+GbncceAWp49jrjP3uoIr1ThS03pxtH61XIa4TcuJwuQzsyNhqzfs7o4R5mfI6zDM/G12uwtEJWVlUasanCtEXPUx5EmWjV1HbWMPVa/jn1PNlvJEpmtgwjdzP+8DdxTS/7Ubsp9m1TQvaaBPKm/75DDYysHbkuhpE1imU2lSEgr0v6yjP9QO/FodzZRvWPBPsGvmr9LZMWSNSzbVw2vkyuZQvG0v5EFjCG7ydD/42zsk2s8R2w9fx5q+hWrqaN7k9O8xCnH8OH9Zwedw+C7B5juXNOeHCZJ9ziSkv0uXI+YQ8JDTBW/Bqj/LNQ3HHZMFSs9lg0FiH/GxcQcZoWJ78Lz/bVP3WCs7N2KevZS/iIf5Z8EarjH0bu9kvGu3Zrt8NI/bhRbj0h+NTjE1dgO/2htqNllUsno0GFVi7AIxLmeWoEOyjELxnBN6V7Vj3XCnLE+RrWxB6YFdzL1KH8rZelULyaA/OkXxeHcx6LeGN20TeUS5Zte9GtwcCBd/ov8x3Y2B7Mp/pj4L/L3u9gl9IF8g7gVGhkvd8i5Ph3Po5p+ZMIPYwmtkbi+pHuI1zg/VwbW5QgbWL0zOKdhUTgvzrpRC8my85FIJrdxTt4mVwocyUwZJFVOMcSxXPq3qx80Te1qvIdHGYAs/ecVMUaBwBjv7zaGaWSv+VQfVVBREoOgHzXee9RZWp892ijQjtRt/DuUG+v/6UD8oWzQ0Wvd0LdkETguxQfWzTf9uNwSufh49ICOZA29ScS+A8j1qdk5j8tRRxLyPH5Yy+EzZxZ4LO/gX7LT0HEEoiAiUkYKrUoo0In8RB0Vb0f6AKkRbNDZaw1fN86VEh2M+H9tdCiF8lITgzYA93VA+g78gUHAo+nM4ZjOP4cthiN2OcIs98auVXOzNDHRWBfBKwV82ijAg5Z+D04pZDqdj5OW94TvLbNKq2oBPIvEm5A0l4X+co5mO1uOjZoNepEOWnNiTch0WHcGT3BuZ/BlUxJ0SokrG5NBN6GvMVgrryFIHcCRRpRLglyofAudWItms0mHvj+DmlCUGOBoeouvtWP+cEl0sITmquPmxup6HmqX1InsODp1D4LbZEJvyGM1Zrk87RDhEQgeITKPiI0EaD3di8km/Bv7D5D5v30BZsAqNCcIQj/O+mEL+8CRseC3aN8ld6jv6ie9FEy+jI2by5zmKfP4J9P2LCT5qQ/HFWTiKQTwJFGBFeHQmj7R1RRJZrNJjPpitNXnyo20iQC0d6P+L81iclBDPtsAefoztD/Sv7gfdE4PyNTQGYytP8leROUJq+qquKQK4ECioIqQ51dqKuuRo4TyvP59ok/k03KgSTbNdf0tjjyiasedi/pS1Oyfpw62JGaTmdTN7HF4SXkVGtjf7sT5sIiEAwCBRUED6A28KHYfiMKoSP0HqDwegQ05XSdOgc5Vi4kAep3u5oxrrfTJe2EvYPYMtyvgyc5SH5dxSAx1IQRjT6q4SWVx3LkUBBBeHzMMIQT84FUg0Fv+vYvCDDFf0xjsS1Lbj4h8Gv0fxq0EkBGIXzNo733k8ByGgvCEkAzo+lzhIBvxAomCC0EFF96DyFD88TRrTUkl/ae17l4AOfwYhCTwwitqkNF//7vDIJ+EmmAgWSZ7IaFzBE4Iv4chcy9ade8gLesCq+CJBAwQThNmyLMrj2BYxAzojmmi8Jam8zIUgfwe0cCX6xFcvuCGo95ltuM4JxUf96qkDXkMXLTQUqAThfmjpPBPxJoCCC0MKp9SL8QhoOvGZYo0F/tnwOpRp1k+imELx7CMNbGrG6Yt5oqNGI9mEHjV/c9RSAb6AArJcAzKHTKIkIBJBAQQThY2iNtME5txbharlMBLBXsMgmBMNw6DCf/B4FweeW4vKBYNZk7qXuwdbDerDzQmoz3sWzl5kAVPSXuXPUGSIQFAJ5F4ScM3H24h+WMX7G2TGNBoPSD8aV09wk+C/J0Ae/5EKY17RiXUUE0d6LWxjzM3km1/W7mCPBYy34g5zgx3UN/RCBsiSQd0EI3B5m8OWzowqnFtgOk3GVcB8eQfI6Gsc8FNiK5Fjwu3FO6HU4mcGvkxtCCJ3B0V+d+b1SHapNBESgAggUQBB21yZQ814+VCoAX/lVcdQ45slhjNzShku+V341HF8jiwfKke87aRW7loLvcKlBx/PRLxGoBAJ5FYTmMtGF7adW01DGfKu0BYuArXXO2JhdVGnf3YLldwSr9HMrbQcNui7B4uOA1EdYZxsFVpsQ1CYCIlB5BPIqCIEdVIu67+WDRS4TAetLNitI/7hhzovdG0Zyo4PVsYBVIefi/hWbmtsQeSsF/4dpFrTK1KAyhskZnxKKQNkRoL97fjYzktmDxGE0NHidHOjzw7RYudicIAWhR9XggxQI19Xjkp3Funaxr2MWoYsQ/gyF/iaunrHKDLokBIvdCrqeCPiLQB5HhLeH6Xq9ugbRekYg8VctVZoZCVAoMHKM+zhdXW5pxSX3z5g4oAfvxwWRw/CCk114n6DYP83GgPZPmwiIgAjkTRD2IFnPkcVqzbMEq1PZvCDV2V20EP1/LTj2rmCVPrfSmiq0BZHVUbiXc9R7mPVRhUbLjZ1SiUAlEMiLIMzEFd3JuKKhoyQIg9Nt0t6CcEa4ZOxPGD1ms4PTEsEpfW4l3YObDmS/XMs1As+nCrRZ/TM3bkolApVEIC+C8DEaySwC3hXl2EIPmuB0n9G5wT9yluzGdly6PTglz62ke3DjMRGEP856ns0xYFjO8blxUyoRqDQCCxaEZiQzgltWDiP52hGKQW3BIGD+gvSd20Z/wTtbcMl9wSh1bqU0DcVebD+ZQvBTPOOUjDkMlaLaREAERGAKAnmwGr06NITkW2gk0yTruykI+3BXZm1BZzCG+L3NWPRlHxZx3kViwPfqHuw4i0LwJqp+KQQ1HzhvmDpRBCqEwIJHhNuxLFqDkdX21q0tKAQcjy8tD3PRZM4Lvrs3KKWerZxd2NzYA+8dDJb9MY7/Dlas29mI6bgIiIARWJAgtOWWuhFjjEbnxZobDEaHyqpEhxC/sxXry8ZVohc3t1G4nxtG+HJ+LlZ/DEZ/VClFwA8EFiQIuUJNKITY2VWIhOU76IfmnLkMo1aig8OI/5gjpjtnTh2co/24cQkVoB9kRKNL6CTfLO1EcNpOJRUBPxBYkCDsxUBDCuEzFFfUD005exk4N+gx8s+jKbhb27C2LFSindiynD4fa7l24noabnHVCKnoZ+8JSiECIjCWwLyNZUwtmkLkVbQ8PNQMErT5m8CoSnRHDKm7KQR/4e/S5lY6zgmuqAIu5kjwYoo/CcHcsCmVCIjABALzFoSmFuXJZ4fpO6jN3wRMJQp4MRqP/CaGkTv8XdrcSjeIWw+oQmgdw8Ot45xgrXwEc+OmVCIgApMJzEsQcn7J2Y3BRfx8nSzzJkP12x4Tg4wl+gTXW//yUly+y2/lm2t5TB3KfreG562lEKyREJwrQaUXAREYS2BegvAenOMyisyp/Fuqh9BYnP77bj6DVIv2DCP1g8dR813/lXBuJerDrYurgfNZJ40E54ZOqUVABKYhMC9BeA5ew/lB52x7yGrzO4G0z+CjEeCLJ+DCQIf+6cHGVg/J93ENwUuo6q3XS5jf+57KJwLBIDBnQWhqUa47uJQre58qa1F/N7IZyHDUvj2FxNfqse4P/i7tzKXrxHUNHsJv58vXZRSCcpGYGZeOioAIzIHAnAUh0OG4SJ5WjWib3sjnQLrISTMGMohzVYnfhxH5SpEvn9fLedhcFUXNm2mY9RHqIBbLRSKveJWZCFQ8gTkLwgdoLcqH7FukFPV33zG1NV1bnqG7xFfrsWaHv0s7feksgHY3nFeHELqC/Y5h0+SqMz0tHREBEZgPgTkJQlOLLsXIEkbvOEUPpPngLs45Nhpkww5xNZDftCH878W5amGu0osdL6F69zLW6RhZKBeGsXIVgUonMCdBaGrRWi5rUyW1qK/7jY3WOYJ6ik7mX3Gwpt/XhZ2hcHSYX8V6rOec4Kup4p0hpQ6JgAiIwPwJzEkQmlqUKrc3y1p0/sALfaa1DZ3M+4cR+3kX8N+Fvl6h8t9Nh3n6Pv4dw6adY3OC1EZoEwEREIGCEJhTrNGVGKL5ukO1qN7OC9IaecqUwvBJhh37yuFYN5KnLIuazV+4nFIIibdSHXo+BWCYwrCo19fFREAEKotAziNCiy3KuZqXc623ZbIW9WcnsdEgXSZ6R5D4ST26furPUs5cKvaz8CJ4pzFw3zoKwmb1tZl56agIiMDCCeQsCH9EL2bOPZ2u2KILh17YHLynOKf2rw46Ajls70Lji9nH1nBu8HCtKVjYnqLcRUAEMgRyFoTHoLWWKqrTZC3qz66THQ2yfX76e3T/0p+lnLlU27Hp4Aii76Vx8mskBGdmpaMiIAL5I5CTIKQAdOi9dSwftocm5ceVP/p5z8l5mr6Dd50WwNGgRY6pReRNRPIe62+aF8x751CGIiAC0xDISRACVzsROjVXI+LKbGEakiXcnRkNhvpoxPSLPyESuLUGbf45gpqXu+lV5p1GzQuWsDPp0iJQgQRyFITmNuH9jR5Q/u0hNC7ZxkAHXwtiYO09aD0qhPC5LkJHS/Xu3z6mkolAuRKYVRByBOj0oHcFnbOP1byN/7qBRZGhpejgEOIPtqLpPv+VcOYS7cUtLdQ2vJlB3M9U/5qZlY6KgAgUhsCsgtCiyTioeVkVIo1yay5MIywkV4siQ5/B5zhi/w8H5w4vJK9in2sq0RTiL+fL1nkU6NWaFyx2C+h6IiACRiAHQbiKhgtJ+nXZI1ebnwhYi/AvNoTEo01o+oGfypZLWbrQdGQEkXfRXeIIjQZzIaY0IiAChSCQgyDcFmU0mVfoQVUI/AvL09SiEYR38UXluxwN7l1YbsU9m3FEG2nh+toUVaIJWSIXF76uJgIiMI7AjILQ5gf7ET2EZxyuNeDGcfPFD7ZPKob4Uw687/iiQHMoBOecj2NM1PdSrVsrlfscwCmpCIhA3gnMKAgZoYRRRZMvrUGkSvM3eWe/oAzNZYIjqm76d97XgkufXFBmRT65C1tX1iB8Ji97vOLWFhm+LicCIjCJwCyC8GpOQTmvMhWcNn8R4GiQrynedo6ovuWvks1cGg+3RUJInZhC8u0zp9RRERABESgOgVlWn2iNsBgnaH6wOI2R61UyLhPOIEdTv++C89tcz/NDuj2IH1EN9xy+YC3TaNAPLaIyiIAIzDQidHrhHciRx2FypPdXR7HxOS0td/Hze4djfWCWWtqBO+toffyqBLzTZSDjrz6l0ohAJROYVhDanCCtRY+tRljGDP7rIckRxJ5m3Ncf+q9o05cojD2rwvBWU51bLwOZ6TnpiAiIQHEJTCsILb4oLfteyqglxS2RrjYjATOS4WhwbwruzxZhw7MzJvbRwW7c0RxF5JQkvJOkavdRw6goIiACM0m5VYwo4xwvtagve4mpRb/vy5JNUygP/S/gobdRiEdkgTwNJO0WAREoCYFpjWX6sKuZD6yj5D9YknaZ8qI2N8iXkxGuQP+XBEL3T5nIhzt7cXMby30q+xMNr6hn0CYCIiACPiIwpd7THOm5ksGhNGxYwsgfPipuZRfFrEXpO7iHc2z3Lcaa/qDQoGHM8+nscRb7U0ijwaC0msopApVDYEpBaB5qFH9HVyHMB5c2vxAwIUKhsott8yO/lGm2cthokBFkTmE/epFGg7PR0nEREIFSEJhGEJojPY6zEYg2fxCwtqDh0hANTf7YhNTD/ijV7KVgeY+kgc/fajQ4OyulEAERKA2BaQRhujAvlKFMaRplqqvaKwkNTfbw46dOQHwHu7GpmWsNvpwahhdrNDhVq2qfCIiAHwhMKQj3oqmR04SHyFDGD02UKYP53VEt2glEfuKfUs1ckgTCh3HV+dNlKTozJx0VAREoLYGprEZpKBNeyRUNlspMprSNk716Ri3qDNEH79EuJP6U3e/nz+dwW20E8RfxZepEP5dTZRMBERCBSSNCM8hwkTyChjLy9/JJ/xhVi3bThOmXQQmp1oCRg8NwXhtFqE6Woj7pSCqGCIjAlAQmCUJLRbOMVYooMyWvkuw0y12OrPa48H5ekgLM8aIeOsIJwHxQT5F6fY7wlFwERKDoBKYQhFdTNYrn6y2+6G0x5QVtNEiLyxHODz7eiPgjUyby2c49aF8WRvgk+jsukcGVzxpHxREBEZhEYApBCJdC8HDOR01KrB3FJzDqNtHLK//WweUDxS/B3K/oIv48qnFfPfczdYYIiIAIFJ/AJGOZPixqAlIH6E2++I0xwxW7GeHnVzMc982hLmw2i+Pj+DL1fC635JtyqSAiIAIiMB2BSSPCBGLLmXiRlsmZDlnR93PJpcTOKkR+X/Qrz+uC7koayJzEUHAytpoXP50kAiJQbALjBCHf350wogdFZTFa7HaY8nqZJZfcAY6uHr4BnbumTOSjnR7uDjlIHUJtwokykvFRw6goIiACMxIYJwgtJecGD6WRw4wn6WDxCNB6t4et8UAHOnzv1tmPrjaOBI+ngc9yqdaL10d0JREQgYURmCDx0nM6hy4sS52dLwJmuRtDsjcOPJivPAuZTxLJFRSCr6DwNmNXbSIgAiIQCAKTjGVY6udpfrD0bWeSxIEbp4rxmV4MPVb6Es1cgvtxWySJkUP4KvViunvMnFhHRUAERMBHBMaNCB/A7RSMqZVSa5W+hcxtIgK3nyLlkUNxRU/pSzRzCQ5EgmpR9ziOBtvkejMzKx0VARHwF4FxgvAIdDV6cBZrROiPRqKxjPkPBsJalLFpl7O8L9H8sj/6jkohAiKQO4EJqtHGNlr9NUsQ5g6wUCkz84OJPub/h0JdI1/53suQamEkqUlwj0lJLZovrMpHBESgSATGjQiHkVjKt/oaewhrKx0Bm2Hjqu6cH/Sea0bVE6UrSW5XPhL1zew3L6Q6l9oE3xu35lYppRIBEagYAuMEIeNDLqcPYcVU3q8VHQ2rNkiB+GcHF/p+frAB0cVcc/BYqkUtTq02nxHgSwq4mgxqEU1/2m9tIiAC+wmMk3pc3WCFbpL9cEr5jZaXNJRxfR9km4LP6UFyKRfv4ohQm98I8AXFitQTR+LHMTj/y+9cWcY5mS9bNGrS6N1v7aXylIbAvhGhPdBoKHNAaYqhq04kwHnafg/xP07c77ffO3F9LdfHOJQq0YP1YPVX6zDUnYXGeIz39uVcFuvdzVj3yT7E30Wr3s9RED6XPuqvIqs0IlASAvsEoV3dQXK5VFslaYdxF2UbpIaR3JtC9PFxB3z4gy4TrXygruLIo0pzy/5pIEb4YWGch+LwPtGA9n9uw3qzQMZKbBjix4+o+XlII3gjok0EzCZj3OYskbHDOCBF/5GZH3RG6I7w9A607yx6AeZ4wSQii1jmVVKpzxFcgZKbcLORID/v5wj9Y03Y/XUHq2NjL5dCMsaXlrheesdS0fdKJrBPED6CjghnDLTqRIl7gz3IaDE6REH4+AsmPMBKXLRJl+fD1InCXURV2xEKsj0JT9F32EuUzQlyiuMnHAle0YA133bQQa3oxM1pDCFUa+m1iYAIjBkRHoCqOt4Y8iH0Qa/g+zwX4PV8H1YNuIHzg0lbhHeZfE9L23FMqNk4kG3x/RGkPtqMtf/DfdMM+pwmpqsvbYl1dRHwD4F9I8Iq1Dbw4dugeZ7SNw6FyiDn3XwvCLsQov9g6DDND5a2z5hamq4rSd67X6fv6RVtWPuLmUrEm76Gx6tmSqNjIlBJBPa5TwzBa+YbZO00r5CVxKSkdSV/LwaLKJN8pqQFyeHiFIIt7DOHa34wB1gFSmKWnxRsMc7tf5X95rpFuHRWS2NOgdCwiaFstYmACKQJ7BOEVKqY9V9YJvCl6xmZ+UHEk8DOOKK+X4gXCDfzgXqI1KKl6TMW15X/+sn/H5OIb6IQfLI0JdFVRSC4BGxaYZ8gpC9Yq91YEoSlbFC60CM0kkD82Xas4TyhfzdbdsnFEK2MQwdIi1D8djKjGI7EuzgS3DqEwVsX4yM7ci0Fe5lFLRrJNb3SiUC5EjBtFl8kvX2CkD/b0kqWcq1xAOqVGRE6w3xDeYbffS1fDkE31ei1K1lOGxVqKyIB8xGkOnRbHMmNKSTuoBDcO5fLU3hup2nNbjOt0SYClUrAwonyXhhOIPnufYKQqwZw5QltpSbANxRzeH661OWY7foUgg3UIKxkeUN8IM+WXMfzRCAjBJ0/0V3ls41Ycjd9BK2/zGlLoe5hjiJ/VwX3ROZXX4r22/+smeqbBfeYuH/sHjtu2/40k39l9oxPYfsmnpXZN9Xeqc7Npq7kT3t9mshm+leq6Y9MZJh7ysyZ8zHstF5ko0A7N47UX6h9+0gbLv2PrCC0erVMLJh+F58AzdptRLit+Fee2xXptN3ADmUjQm1FIGA3sE1dkPf9fIP9TAO6vuNg7RQ+grMXph3n9XXj1q30//T4SHh3FSJL6XqR16bMPNQyjyr7v/3OfGb+b/PK3Gf/pXjhJA14+Okk7Dv38bdnb1dWv32fPJbgCfabf07Sftv59p37+Wnf0wFU05/ML8V8Uhw9p+hbyXM8JrNr7vvO/Xbc4Yl2zPJMf/K7y/SWLfemj9s5TL5vc8guXb4x+9Kp+dvKnr7WvtRTfWFCpkuXd6rDOe9j+RhGyGM1c92cEOsdsnpNdQbrFeLAiHkaxvGbHeOeSdciX+Y3uQy8QJh8eVpmG83RdmRlT/aQfU7Km+VkUmeqtG6mLPurYPXhL5YD7v69Y7NPf+/ltMIT5PVzCsHvt+DStDYlfQE7qQeOBOEkZsXdYY+GESSGQ0huL+6V5341Riehq42zMq2km/vpOmMOBEz80QGeN7n3wxiSV7di/U/mcPqUSVtw0ZMe7v7YMLpuYUDuYzhheCgfZIv4LDDL8UkPHj5cuKWFhD2804KH5UpQmCYZrJ8CzIlTmPDTi3M/I9eAkWsyny5S/J39bp8pWrl6lj4e5h+jE/HPi0fSn/FEFUIUeEkKw0SyEeFEJ5/LCXSmWMbUIP9oRZY6Nf2U7rCnpD2+tInAggiM7fCc61GfWhDNBZ/s2JtwD9eF7FpwVgXMwN7SurClkfb3NJZRnykg6vRsIAULhUrq36kOvZZC8Pf5uh7VqibUnhz9y1e2ykcEAkdgrCBktAltpSLAN2p76MX5st05hIF0gORSlWX2614dcdDWxv7SKkE4O635pjDLUKos+5JI/nMSiU1U41Clo00ERCDfBMYIQqdBD7V84809P1M9mXqJH53PQ8dw7meWIuXKqjAG2ikI66nyKkUByv6ao0YxOygEb6b27/ZmXNpZ9pVWBUWgRARGBWGHTZ7WSTVaolYYvSxnoG1uxfcPvH7EGKLLWUyVXUh+p/ntM6YZGHWP+NMIktcPY/iupbjc1z6l+SWg3ESg+ASyI8IoL01BqK2UBChYRmh44PuIMgkM14ZRtchMxyQI89dj2P7pOUEajvxyBN5nWrDke82Zebz8XUQ5iYAITCKQFoQ9qLLYgzUaEU7iU+QdZlEX9r0gpIVFTZQWhjZ60ZYfAmZ9a0YxdPD9Nk3Mr2nFuvvzk7NyEQERmI1AWhDGuLo4LQC1wvhstAp8nHO0cfqI+dpi1BDQhKOaZWUkIgnCfHSJ0ZihPWz7r9BieNMSGcXkA6vyEIGcCaQFYQSuLcli6lFtJSJgo3E+CGNhJPeUqAg5X5Y+hNX0WZW7Tc7Epk84ahTzNJdP2kzXuzuWYIPv23/62uiICASTQFoQJhCu5ogwojnCUjaiw3AU3kgNquYUN7IUJebcYBXVd42TwkuUojABvaaplUcjxTxAy9DPMlLMf3I1+VhAq6Nii0CgCaQFIUch1R5c+oZpKxUBsrdwTwNxDPSXqgy5XJdldHuxuZYm/TKuygXYFGnGzAd+lzyvacL6X0+RTLtEQASKRCD9Up/knA+vxzhvGhMWifu4y9gLCP8sbFV/PWoZRcq/2yO4Okw1Xh3nCGVcNY9mMlUo/+0hvy10kr9YQnAeEHWKCOSZQHpESAlYZW+pMoXPM92cs0tHRGfMRjCiTNjX68Q1ojFE+8YaCu6oXptybuC0WVFmDUH3TzEuokvL268y6r3PIwjlXj+lFIEgE0gLwhRczhE66VDoQa5MkMvOCC0cEab6HFxo0WV8u1XxnYk9xRzqOa2sLRcCDJNmzhFJzgH/KI7YNc3ovo/zgZxm1SYCIuAHAmlByLf7KvmEla45TDXKh2WCa8r4en7QCIXRxyhEtRSEXtjKrW1mAqNWod00iPm/tAq9qQUbHpv5DB0VAREoNoG0IKRSlIIw/bXY19f19hGwlSf8LwhDiFIQmruNVsDZ13RTfMlahfIQVaGJUVXoBqlCp2ClXSJQagKjqlFUyTm6tE1B/glbaaC0pZj96g7qXBfxtKuNreGjbTKBjFWoyzX3kj/g0kmfa8H6n1Ewakp1MirtEQFfEEhbjXIGQ870JW8Oz1bc9r1q1IEt+M240Gnzj5JD810BRl0jdlMI3tiH2EWtuPinEoK+ayYVSATGERidI/QoCDXjM45M8X/Yory+dp0wJCYIqRrl/KAGOBO7iGlVeBftofX11iSimw7Aup6JafRbBETAfwTSI0I69UYlBkvdOA5HhEEQhGGH5XTVXyb3l7QYhPMTGsZ8vRUXSghORqQ9IuBLAmlByPd8WcqUuHn4MkKdY8j3I8IhDLDPOHQ91TaRAN0jvDgSOyOo2jHxmH6LgAj4l0BaEPJNVj5hpW8jqkZTPl+Z3iDRc0J6dGMwaaOxkxNFeNkQBg+YdFA7REAEfEsgLQj5P73hl7CJbLaNo4lUCglfR5UxRDVIsLiOnMGn6C8c1du/V9Qg+sYduL5uiiTaJQIi4EMCaUFIM3ipRkvcOKYaDfk8vFoGkUVWo8zWNokAjZ1sH9dpdM+vQfX7JQwnIdIOEfAlAY0IfdEsNpJIeTS59/0yPAMcEfKBz5UytE1FgH6D/OcdxCWWPlGH6st34sYlU6XTPhEQAf8QSAvClIwfSt4iJlz45+s4owapBoMpWo3GTXRrm5rAqDBcwlUmPlyD0DWduPHIqVNqrwiIgB8IpAUhTeHTn34oUCWWwUQK/5IRRH0vCPs4P0hVugThLB3VhGEcyXqqSf+uCpFNvbj55bOcosMiIAIlIjAqAD3NEZaoAeyyo5FHOCKMM+62v7da1FIOegwfxvUy/F3UkpfOGCWQ5God3ul0tt/SjZvOuh+3yUK75C2jAojAeAKjgpDhI7WVkoBFsE5w5OD78J1cTJbLRTnDFN4sq0ThbJ3GRvs2OuR2fBWi1x+JxPmd+HLDbOfpuAiIQPEIpAUgDTX0llo85lNeifO0qT0Y8b01ZhwjjICTGuKo0Pej1ylBl2gn1aS28PWh9DXsqMLQFZ3YsrxERdFlRUAEJhDIjgSznxMO62dxCKRnCb1mRH0/IlyCqgSl9SBL7Pv5zOK0Xe5XoZrURoftFIaXch2ra/uw9fm5n62UIiAChSKQFoBUcMmhvlCEc8g3M0doLglDvh8RWkxprlYyyD4zrLenHBp3QhKOCk0Y1pDheziqphHNTa+YkEQ/RUAEikxg9FmmOcIic5/ick5qAOas7vftUxSEyQEKb8ZF1RzhfFrLjGioKGXgcuf1DKKwmRalMqKZD0idIwJ5IjAqCD2NCPMEdD7ZZKSf+RG6vh8R2uiVFpBDFIH9tuyQtvkRsDa3eUN+Hk/n+xsOR/yCLmxunF9uOksERGAhBLLarVAAhiILqafOzSMBLx0KzumRGFw41IwRjXcIhWFHBO5HZUSzcKbKQQTmSiAtCCkEswJxrucrfQUS4DwX5wedPRwdVmDt819lM6JhYLZFGSMa55rd2CQjmvxjVo4iMC2BUUHoyX1iWkSFP0CHa/MjTCbR73vVqNGgsccwC9pVeDKVcwXzNUzAoxEN3htF9AuKRFM5ba+alp5AdiSoV/vSt0VgSuAiOsiO02lGH9ryR8DCdXPW0CzXTg/BvYmRaN5yPy7QS2r+ECsnEZiSQFYQMsSaHmpTEtLOSQQiGBri6KXTVmTXG9QkPAvaYcHMTVXK+/EljDR0w5E49v0ettYvKFOdLAIiMCOBtCDkXI+eZzNi0sGxBAZQN8xoRCYIuZCwus5YNvn4bq+ksfS8oXcYR4af7gcu68fWpfnIW3mIgAhMJjA6IvTCGg9ONPm55gAAOBNJREFUhqM9UxNYhpYR9pfOELyerEph6pTauxACGYvS5GIyvpy8P815wyMWkp/OFQERmJrA6KoTGhFOjafwezPjqfT/U/VoDoSxjIPVyT24qZuahE4uM7TEomhqKwwBM6Ih41pa6VJFimU92PyZJqz/db6u5uG6hkHUHsnAsUdRHdvKDki56zCwOm23aMDFAOtJXjvhwuNvlztTjIDkcZ/L3076O9Ol+FJkaa3/8s/2WyQ++7R9Lh2VQ0yfSFlcvjDC/J7ybDFqSx/JnEelsJOKZfbxe5LH7dywx3B06WMeuOgJ7JdtmeOWLvPb0iRGz8nuqUnv43W5f3ywCo8ridXSb5ej7XFbHaqYNsSCxfblm03gYYTH7B1w/JZkOZPMawkGWC9qttHBoBO8tLbAEEgLQnZsLcNUwiYzJ3XeN1PeZCUs1oyXZuBtOtRHnuVD8ugZE+rgggmk17zn4tn0NXyzg9CiPdj897/Hnu+dho55Bz5nh3O6sOm0XkQ+zHxPrYJTO94dJmOjk3maj1+GeeK+7NHMfquu7cmen03NWWUescgdJrDSH/yffcbTR+xrigLThKfp213OP5sgtNrTrjotOM3dOZFVxvM7b5nsL57tUGiyP/Kc7JYOh8s06fP4md3sxdM1yZ6qzu4a/UxRALL0lvGY9NlEVqYa5m/36/4tzEW1w3xh6EE1L2jTBVsG98LrZ6Ie/nXxajtZru2sz7Os+3MRRHbUoJNW159iYIrxee3PVd+KSUAjwmLSLqNr8ebu5U38dBlVyddVMdFiRjQRhE6sRmjj8Vh03Q7c+W9L8d6B+RS8B1uOr0P4I7T8fb3lG5vquT+fjCecYyInu435bl9Hf47ZO7ors2fsfkvM6KzZjKb9HH/O+GTjj1l+028zHZt8VjZ1Ns9MWTO/svtMcppIj3HkOIJUXwytuxzc/NRebPkzz3+Y7fAwjaMeq8HOnc4CXnAml057ciGQFoTsYAqxlgstpdlHwEVtbwKJZ6ii2rdPXwpLwB6mZkRDYXgER07X1qB3+Q7cevtSXLRrLlemUHU43/hKqjlfaC4whXSDsTLPvM2eInt+7imzZ8z0md/cZrrS2GMUjOYe0+Qi1ERDqMPZjq+xlxy2qxdDYk8MbY+zbR6k6P+li9QD3Yg/thIbuOyZtkIS0IiwkHTLOO8eDAzUI8QRocOVKJxau5m1FYeAGdFQnbmEfx+tQXL5LmzcuBgbHsv16tuwqboOoeVssaZcz1G6/BCw+8TuFPMYzbjJZPLlqNDhvGsbhaP9vZSpLuQofbABkSf24uZf8h77YRTuL6qxc5tGjPlpi7G5pLUNhE4luh5kY8Ho+8wEVuBSW6Xe5gh38q125sQ6mncCZkTDEV092Z9fjcj1e3HT8blepApVdr9HmT59/+d6ntIVjoA9fS3QHkeFGOL/h9PLfXq1fNk5uhrhD9Cg6F/5AnR/D9q+wxHjhj248RgPHdaG2vJAIHsjZD/zkKWyqAQCFIK8d71uvsU+yb9KqLLv6mgPTgrEMPmfSXXpTZz3e72Hu2ed5hhAZ4LtN8wKSa/tu1bdXyBTWdvo3wTjCFuaN1xbFKHXRhH+Aq1wf96HRT/oxdYP2wLPHm5TBKL96Ob8LfsEy37OOQOdkB8CfEPnMkyhMRZv+cm3sLm4e9hxbLJfW4kImCYno2JzXhlGaFMfdr2bD8XamYpzsE01wtnL0bwtp6UtIATM2MYEoglGbnUcLZ5MdekN7AM/70X86z24+T19uHUxR4p6ns+xTbPAZn2LnGO+Sj4HAhmltOOlUJf5OodzS5m0B6G9caQei9M/TA/U0rWEdRozouED8fmcX/pcH2Lrt2Nz+3Ql4hxTijc+X2Kcfo4Mp0um/T4mYKPFjFA05xOvmQLxzVSf3km/yl9wpEhV+ZYTpDrNvQGzglB3Q+7MlHKUwIHY1ceHsBlpdPGhKi4lJmBqNI4alnJk+PFaOFftxS2HTFcktpYJQfNjmy6J9geEgAnFYY4UR9j+bM1DqD7dwBeie/ux6B7OJ57l4fq6gFSlZMVMC0LeDOZxqk0E5kTArNcoAOko7D6hecI5oStY4sxyTqkGPgg/6CLJkcHNL57qYnRLN/VplalWtZUPAWv/Ic4s8oWoni9EZ/DZ/rUB1PwP5xLPp1BsY3vrzWeK5s6OCKc4pF0iMDsBeqHt5kP3IY0IZ2dVrBRjjGjeyognN+7FZvqq7Tei2cYHIv2mXsTQeMsL6UNYrPrqOpMJZEaJpiNIMn6m8zJaF99OCXgfheElO3HjEgnE8cxcvg/S/E8h1sZj0a9cCaRQtTuG+COco2J8Rb1s5sqt0OlspDfqp3YSY3ve0oMdl3Vh4ws66WbRAO9TfHF5O8tQY+m0lS8Ba12bPza3DN6fL6DF6cZaRH7Ui1su6cM/tksgZto+OyLUE6x874WC1qwF222e8FFeZLtGhQVFPefM7SFoYwKO2g+n6vpzLsK/icD9GR+I6zhiaLcj2iqHgPUF80/kw/4oGtdsBIbupaXphXtwW8UHVsgKwuxn5fQK1TQvBMwCkcGOn6Mp90P8y0ueyiS/BGzeyP7xRaWGvp9VaZMaCcH8Qg5QbmME4gvof3prGInv0cr0nOfQMaPbTYCqOOei8snVwRcEjypSvR3OmZ5OSBNIILaTI4wHNcLwb4ewu9vmjXSX+7eNil0yE4imMuU8MucQ3bvqsejfuLzaqx6uwIg1eoUvdu+b5npsiMA+oxahp4sP2d9zYt6ctKepoXaLgAj4kYD5I1JL4HJ0SF/EyHcOpB9iN249uJIc800Q8s8ZDb7tx2Yq/zJxtTU603tch+2ZQApDqkdjDAD1V4Z9onpUsRnKv8eqhuVGwHQFNn/ICLYNFIjro/B+0INFH9hRIT6IGhGWW48uUX1oifYsBfqvpHwrUQPosiKQBwKmPs/4IXqHUWXKWH3V9+zGzS+7v8xjmVIQLrPoyRKIeehElZxFDdo6GcH5fipZpB6t5I6gupcFAVOW2l8E4dOr4X7ncIx8bC8+21IWlZuiEhSALTapI0E4BRztyp2Ag9UxjgYfo3r0QalHc+emlCLgVwI2T5NRl6Zao4hcHUbjN/pw88nluNKFBKBfe2EAyxVG8hmqVn5m5vnaREAEyoOA3c8mEGkIdxJr9J+9SHycwrCsfA8pCAdcDgkVa7Q8+mxJa1GH5Ywyk/o1xeCzNMcuaVl0cREQgfwSGF0TsZHO+B0D6WWfNr+UlqVlYWjpbkO3qUZl857fPlORuVE9mqT4e5yT7D+Tc31FdgFVuswJZEeHnAJ5tYvQt/vR/sHZ1r8MAhK9tgehlQJUxiRCT/NmuY/OuiOKPRqghlNRRWAOBExVStfnRRQgW/oR+1I3NgXa79BdAXuJt6DbgXRhm0PTKWkxCCzGGlvn7kGqGH7PuJbFuKSuIQIiUAICFrrPotPQsvSdYUS+vQfNrw1qVBo9qUrQgcr9ksNw/so1Cn/AuUK9XZV7Y6t+FU3AbnDzO2RQ91VViNyzEm3rnwPdDwO2uZ0Y4Ms7l6zSJgJ5ItCOzl1DiP2MFqR/lStFnqAqGxHwMQGLWcr7nQtCh66vR/yWTmxaRneqwMgVN4RWjgodW5dQmwjkhYCtSMF1zx6lwcz3pXLIC1JlIgK+J2CGNHEKxChC76tG9P9xRYtjxi4I7ecK6Dnl59YJcNkeQ3TbMBL/w+iFu+RKEeCGVNFFYA4EsqpSvgS/gjYC3+jFrtcHwQGfPoRVHL4GZwg7hzZR0hISOAEXxjmJ/gfeED+QK0UJG0KXFoESEMhYlboH0Qn/q90YPvev6KguQTFyvqTrpq1GZd6XMzElzJnATiSejCH5XVqW7QnJVTVnbkooAuVAwNSkHGTRAT+8tRltH/WzEY1Uo+XQ43xah8OxfoRLuvyWE+jfl9GMTxtJxRKBAhIwExrOHYarEOqoQ/zznbiuoYCXm3fWbh+GpRqdNz6dOBuBHUg+EUP8P2lVplHhbLB0XATKkIAt7UTNEI1owmuiqP2HXtzcxmr6yqKUVqMpsxrVaqpl2AH9UCUbFSbhPcCb4NsaFfqhRVQGESg+gczCvzHQ1/D/8Ps/9uPGxTSs8Y0wlGq0+H2i4q74FGo4Kkx8k+ubbZcFacU1vyosAvsI0L/YhOEZSYT/eRBbfONrKEG4r4n0pVAEzILUQ+R+Rpv5d1qRFeoyylcERCAABDLCMPx6mtJQGN7sC2FI1WjY1KJahikAHSjIRWzGzqc5V/hNqkn/TAOaIFdFZRcBEVgggdGR4WtScP5pN25cWmo1qUaEC2xQnZ4bAYs2E0f8QRfeVzl5ntTKFLlxUyoRKFcCJgzpa/xa2g98eSdubS+lMJQgLNde5sN6LcXlu0boV0j16E81KvRhA6lIIlBkAqMjw9NrkbjlaXy2uciX33c5OtR7Jgz5Z8FxtIlAYQnEUPOHBLx/oX9Rj5zsC8tauYtAEAiYMIwicnYjar+wA3fWlaLMFIBhs16QBUMp6FfgNZfjwkH6FN1HIfg1Lt1SgQRUZREQgYkEhikMGaj73Grs/ZSHO4oejk1Pooktot8FJ3ALuh+nivTf6E/0sFSkBcetC4iA7wmYPnKEIdnoa3z5XvRfxFUrosUstARhMWnrWmkCHTScYYzbX3tw7qDhzLBcKtQxREAEzOneotBE4Hx2D7af6eHecLGocI6QHhTpOcJiXVLXEQGgBZfudRD7Dvvf1xVxRj1CBETACNiahpypq6I16dZe/OGEu3F3UXytNCJU/ysZgXr0/GkEsTsZlvcRLuZZsnLowiIgAv4hwNVqqCJ1F1Egfvm12LWCI8WC27BIEPqn/SuuJOZbSGXELxhh4nY62vfLirTiuoAqLAJTEhjhWvcMxbYKSG3Zjc/XT5kojzu5MG+i4NI2j+VVVmVGoA3rex1436L7zlcZgk3my2XWvqqOCMyXgLlV0JL0byOo/mihjWeyc4TSS823tXTeggk0Y/3jVIPcQRUIHe2LNj++4HIrAxEQgcISYFhGPhHCH9mLZ998LzoK9nCQarSw7ajccyTQgMUP0GLs5hRS22Q8kyM0JROBMidgVqTcIoyJfdPRWHxooeYLJQjLvCMFpXoOVsf64fw3XSq2Uk06JCVpUFpO5RSBwhIw4xlGnlkRQXIT8JXaQlxNgrAQVJXnvAiswNouWpDeQzXpv5ggVGDueWHUSSJQdgQy84Xh07vRvc7DbZF8V5DGMhk/QkUazTda5TcfAjZfOIzU7RSC/6WoM/MhqHNEoDwJMDQj5wtDn+hD/AQPHXkdxOU1s/LEr1oVm8C9+PGDDLd0E1/Ofs8lWop9eV1PBETAhwTM2Z4vx/W0I9i4F02N+SyiBGE+aSqvvBBYjXuSrWj8URLJGzg5vk0jw7xgVSYiEHgCw7QirUH0RC4WcXE+VaQShIHvGuVZAQfnDqeQ+FYS2Eivey7ZpK5ani2tWonA3AgMMzg3bQgu60XiRflSkXKO0AnRo15Pmbm1hVIXgYDFI40hdhetSLeyj47IkrQI0HUJEfA5AapGGXXGVKTJzwHL8rJkEwVg0imUb4bPeap4ASDQjku305foSxwV/iNf2lKyJA1Ao6mIIlBgAkNUkVYj8uoexN/NqDMLDgijkWCBG0zZL5xAM9b91UV8C1/Y7pJbxcJ5KgcRKAcCCY4M+Uy4cg+eWU7DugWFCpUgLIceUQF1aMClf+Sc4fUcEf4HI9PLx7AC2lxVFIGZCCToTlFLR3sX4cuB2xZkXq6g2zOR1jFfEeCc4e9oQn0NC/XdSFoY+qp4KowIiECRCZgVqYvQeb0YouHM/JdrcpkN9auORoZFbkBdbn4EqCa9fwTJT1MV8gML0L0gfcj8iqCzREAEfELAlKNVCNem4H6Sq7nNe1QoAeiTBlUxcifQivW/osO9LWb4QwnD3LkppQiUI4FhLtdEX+M39WL4b+brTiFBWI49o8zrxFGg14qLf8ElWq6kOuR/zOFe1qRl3uiqnghMQ8DCg9LPOESf449vQ2PVNMlm3C1BOCMeHfQrAROGbbj455wj+ASF4fdkQOPXllK5RKDwBGyukOEYT6pF+E3zGRVKEBa+jXSFAhJYhEt+leCbIOcKvmXRZzQyLCBsZS0CPiaQufu9y4BVcx4V0mo0bBOMEog+bmAVbWYCzVj7WxfexzlIpGet69kNoU0ERKCyCNBuwAxnXtaDnW+c66hQAtA3fcVx2tHum9IErSD1WPcHxiC8imrSOygM4zY61CYCIlBZBLisIN3sU5cAB0XnUnM9LeZCq0BpuSq7DWHc3ajWUGYBjNtxyZ84Yf5pWpNupvnMgM0bahMBEagcAiOcK6Ql+St70XtqxxzWLNSTonL6SEXUtAVrn3Iw+Pk4ktdSRdqpJZwqotlVSRHYR4DBNhy+DK/51Bym/CQI9+HTl3Ih0IDLdzWhbgtHhx9z4T6uxX3LpWVVDxGYnYAt0xRC6LU70HxcrtFm3AQSFrnbrNFnv4JSiEBACDg4r68B7V+hWfWlLPJvTBjKojQgjadiisACCFD4mdFMVQ1C7wfuyWmwR6tRGtktMHL3AsqsU0WgYAQcrI61YP23hpBYyxil36IoTMmitGC4lbEI+IaAWZBStp09hG1LcylUTtIyl4yURgT8SMBUHYuw/tdmSUajpFs4Z9iveUM/tpTKJAL5I8AXX65XGG0fQeRtubhSSBDmj71y8jGBZqx/nCqTjjgSV3JU+HQ0HZbNxwVW0URABBZEwNYr5Hvwe/i/WV0pJAgXhFonB4lAI9Z27QJu5Wz4h1juX4QtQqGc74PUhCqrCORMgC+9docf14/Wl81mNCNBmDNWJSwHAodj/UgdPvRtziFcwLBsX6EwHDKBqE0ERKC8CJj5J41mXFqPvxO4ekYfbQpC2stoE4EKI8DVKx4aROiyJLyr+NZIVamsSiusC6i6FUAgxlEhX3j/tg+LWmaqLqWgG5JZ+UyIdKxcCSzFRbsa0LmZKpQLOLn+Y0ai8RSarVxbW/WqRAImBqsRWZ5CkmsVTr+CvVSjldg7VOd9BBx0xJqw7ntc3PM83ig30RF3jxnSaBMBESgPAgyqQXHonH0PVk8r76Y9UB4IVAsRyI3AYmx4bAjOlQkk19DW7LeMV8jbR7dHbvSUSgT8S8DUo5z/O+2NOHXaVQ10p/u3/VSyIhNYjDX9TVh71wjwbgrE2xmzcK/cLIrcCLqcCOSZQManMNweQ/K06dSjEoR5hq7sgk9gEdb8MY7ayzh3+CFOtD9gY0PNHQa/XVWDyiVgyzPRVerN01mPShBWbt9QzWcg0M5YpU1Y/9UUYu+gqvQLXNZppyxLZwCmQyLgYwLmU8jR4Mk9qGqaqpjpWKPyn5gKjfaJANDEucMGpD7BZZ3eTRXLd6gqHbYQbbpn1DtEIDgEzHqUmp0VQN1L6F846falIEym3Se09kRwGlUlLS4Bh074DNH238Dw+/heuZ5vlr+nE75nKlNtIiACwSBgGh3KudcBHZMFYTCqoFKKQOkJNOKy3Y1Y80UKwTM5Ovw0/W+fZOQKzR+WvmkCVQJ7Ck96EgeqBsEsbCb2KE57BLxpJ2x6pZ0ARD9FYDYCNbjoyUZ0fTqG1BkUiJupKH1OAnE2ajpugUusn/DTGw3/xV96BBerZ3B6w9ivWom2QyZeU60wkYh+i0AOBOiIn2rFuj/8CRFal6bewrfN22hZuqMKNoOo2yoHhBWVxIQg/8X5ML6T/eMNLiIv44vUx2mI9STddFJ2VFthCXBKg1FmwtUMq/iKifOEk4aIhS2KcheB8iJwAi6Ms0b3e7jt9z0Y/iIj07yPZtpnhRFeQdeLTKRDm5nQVtEEzB+VL0t3JTFyVRMue2oUxq+7sfm/GO/5+iqEXkU/tyrrM9oKSSD9wnEql2e6Y6yCWq+uhWSuvCuGgEOB2IyLH/gu7rvUQ+x1fPP/DB9qf7K3fVOHabmniukKU1bU5qc46vtlCtHusQlasP5B6hDeR63C3ewn/bJHHksn/98ZKMNeNV66HVfXjM1dgnAsDX0XgQUSWI17kg249I+MX8pVLbxXJ5H8IB+C99Kkpp/BfykS7VEnNdgCMQf0dC/MWcJJjV+Li57tR+SDHBFeS7XpLr02Fa557YWEL6WHVKP5sLFXoSCkB4U2ERCBvBOow7rnGrH+i8NwzmC8wzfzbXRLCqnHOQJIZoSi3kPzDt2nGdoLkAfngCiGqqcq4nJcOMiFoz9L46vzefwPfGVK6oVpKlIL2zc6TxhxEDp+bE6Ugg79CLWJgAgUioDFMKUK7L4GrF0fQvUrqTJ9FwXjXfx8jnNHqaxQ1H1YqBYofb7WtnztWRmHN04lN7FkjVj3Tc5dvZ0C8Vs07BiUSn0ioYX/zrxgpMYZzOiVdOFclYMI5EygHufvbMCaf6P7xbsScE9MMMA35xP/mUKRI8VwrAbRtIm9LE9zRhqYhGzjJhfRWQ0U2T/+mEDkfcNI3ESjqz3qC/lt4tH52uOAjn3rrc3aKPktgnITAREwAuZ+wY9n+PdV++vBl1pTGDk2gfjJnMx/FfcdTXVaO9WoIVPncISQ/uPDlIe0BZEAR4VxtmJODdiKC3tYx4/3YMtDHMF8mlFRnscXJtf6graFEcgYzDiH7UHDMuZk9yDn7rWJgAiUnEATPrCHhbjX/jx0hAfQvshDatUwksfzQXgcH3+r+CBdSeHYRGOKkKnM7KFogjH7Z78zj8nsZ8mrpQKMJ/B0HM7Q+F0z/6LR1b92Ysufq5C8jqrSV44gIReLmZHNetTuF7uPkggdxcQShLMSUwIRKAEBjhapMcWO0b8fWhE8bK7iE7Sdap2DYvAOodHNYRSGB1HkHcDxZTs/W5isnt9rKDirGL/ENZVaevEZy2B0M0FpYjLzL/vdDtqe7P/tM7tlRWv2tz7nSsCsQCnATADetwj19sIzp60d6+7fiRv/D1+ErmLABptf5kPcFAra5kvA/DqHkHwRz/+B5aER4XxJ6jwRKCIBC/zNy20b/fvZ2Et7oHcGnqgZRKI+iXgD33gb6bbBh2WimW+9zRSYnJtKcfkZp4nH7LOBYq+eY8o6fq+l4Kzh72qKPLPtj3JfhL9pWce44mljOselMYGTFao2GrV/tmX/n/kcW6ry/T7dS0L2lSF73DgZMwqtwQQSXxjB8E+asW54PmSW4JKd96Lj4uPQ+hBHM59wEV5OFZ+TeX2ZT46VfY61Ef+O5Z/DvmsdXVtpCdjNghTf70YWocdGAtpEYE4EHJxm/aZv9G/7XE720MHutyq8E8MRqt8iYQxHY4hHQwhHExipYqQcfsaruDRxlHFyokm4URdelObnFJROhHNeET5L+N2lj5wXpqDlM8X85ZxQ5rtLy3SPRgkp/plo8Lifr+P7N14/nWZOspT58xnmJXkNe6blZTOhxZG2lT1bFisnywfOzVmZPVupx36HKYDs2cm0Nphw+JtOovxj/fgS4ZCRY35pvRyVP0Jn+W8OIfrr5Vg3yDTz3k7LaApu7cZNj3Lu+HN0wD+OI017aZl3npV6Il8UWXXn+YAZzHQkJAh90RPspnbYMnyOaBOBIhIYNdqJ8ZL2py0ABFpw8b3bsenttfCuoevNW6gqrZOqdG4NZ8v08sXmoAE0t/HLTnu70SYCIiACIhAgAstw6ZO9iH9gGLFrOfrcbfPB2WFsgKpRsqKaiRmJtXD0caAVgoIwrcYoWYF0YREQAREQgbkTWIkNQ1ww+to4Eh+gEHyELhaKRpMjRhsPkpfLhZkOt1MssoxeJHKEp2QiIAIi4DcCVJV+g0s6nUOL4u/SxWJYY8PcWsg4cYIwIwhzO0WpREAEREAE/EqgDesfSaD/3bQkvYmGNHtpWerXovqmXDYqpFHGYVYgzRH6pllUEBEQARGYP4FWXNFTj7VXMJ7pWj7k/0rVnxb8nQEnLYR51DnIkkgQzgBKh0RABEQgaASasOb/jiC1mg/6H9OqNCZV6dQtmF6ZEFjuYWONBOHUjLRXBERABAJLwKLR9FMYjiD+Jfob9ilw9+SmzIwI0bYbkRYJwsl8tEcEREAEAk9gGdZ3fg8/Xs94tZfRKPJZzh16sozc36w2R8itIYTkIgnCDAz9XwREQATKjsBq3JNsxtrbh5B4B6Pw/JKxSuMUimVXz/lUyCLy0KiIAezdxRKE8yGoc0RABEQgQAQW4+KfhhA/mz6Hd3LesF+q0kzjWUB0viBIEAaoL6uoIiACIjBvAnW4dPsDOPqDg4h9jJns5ELQFa8qNUMijgiXa0Q4726lE0VABEQgWAROY4D2Vqy/mbFJ304vut9UI1rRqlIGLbcR4XkShMHqxyqtCIiACCyYQAvW3zeEgbOGEf8XqkoHKlVVasHKqR49irHWFGt0wb1KGYiACIhAwAi046PPNWHJ+RwVfZQGNDu4WG1FqkpNGHJEyOAD2kRABERABCqOgIPVySas3crVGN5mVqUcHVakqlSq0Yrr+qqwCIiACIwn0Ih1PxuC81aODr9OB/yhSnOxkCAc3x/0SwREQAQqksBirNnBBWsvoDD8HufNRipJGEoQVmSXV6VFQAREYDIBrmLRm0L8KqpJt/HoaPCVyenKbY8EYbm1qOojAiIgAgsg0IoNf+ByTo8w6krFzBdKEC6gw+hUERABESg3Ah7utsUMq2hAQ0PKyhgUShCWWy9WfURABERgAQT2YvvJXMvwBXQriFSGGNR6hAvoLjpVBERABMqLwCA2r3AR+gxrtbi8ajZzbTQinJmPjoqACIhARRDYi1sOScK5g8s1vYSBxypmNGiNK0FYEV1clRQBERCB6Qn04qZXhZC6J4TQqTEkorZEUSVtEoSV1NqqqwiIgAhMINCNze91EL6LfoPHUQiGK00IGo7wBCb6KQIiIAIiUAEEPGys6UX043SeX5dEsonO9BVQ66mrKEE4NRftFQEREIGyJTCIjQf0InJDFUJvYSSZGjrQl21dc6mYBGEulJRGBERABMqEwG5sfUkc3k10kTiByzDRKKayhaA1a5h64ZCWnyiTHq5qiIAIiMAMBPZi89voLX8dV2U/eARxV0LQLEY5Q0pmMpiZoePokAiIgAgEnYCH2yI9iH04DOdyqkFbY0gGvUp5Kb8JQfLolGo0LziViQiIgAj4k8B2bG7vQfzaGoTfMYxkfYqPfm0ZAlWIYAgj/yBBqB4hAiIgAmVKoAsbXxCFu4lO8icPI1FV6UYxUzWzB/fPEoRTkdE+ERABEQg4gT3YcnoE7vUhOEdRCIY0Hzi5QbnKBucGvV0ShJPZaI8IiIAIBJaAhw63B60X0j/wKgq/pTYfKLvQyc1pCw/HkbTJ0p0ShJP5aI8IiIAIBJJAJ65r6EPtVdUIn08B2MQVJAJZj2IU2rwl+ILQF4UjY5liANc1REAERKDQBLqx6eAwneQ5H/hGOcnPTpsuJBSEyd17EO/WiHB2XkohAiIgAr4msBObXhlC5AtcVf7FnA+Uk3wOrcW5UySAZ1diw5AEYQ7AlEQEREAE/EpgDza/kwLwWjqEH8SRoCOjmNxaykaEVI4+YaklCHNjplTTEPBwL/vQI9U9cCKDGGSUouiUgYrq4KY8xDRnPw3H+e423gNIFT0ohoOI4+bxug5iTi0DXTHGx5T9ZzY+Q4jzXM91MNdAWXaeXTPX8xI5XceDk6LF5lAN3G7ggiEaZuS973vYXNUD98MROBtoDtMW13zgbN1k3HHraPz7s+2UIByHRj9yIdCFzY28yU/jzf3OHjx0FN9Am3letAZRe5pY/5q0cdLe8xDWzP0kMvPfYdKPztFuzTTM559zLmfG7cmeRwEccmLw2HfiU/af2UpkEUKsPB5SOZ/PhDwl5NC3jgKUSrIcNp7A01y+BPDbNBvvBytDisYqI3EaYri49YFubPlqM9wfOljTP81pc9q9A9cv7oN7DZ3k385QaQ2yC50TvnRiMyRif3nUfkgQzp1fRZ+RWbrFOYNqBQbtDTFUky3eImVMpXUKa/GcJU7R4BS+RNOLv/2VNLN82/j/Gt4nzXRoP5zxPc/qhXdDH27d3ICLdu1PPfdvO7DxhXU0iqE69BQGzZaT/NwRsm2og0AiRlH4FztdgnAeECv5lB5EltIq7SS+gbcOYKSSUajuIjAjAROaKfrwmdN2CG4Vx6wbuOt3Hu74loNzh2c8eZqDXbjpDXwB/TwF7CrOB8pJfhpOs+3OGMp4O4DeZyytBOFsxHR8HIEUQg0cDazI5c143In6IQIVTMDUcDWI1HAe72+60P0Lonh2LjjMSb4bbRdwPvBKnrc8ntbEzCUHpR1LIMRXkwRSf25FR5/tlyAcS0ffZyWQxHDUQ7Tej4qxWQuvBCJQQgI2QU5V3KHUqNTOpRhd6GjsQdsnahGik3yqRU7yc6E3dVobEVJ1/WD2qARhloQ+cyLA+Q4zkmC/0ZgwJ2BKJAKjBDIz6V5tHC6nDHPbzEk+hOjnuZL8GzkfWGfmHdoWTsA48oXiAQrDNFAJwoUzVQ4iIAIiMCsBM6Hh3PpI1AaGOWxduPnlXD/wBo5eXmIryUsI5gAthyQ2FuT86nCE87XZ5Hk0f85mqU8REAEREIGJBEatSftTcGf11ejCjW+nwLyTwvNEumFICE6EuYDfDEZuKuonGuA+mc2Gjl0Ofb/sXUWbCMxOwEPInKRyeqOdPTelEIHKIkA93Iy6zb/QSX4JcEkIYTrJpxabxam2/BKg2wlXnUj8Brg4ls3Z5no0KszS0OesBOLsQtWIUhDq5WlWWEogAmMImJELpeAKOlRUj9m97+sO3Lq4DslP05jmnfRxa5ST/D40ef5i7yLOj/kE2/dSIiGYZ8Tlnh1vUnae/IeLKnduqp8I0FzfQvG8kPN+r6cvoUVj2rd1Y/NxNUjcydHK+zh/JSG4j0x+v2TnB8nZXFj2bTKW2YdCX3IjYIJQqtHcWCmVCOwnYFajnIri1J/z970YOL4HW75D1Uo/RyYncR8DZ7vLKAQZJm7fQGX/yfqWFwIMDWkRZR7dhq7Hx2YoQTiWhr6LgAiIQAEJMDasWY7WRhB+FzVz/7+98/uNo7ri+Jn95V+xHbtxAhW08ICEgtS/oJX62DfUVo0qVUJCQsoDidWmSisQKFYLyUub8qOlpWqhQCEURBCloEKhEDUUpUUNadW0tCQESEOI7XXsxF7vj5np9+x6l9317s6sPbO+s/udCDw7c+fOuZ97Z87ce8859xuq8jROKlZK1xd0iHdm1kpA5wfhi/nadtmXF5mqQKEirKDgjh8C+KbFsxu3OUPohxbTkMBqAjpTiEDZq0/wSOgE9IMDNqMvowdecy/OEdbg4A9vAsWhUY7deINiChIgAYMIqNsEet3/cyV5rNpQRkWkIjSooqIhiq3uE7TpjkZlUUoSIIEVAhiORj/Qen1ULszXQ6EirCfC3z4I0GrUByQmIQESMIiAzs9CET4nsm/ViBbnCA2qqCiIoitvQ072CKNQWZSRBEigSADLYOmw6HkEeX0dynCVImSPkA2FBEiABEigqwmkisOi8odNkp5tVFAqwkZUeKwFAceF5Sh7hC0I8RQJkIBZBDRUHV5aT8NlYlVvUCWlIjSrvoyXhpFljK8iCkgCJFBFYCW26GlowCP11qLlZFSEZRL864sAnFHRnlz2CH3RYiISIIGNJpCCEz1sG54Zl/TlZrLQWKYZGR5vSACNClHaiwYzDc/zIAmQAAmYQmAltmgWPcFDzYZFVVb2CE2psYjIkUWPEJExuAxTROqLYpJALxPog5EMVvH402ZJ/6PZsKjyoSLs5VayxrI3Mj9eY1a8jARIgARCI6CWMfjvYfgOtpzO4dBoaFXQnRmnisOiOkeI7ytuJEACJGAoATWSyUrulCXOi14f7+wRGlqJJovFZWJMrh3KRgIkoATUSAaDno9slvkFLyJUhF6EeL6GwLLY8CO0Wg4z1FzAHyRAAiTQYQIaSSYjuXS/WI+2MpIpixWzJMbh0TIN/vVFICbQhdxIgARIwFACaiQDi77f9MvWs62MZMrio0eoiwlwIwF/BEpzhIw16o8WU5EACXSagC50nJH8EuwYfiqyw5eFO4dGO11LEb9ftij/6qC1ES8WxScBEugSAv2SVEvRw2My+y8/vUEtNhVhl1R+p4rRB6tRi5FlOoWb9yEBEmiDwIoD/TIsRe/xcpmozpaKsJoG90mABEiABCJLYAC9QQTYPjwqnzvh5TJRXUgqwmoa3Pck4EpBw8rYtJbxRMUEJEACHSSgc4PLUliCAvyByBfbsmynIuxgRfFWJEACJEAC4RDQuUGsQv9EKZxae3YMVITh1EkX52pr0O22vra6GAaLRgIkYAAB9RtclvzFuCTQG2wdTq2RuFSEjajwWFMCriQxKko/wqaAeIIESKDjBNRvEAuG/2xYLiCkWnu9QRWWirDjVRbtG/ZLAo6ncV++OdEuKaUnARKIAgEsFi5LkvsgKf33IYrMmkarqAijUNNGyah2Mg4UIc1ljKoWCkMCPUpAh0UR//jAoIxd8Os3WI+KirCeCH+TAAmQAAlEgoAayCCm6J8Lkvi1JTvW1BvUglIRRqK6TRJS5wgtuk+YVCWUhQR6kIA6z8NnMAftd8eETCOk2to3KsK1s+vJK7W1cYKwJ6uehSYBowio8zxWn39oi/QftWRqXa8lKkKjqpbCkAAJkAAJeBFQAxkE1n7flth+kZ0Fr/Re56kIvQjxfA0BjSyDA2sei6/JjD9IgARIoE0CulxS6T/nznGZOLdWA5nq22I9QknqWCs3EvBDYFBSUIT0I/TDimlIgASCJzCAtedzUnhmRKyn1mMgUy0Ze4TVNLhPAiRAAiRgLIEEhkSzkv+oIPHbRXbnghKUijAoksyHBEiABEggNAI6bqmBtWEgc8cWmTm9lggyzYSjImxGhscbElgsrj7hOnSnb4iHB0mABEIi0I8hUbhLHLoo6SdgJbpuA5lqMakIq2lw3xeBIL/EfN2QiUiABHqaQApDogiq/V5KrNuukX3ZoGFQEQZNlPmRAAmQAAkERkCHQ+EkmHfF/ma/bD0bxoc4FWFg1cWMSIAESIAEgibQV3Sctw/OSOyloKxE62VM1B/g784TQMBYdYWxzkiafiydx887kgAJGEpA5wWXJffaqPQd2Cw7Ax8SLRebirBMYsP+uuj4q/6zYtfICBXhhtUDb0wCJGASAY0ek5f8OVsKu0XSl8KUjUOjYdJl3iRAAiRAAm0T0HlBbFlbnF3jsvDOemOJeglARehFiOdJgARIgAQ6SiCJFeehBO+eEevFoF0lGhWEQ6ONqPAYCZAACZDAhhDQEGpwlXhyVFI/HA1xXrC6cIg1asWrD3CfBEiABEiABDaCgC60m5XcX5KS2oNVJTKdkgFDoy6HRztFm/chARIgARJoSCCF4dC82FhaybplUD76GLOEHQtgxaHRhlXCgyRAAiRAAp0ioMG0EUN03hHnljG54qQlu9e10G67crM32C4xpicBEiABEgiMQLwYStvNFWAhCn/BI2E5zbcSmIqwFR2eIwESIAESCI2AuklAEbpZKdw+K+7TluzMh3azFhlTEbaAw1OrCViSsDBwH6fn/2o2PEICJOCfgAYSUTcJzAvuXxLngetkMrTIMV5ScY7QixDP1xAYxK+OzWDX3Jk/SIAEuoWAfkhrDNGc5H68JH37r5bdHbMQbcSQPcJGVHiMBEiABEggNAIaQxTh036Zlfhtn5adS6HdyGfGVIQ+QTFZmUAOH3MxtpsyDv4lARJoi4A6zMNX8LGCpL69VW693NbFISXmCy0ksN2abQZzhPQ97dbaZblIIDwCOhyqSjAjuccdsSfHZed8eHdrL2coQouGD+0x6+nUOkcIRahtmhsJkAAJ+CKgLwydE8xK/hERe9eYfOuirws7lAgh1uDEwY0EfBPIW2gw2m64kQAJkIAnAbUOTRWVYOHnBXEnTVOCWgAqQc9qDD+BLszrihP7SBaM1y8ZeE4g5APbTfjNgncggcgTUD/BlXUFDy7L8p5PyeSCiYXiC82cWonBl8X4+rCkYFnF+LTG62xzapaSkEAPEkjgdQZn+UJBCncuSvrOK2TvoqkY6Edoas0YKpeFnqtIgiuWGFo/FIsETCCgvUAMiV6Gs/zeURn+1ahMLpsgVzMZjO+BNBOcxzeOAIdGN44970wCphNQoxhM95zPSf6mUZl9yJKbjVaCypOK0PRWZZh8JeMqh5bGhtULxSEBEwgMQAnaYv8dSvArm2XueawunzNBLi8ZqAi9CPF8HYE45gi5mHMdFP4kgZ4moEYxuqhuTgq/syX/5XGZPwYlWIgKFMwRcmHeqFSWCXLm0F7QaDhHaEJlUAYSMICAriWIzc6KfY8rhbtMdI/wwpTAfA8NZrwo8XyFABZNgfuEFedQQgUJd0igZwn0Q33AN/Bj9ARvG5eRQ1GYD2xUWXyfNaLCY00J9MF9Ao2GPcKmhHiCBLqfgA6F6nwgOlJvIFrMjeMy91hUlaDWFnuD3d9mAy2hDo32sd0EypSZkUCUCOgagggAUsBQ6AMZydy9TfZOw4gu0quzURFGqQUaICviROgoAtuNAXVBEUigkwQ0VJoOhebEPoWe4O1zMvTba2WX8a4RfhjxheaHUkfSWNaETHTkTuu5iUaVwQPBdrMeiLyWBCJGYMUgxs1K4RC87vaNyvTpzbIL+rA7Nr7QDKhHV+CRAAUzI/3Gxy1bCa/GdmNAu6EIJBA2AZ0L7EMvEBFiTmHs8/sjkn/Kkj0bupp8GGXGC01fwtxIwDeBGKJGJNFufF/AhCRAAtEjoArQFicHJfhoUmIH+uTCGfgGdk0vsLpGsMqqy6/7aiLcb0kAptKxuDhJl4ajLTnxJAlElUAcz7YGzHbEOZYX5+4xkZct2ZWNann8yE0l6IcS01QIpCpzhJE2EquUhzskQAIlAuVhUPQCz2LFiPvnJf+Lq2TPnM7bdDsjKsJur+HAy5fA0KigR8iNBEigGwiUrUHR+7sEY5jH8ftHw7Lt1IjssLuhfH7KQEXohxLTVAjg65BzhBUa3CGB6BJQBajzgAWxc4gM8zwe7YNnZfatGyISKDtI8lSEQdLsgbzw0MQxfwBjGW4kQAJRJFBSgHFYgjo2DGFeQsjEe0fFOWLJrV09D9iqrqAIaTXaChDP1RJArFEOjdYi4S8SiASB8hxgqQfovAKhfzIiQ3+Mcmi0oMAnYAp/tdP9c6FB8QolH3VEwH/oaS0YHcMT84LWfNHK2MIcIWcJQ2kMzJQEAiYQhwVoCpag6AFeRlSY38Ma9ME5SR+9Vqa6IipMELhUEaaCyIh59AKBKTUg0+F0+hH2QnWzjJEloB/XGg1G3SCg/M4jLuiz+I59eERmTsAXMBKL5XYSvg6N8tO+k8Qjfa/tWILpXAp+RpwjjHQ9UvhuJRCD4usr9f5cBMZ+e1mcJ1HWp0dl2wdWD1mBtlu/NJZpl1hPpz+JCeWxJEJLIPI2v596uimw8MYQ0Lm/JJSfGsEUxLkAF4hXE2I98aEsHblevnvJGEENFoTGMgZXjoGixTCfnMLyE/yAMrByKFLvEFDlp8OeGgUGrg+LMID5Kz5ND6M3+EKfzKL3N1XoHRrrL6mGWFvS8WRuJOBN4LOxmCxgTtnF3DJbjTcvpiCB4AjosCdifhb/IfLLIrzdT9hSeAFK8cUh2XoSQ5+c+1sjbihC+Y92qbmRgBeBszJnDUgiDtNWXZOQGwmQQIgE9L2sFp+q/NSyH72+NPz+/mbB9w/q8JVhmaDyC4i/DnGdAtyAsmM2ayPgYmLbXV6WeaO/6K6SBTstm7EESyyPT6cBzhKurbZ5FQk0IqDDneVen56HtWcWCvD0sthv4syrGIp5s19mP+SwZyN66zuWwNf9cSjCaXx5TCDY6vpy49VtE9CvPpg5o8HLuStlH5TMVNt5dO6Cffm43D8LJZjGQztC/9POkeeduouAPvefzPPFdLkjVXwZ+PidyYpzHMYuR/FuPjYomXdE9ur0Fb87Q2wCiWGZnL4o9z00KCmYF9G/MkTWDbPWQWlMeM9j4OMYHg6jG7vKl5Z7zyclcQIT9dfAQq1hmXiQBHqdgD7Xquz0X7mnp3aduulzg2HOLJTfBXxM/hdDnSdw+C2cP7FJku+J7MxQ8RVRdex/Res/W9L7F2X8+iFJ3Wjjw0OHSktf+8G9l4PLqWNsQr+RPhh9ksSQaP44euTPhX7DAG6wLP2nLckexgfqF1KSGIfFWgC5MougCegLuGRQD3O4NWfu/0r/KRsLU1IRjc+pSilvn+yVj6z9rx+Zq++nTHXT/5dUXOlXdRqNuKRvz7y4Lnp36Fm4l2BYNg3ldw77Z3Dlu1CM79iSx3NkfTgq8wsY6uQXpaLcwK1Sh648mJyXzE1xSX7dEfsGVB7WY3RTaCyehhHlBtKqHOXG0yxNRZCqBM3yrT/ezrXl7EvXNLqylKL5mXIOtX+rhwl1X/+Vt+pzYKo9wOJXIj445vFgPJsR+65tMnmqnN70v+/LgbFRGf4qXrTfQeO4TkvKeWZzaq30fLhLaHczeOkurTzDns9xXQn0EdBrPB4FrX2NV2y1m3/d7TBNLtAddbdDWXDMdfQuuuFGqjSKigPHyvt6GvvNRlTcqrJYKixkdTWxytxKbr1Q7w0jCksNKfJwUtf58SzkyuA4pjLkEjJYwD6eZXfOFisNn75p7M8ggvVsnyynh+UzCyI79Dok42YiAdTN6m1eDo5bktqClrUJLpot41/mcTk6/wg1ErN0v9mWxIKuNlYuqD8PleCi8cTxFaWrGtQ1FCuO79lKQ9W+BwTG79p8NBA02mtN3pAJvV2n2Hr1nmi4er6SVynf4jE9rVsMeVfyQER27DuwkFT5HDw81ddbeIjcxEpm+GMNg9UE2rk+OCrMBAoytFKYAeS9DWlw2NWHMIe83sbtnocX0PFNcv7fUfwidGUqNiMDV/TJ0JdQvptRts/raAK3jSegztVob0cw/Pa9aXHfSMiwlYDFbzuSxWUIDXbAQsP12D7G+UErLfbK4+CRvMlpRzLuFoGbqj4qNVvGPSuLlYZVgM4pyHjxd07S7nY8pK8j/bT8s5Km+vKvCb7pZTvKDgPL4nYl/o5Z78p5MGnN5SoZw7WX3JMr98HlThSf1Woe3G9M4P/1iLHkAyCMSgAAAABJRU5ErkJggg==;container=0;" vertex="1" parent="DrQzbPBQm9nXxSn8lfKz-22">
          <mxGeometry x="57.69" y="140" width="34.62" height="40" as="geometry" />
        </mxCell>
        <mxCell id="DrQzbPBQm9nXxSn8lfKz-23" value="database store&lt;br&gt;(oracle)&lt;br&gt;VSMART" style="sketch=0;outlineConnect=0;fontColor=#232F3E;gradientColor=none;fillColor=#2E27AD;strokeColor=none;dashed=0;verticalLabelPosition=bottom;verticalAlign=top;align=center;html=1;fontSize=12;fontStyle=0;aspect=fixed;pointerEvents=1;shape=mxgraph.aws4.rds_oracle_instance;" vertex="1" parent="1">
          <mxGeometry x="426" y="520" width="78" height="78" as="geometry" />
        </mxCell>
        <mxCell id="DrQzbPBQm9nXxSn8lfKz-24" value="" style="edgeStyle=orthogonalEdgeStyle;rounded=0;orthogonalLoop=1;jettySize=auto;html=1;" edge="1" parent="1" source="DrQzbPBQm9nXxSn8lfKz-12" target="DrQzbPBQm9nXxSn8lfKz-23">
          <mxGeometry relative="1" as="geometry" />
        </mxCell>
      </root>
    </mxGraphModel>
  </diagram>
</mxfile>
